<svg width="13" height="14" fill="none" xmlns="http://www.w3.org/2000/svg"><path d="M2.37.283L.796 1.857A2.697 2.697 0 00.363 5.12c.687 1.18 1.25 2.05 3.605 4.402 2.352 2.356 2.992 2.676 4.152 3.356a2.69 2.69 0 003.258-.434l1.578-1.574L9.91 7.826 8.67 9.064a5.177 5.177 0 01-.629-.347c-.53-.34-1.21-.86-1.808-1.461A13.74 13.74 0 014.64 5.31c-.2-.297-.36-.566-.445-.742l-.008-.016 1.226-1.226L2.37.283zm0 1.414L4 3.326l-.715.719a.53.53 0 00-.16.406c0 .09.015.152.03.21.036.122.083.227.141.352.121.243.297.532.516.86a15.05 15.05 0 001.71 2.094c.661.656 1.388 1.21 1.985 1.59.297.19.559.335.781.433.114.05.215.09.336.113.059.012.125.02.215.012a.534.534 0 00.356-.16l.715-.715 1.632 1.629-.87.871a1.692 1.692 0 01-2.048.273c-1.18-.691-1.629-.875-3.953-3.195-2.32-2.324-2.765-3.039-3.445-4.203a1.692 1.692 0 01.273-2.047l.871-.871z" fill="#000"/></svg>