<svg width="13" height="14" fill="none" xmlns="http://www.w3.org/2000/svg"><path d="M2.371.283L.797 1.857A2.697 2.697 0 00.363 5.12c.688 1.18 1.25 2.05 3.606 4.402 2.351 2.356 2.992 2.676 4.152 3.356a2.69 2.69 0 003.258-.434l1.578-1.574L9.91 7.826 8.672 9.064a5.176 5.176 0 01-.629-.347c-.531-.34-1.21-.86-1.809-1.461A13.74 13.74 0 014.641 5.31a6.93 6.93 0 01-.446-.742l-.007-.016 1.226-1.226L2.371.283zm0 1.414l1.63 1.629-.716.719a.53.53 0 00-.16.406c0 .09.016.152.031.21.036.122.082.227.141.352.121.243.297.532.516.86a15.05 15.05 0 001.71 2.094c.66.656 1.387 1.21 1.985 1.59.297.19.559.335.781.433.113.05.215.09.336.113.059.012.125.02.215.012a.534.534 0 00.355-.16l.715-.715 1.633 1.629-.871.871a1.692 1.692 0 01-2.047.273c-1.18-.691-1.629-.875-3.953-3.195-2.32-2.324-2.766-3.039-3.445-4.203A1.692 1.692 0 011.5 2.568l.871-.871z" fill="#fff"/></svg>