<svg width="13" height="13" fill="none" xmlns="http://www.w3.org/2000/svg"><path d="M.5 0a.499.499 0 100 1 .499.499 0 100-1zm2 0a.499.499 0 100 1 .499.499 0 100-1zm2 0a.499.499 0 100 1 .499.499 0 100-1zm2 0a.499.499 0 100 1 .499.499 0 100-1zm2 0a.499.499 0 100 1 .499.499 0 100-1zm2 0a.499.499 0 100 1 .499.499 0 100-1zm2 0a.499.499 0 100 1 .499.499 0 100-1zM.5 2a.499.499 0 100 1 .499.499 0 100-1zm12 0a.499.499 0 100 1 .499.499 0 100-1zM6.465 3l1.414 1.414L6.293 6H.5c-.277 0-.5.223-.5.5v6c0 .277.223.5.5.5h6c.277 0 .5-.223.5-.5V6.707l1.586-1.586L10 6.535V3H6.465zM.5 4a.499.499 0 100 1 .499.499 0 100-1zm12 0a.499.499 0 100 1 .499.499 0 100-1zm0 2a.499.499 0 100 1 .499.499 0 100-1zM1 7h5v5H1V7zm11.5 1a.499.499 0 100 1 .499.499 0 100-1zm0 2a.499.499 0 100 1 .499.499 0 100-1zm-4 2a.499.499 0 100 1 .499.499 0 100-1zm2 0a.499.499 0 100 1 .499.499 0 100-1zm2 0a.499.499 0 100 1 .499.499 0 100-1z" fill="#fff"/></svg>