<svg width="10" height="10" fill="none" xmlns="http://www.w3.org/2000/svg"><path d="M9.18 6.33H4.2a.213.213 0 01-.21-.22V2.98h1.7v1.325c0 .066.032.127.086.163a.194.194 0 00.185.02l1.527-.614a.198.198 0 00.123-.182V2.98h1.773v3.13c0 .119-.086.22-.204.22zM7.217 2.98v.58l-1.133.455V2.98h1.133zm-1.099-.394l.22-1.404h.645l.202 1.404H6.118zm2.67-1.266l.513 1.266H7.584l-.202-1.404h1.204a.222.222 0 01.202.138zm-4.197 0a.222.222 0 01.202-.138h1.148l-.22 1.404H4.08l.512-1.266zM1.527.64H0V.05h2.315v6.356a1.995 1.995 0 00-.59-.032V.837A.198.198 0 001.526.64zm.382 9.32a1.601 1.601 0 110-3.201 1.601 1.601 0 010 3.201zM10 8.547H3.894a1.986 1.986 0 00-.032-.591H10v.59z" fill="#fff"/><path d="M1.908 7.498a.86.86 0 100 1.719.86.86 0 000-1.72zm0 1.327a.465.465 0 110-.93.465.465 0 010 .93z" fill="#fff"/></svg>