<svg width="10" height="10" fill="none" xmlns="http://www.w3.org/2000/svg"><g clip-path="url(#clip0)"><path d="M4.61 7.777L.16 3.327A.543.543 0 010 2.94c0-.146.057-.283.16-.386l.327-.328a.548.548 0 01.774 0l3.737 3.737 3.741-3.741a.543.543 0 01.387-.16c.146 0 .284.057.387.16l.327.327c.103.103.16.24.16.387a.543.543 0 01-.16.387L5.386 7.777a.544.544 0 01-.388.16.544.544 0 01-.388-.16z" fill="#787879"/></g><defs><clipPath id="clip0"><path fill="#fff" transform="matrix(0 1 1 0 0 0)" d="M0 0h10v10H0z"/></clipPath></defs></svg>