<svg width="10" height="10" fill="none" xmlns="http://www.w3.org/2000/svg"><g clip-path="url(#clip0)"><path d="M4.61 7.778L.16 3.328A.543.543 0 010 2.94c0-.147.057-.284.16-.387l.327-.328a.548.548 0 01.774 0l3.737 3.737 3.741-3.741a.543.543 0 01.387-.16c.146 0 .284.057.387.16l.327.328a.543.543 0 010 .774L5.386 7.777a.544.544 0 01-.388.159.544.544 0 01-.388-.16z" fill="#fff"/></g><defs><clipPath id="clip0"><path fill="#fff" transform="matrix(0 1 1 0 0 0)" d="M0 0h10v10H0z"/></clipPath></defs></svg>