<svg width="18" height="18" fill="none" xmlns="http://www.w3.org/2000/svg"><path d="M13.167 13.167h1.666A1.666 1.666 0 0016.5 11.5V8.167A1.667 1.667 0 0014.833 6.5H3.167A1.667 1.667 0 001.5 8.167V11.5a1.667 1.667 0 001.667 1.667h10zM6.5 16.5h5a1.666 1.666 0 001.667-1.667V11.5A1.666 1.666 0 0011.5 9.833h-5A1.667 1.667 0 004.833 11.5v3.333A1.666 1.666 0 006.5 16.5zm6.667-10V3.167A1.667 1.667 0 0011.5 1.5h-5a1.667 1.667 0 00-1.667 1.667V6.5h8.334z" stroke="#C4C4C4" stroke-width="2" stroke-linecap="round" stroke-linejoin="round"/></svg>