<svg width="16" height="16" fill="none" xmlns="http://www.w3.org/2000/svg"><path d="M14.688 10.128H6.72a.341.341 0 01-.335-.35v-5.01h2.72v2.12a.31.31 0 00.137.26.31.31 0 00.296.032l2.442-.98a.317.317 0 00.197-.292v-1.14h2.837v5.01c0 .188-.138.35-.327.35zm-3.14-5.36v.927l-1.813.729V4.768h1.813zm-1.758-.63l.35-2.246h1.033l.323 2.246H9.79zm4.272-2.026l.82 2.026h-2.747l-.323-2.246h1.927a.355.355 0 01.323.22zm-6.716 0a.356.356 0 01.324-.22h1.836l-.35 2.246h-2.63l.82-2.026zM2.443 1.025H0V.079h3.704V10.25a3.2 3.2 0 00-.945-.05V1.34a.316.316 0 00-.316-.315zm.611 14.912a2.562 2.562 0 110-5.123 2.562 2.562 0 010 5.123zM16 13.675H6.23a3.177 3.177 0 00-.051-.946H16v.946z" fill="#E30613"/><path d="M3.055 11.996a1.375 1.375 0 100 2.75 1.375 1.375 0 000-2.75zm0 2.124a.745.745 0 110-1.49.745.745 0 010 1.49z" fill="#E30613"/></svg>