<svg width="50" height="50" fill="none" xmlns="http://www.w3.org/2000/svg"><g clip-path="url(#clip0)"><path d="M4.917 4.518h21.944a2.515 2.515 0 012.514 2.515v8.295l3.352 19.835-12.258 1.818-18.067-2.68V7.033a2.515 2.515 0 012.515-2.515z" fill="#D9D9D9"/><path d="M22.916 36.618l-2.446.363-18.068-2.68V7.033a2.515 2.515 0 012.516-2.515h4.893a2.515 2.515 0 00-2.515 2.515V34.3l15.62 2.317z" fill="#D9D9D9"/><path d="M29.374 39.841H1.748a1.016 1.016 0 01-1.016-1.016v-3.508c0-.56.455-1.016 1.016-1.016h30.977" fill="#D9D9D9"/><path d="M5.269 39.84H1.748c-.56 0-1.016-.453-1.016-1.015v-3.508c0-.561.456-1.016 1.016-1.016h3.52c-.561 0-1.016.455-1.016 1.016v3.508c0 .561.455 1.016 1.017 1.016z" fill="#9E9E9E"/><path d="M48.238 35.745V26.99l-2.756-11.718a2.682 2.682 0 00-2.61-2.068H31.495c-1.172 0-2.121.95-2.121 2.123V39.84H41.1" fill="#E30613"/><path d="M34.848 13.205c-1.173 0-2.122.95-2.122 2.123V39.84h-3.351V15.328c0-1.172.95-2.123 2.121-2.123h3.352z" fill="#E30613"/><path d="M34.462 17.47l.002 6.7a1.18 1.18 0 01-1.18 1.18h-.675a1.18 1.18 0 01-1.18-1.18v-6.7c0-.652.529-1.18 1.18-1.18h.673c.651 0 1.18.528 1.18 1.18zm8.732 7.88h-5.121a1.18 1.18 0 01-1.18-1.18l-.002-6.7c0-.651.528-1.18 1.179-1.18h3.548a1.18 1.18 0 011.148.91l1.576 6.7a1.18 1.18 0 01-1.148 1.45z" fill="#726E77"/><path d="M45.883 33.222h2.354v-3.146h-2.354a1.573 1.573 0 100 3.146z" fill="#D9D9D9"/><path d="M46.341 32.761c.285.285.68.461 1.113.461h-1.57a1.57 1.57 0 01-1.573-1.573c0-.869.704-1.573 1.573-1.573h1.57a1.573 1.573 0 00-1.113 2.685zm-5.239 2.984h7.242c.51 0 .924.413.924.924v2.299c0 .51-.414.924-.924.924h-7.242v-4.147z" fill="#D9D9D9"/><path d="M46.338 38.968v-2.3a.924.924 0 00-.924-.923h-3.41v4.147h3.41c.51 0 .924-.414.924-.924z" fill="#D9D9D9"/><path d="M38.805 45.482a5.59 5.59 0 100-11.18 5.59 5.59 0 000 11.18z" fill="#726E77"/><path d="M40.043 45.344a5.59 5.59 0 110-10.905 5.593 5.593 0 000 10.905z" fill="#9E9E9E"/><path d="M38.803 42.53a2.637 2.637 0 100-5.276 2.637 2.637 0 000 5.275z" fill="#D9D9D9"/><path d="M41.445 39.892a2.638 2.638 0 01-3.492 2.494 2.637 2.637 0 000-4.989 2.637 2.637 0 013.492 2.495z" fill="#D9D9D9"/><path d="M10.645 45.482a5.59 5.59 0 100-11.18 5.59 5.59 0 000 11.18z" fill="#726E77"/><path d="M11.883 45.344a5.59 5.59 0 110-10.905 5.593 5.593 0 000 10.905z" fill="#9E9E9E"/><path d="M10.643 42.53a2.638 2.638 0 100-5.276 2.638 2.638 0 000 5.275z" fill="#D9D9D9"/><path d="M13.285 39.892a2.638 2.638 0 01-3.492 2.494 2.636 2.636 0 000-4.989 2.637 2.637 0 013.492 2.495z" fill="#D9D9D9"/><path d="M10.645 36.522a3.374 3.374 0 00-3.37 3.37 3.374 3.374 0 003.37 3.37 3.374 3.374 0 003.37-3.37 3.374 3.374 0 00-3.37-3.37zm0 5.275a1.907 1.907 0 01-1.905-1.905c0-1.05.855-1.905 1.905-1.905s1.905.854 1.905 1.905c0 1.05-.854 1.905-1.905 1.905zm28.161-5.275a3.374 3.374 0 00-3.37 3.37 3.374 3.374 0 003.37 3.37 3.374 3.374 0 003.37-3.37 3.374 3.374 0 00-3.37-3.37zm0 5.275a1.907 1.907 0 01-1.906-1.905c0-1.05.855-1.905 1.906-1.905 1.05 0 1.905.854 1.905 1.905 0 1.05-.855 1.905-1.905 1.905zM35.194 17.47a1.914 1.914 0 00-1.912-1.912h-.673a1.914 1.914 0 00-1.912 1.912v6.7c0 1.054.858 1.912 1.912 1.912h.675a1.9 1.9 0 001.352-.56 1.9 1.9 0 00.56-1.352l-.002-6.7zM33.6 24.485a.444.444 0 01-.316.131h-.676a.447.447 0 01-.447-.447v-6.7c0-.247.2-.447.447-.447h.673c.247 0 .447.2.447.447l.002 6.7c0 .12-.046.232-.13.316zm4.475 1.597h5.12a1.9 1.9 0 001.499-.725 1.9 1.9 0 00.363-1.624l-1.576-6.7a1.904 1.904 0 00-1.861-1.475h-3.548a1.9 1.9 0 00-1.352.56 1.9 1.9 0 00-.56 1.353l.003 6.7c0 1.054.858 1.911 1.912 1.911zm-.32-8.928a.443.443 0 01.317-.131h3.547c.209 0 .388.142.435.344l1.576 6.701a.44.44 0 01-.084.38.44.44 0 01-.35.17h-5.121a.448.448 0 01-.447-.447l-.003-6.701c0-.12.046-.232.13-.316zm-3.726 10.062h-1.976a.732.732 0 100 1.465h1.976a.732.732 0 000-1.465zM11.64 30.321V8.498a.732.732 0 10-1.464 0v21.823a.732.732 0 001.465 0zm9.958 0V8.498a.733.733 0 00-1.465 0v21.823a.732.732 0 001.465 0z" fill="#000"/><path d="M48.972 35.137V26.99a.73.73 0 00-.02-.168l-2.756-11.718a3.402 3.402 0 00-3.322-2.632H31.496c-.504 0-.978.132-1.39.363V7.033a3.251 3.251 0 00-3.247-3.248H4.916a3.251 3.251 0 00-3.247 3.248v6.28a.732.732 0 001.465 0v-6.28c0-.983.8-1.783 1.782-1.783h21.943c.983 0 1.783.8 1.783 1.783V33.57H3.134V16.213a.732.732 0 00-1.465 0v17.36A1.749 1.749 0 000 35.317v3.508a1.75 1.75 0 001.748 1.749H4.36a6.331 6.331 0 006.285 5.64 6.332 6.332 0 006.286-5.64H32.52a6.332 6.332 0 006.286 5.64c3.238 0 5.914-2.447 6.278-5.59h3.26c.913 0 1.656-.743 1.656-1.657V36.67a1.66 1.66 0 00-1.028-1.532zm-1.465-2.648h-1.621a.842.842 0 010-1.68h1.62v1.68zm-32.82 2.545h13.955v4.075H16.918a6.319 6.319 0 00-2.23-4.075zm-13.222 3.79v-3.507c0-.156.127-.283.283-.283h4.855a6.318 6.318 0 00-2.23 4.075H1.748a.284.284 0 01-.283-.284zm9.18 5.925a4.863 4.863 0 01-4.857-4.857 4.863 4.863 0 014.84-4.858h.034a4.863 4.863 0 014.841 4.858 4.863 4.863 0 01-4.857 4.857zm28.16.001a4.864 4.864 0 01-4.858-4.858c0-1.308.513-2.535 1.444-3.455a.732.732 0 10-1.03-1.042 6.272 6.272 0 00-1.829 3.714h-2.426V15.328c0-.766.624-1.39 1.39-1.39h11.378c.907 0 1.687.618 1.896 1.503l2.737 11.635v2.268h-1.621a2.308 2.308 0 00-2.306 2.305 2.308 2.308 0 002.306 2.305h1.62v1.058h-4.684a6.293 6.293 0 00-4.016-1.443 6.37 6.37 0 00-1.638.214.732.732 0 10.377 1.416 4.863 4.863 0 016.118 4.693 4.863 4.863 0 01-4.857 4.858zm9.73-5.783a.192.192 0 01-.192.192h-3.259a6.28 6.28 0 00-.962-2.682h4.221c.106 0 .192.086.192.192v2.298z" fill="#000"/></g><defs><clipPath id="clip0"><path fill="#fff" d="M0 0h50v50H0z"/></clipPath></defs></svg>