<svg width="50" height="50" fill="none" xmlns="http://www.w3.org/2000/svg"><g clip-path="url(#clip0)"><path fill-rule="evenodd" clip-rule="evenodd" d="M15.993 42.537H44.94a.76.76 0 00.759-.759V15.192a.76.76 0 00-.759-.758H15.993a.76.76 0 00-.759.758v26.586c0 .418.34.759.759.759z" fill="#9E9E9E"/><path fill-rule="evenodd" clip-rule="evenodd" d="M42.572 42.537h2.37a.76.76 0 00.758-.759V15.192a.76.76 0 00-.758-.758h-2.37a.76.76 0 01.759.758v26.586a.76.76 0 01-.759.759z" fill="#9E9E9E"/><path fill-rule="evenodd" clip-rule="evenodd" d="M26.897 37.421h7.14c.417 0 .758.343.758.759v3.598a.76.76 0 01-.759.759h-7.139a.761.761 0 01-.758-.759V38.18c0-.416.343-.759.758-.759zm7.898-22.987v6.9c0 .416-.34.76-.759.76h-7.139a.763.763 0 01-.758-.76v-6.9h8.656z" fill="#1D327B"/><path fill-rule="evenodd" clip-rule="evenodd" d="M31.668 37.421h2.37c.418 0 .758.343.758.759v3.598a.76.76 0 01-.758.759h-2.37a.76.76 0 00.758-.759V38.18a.761.761 0 00-.758-.759zm3.128-22.987v6.9c0 .416-.34.76-.758.76h-2.37a.762.762 0 00.758-.76v-6.9h2.37z" fill="#1D327B"/><path fill-rule="evenodd" clip-rule="evenodd" d="M10.01 40.851h38.503c.416 0 .759.34.759.758v1.855a.761.761 0 01-.759.759H10.01V40.85z" fill="#9E9E9E"/><path fill-rule="evenodd" clip-rule="evenodd" d="M46.143 40.851h2.37c.414 0 .758.34.758.758v1.855a.761.761 0 01-.759.759h-2.37c.416 0 .76-.34.76-.759V41.61a.761.761 0 00-.76-.758z" fill="#9E9E9E"/><path fill-rule="evenodd" clip-rule="evenodd" d="M10.008 40.851a3.37 3.37 0 013.372 3.372 3.37 3.37 0 01-3.372 3.371 3.37 3.37 0 01-3.371-3.371 3.37 3.37 0 013.371-3.372zm30.465 0a3.37 3.37 0 013.371 3.372 3.37 3.37 0 01-3.371 3.371 3.37 3.37 0 01-3.372-3.371 3.37 3.37 0 013.372-3.372z" fill="#1D327B"/><path fill-rule="evenodd" clip-rule="evenodd" d="M10.007 40.851a3.37 3.37 0 013.372 3.372 3.37 3.37 0 01-4.557 3.158 3.376 3.376 0 002.187-3.158c0-1.445-.91-2.677-2.187-3.159a3.356 3.356 0 011.185-.213zm30.465 0a3.37 3.37 0 013.371 3.372 3.37 3.37 0 01-4.556 3.158 3.375 3.375 0 000-6.317 3.358 3.358 0 011.184-.213z" fill="#1D327B"/><path d="M32.507 26.611a.733.733 0 010 1.035.734.734 0 01-1.035 0l-.274-.274v6.39a.733.733 0 01-1.464 0v-6.39l-.275.274a.734.734 0 01-1.035 0 .734.734 0 010-1.035l1.525-1.522a.729.729 0 011.036 0l1.522 1.522zM19.284 40.117l-3.317-3.316v3.316h3.317zm-4.781-4.78l-3.765-3.762v8.542h3.765v-4.78zM10.738 29.5l3.765 3.765V14.434c0-.405.326-.734.73-.734h30.465c.404 0 .734.33.734.734v11.549a.732.732 0 11-1.464 0V15.164h-9.44v6.93c0 .403-.33.73-.734.73h-8.656a.73.73 0 01-.731-.73V19.92a.733.733 0 011.464 0v1.44h7.192v-6.196h-7.192v1.44a.733.733 0 11-1.464 0v-1.44h-9.44V34.73l5.387 5.387h4.053v-2.696a.73.73 0 01.73-.73h8.657c.404 0 .734.326.734.73v2.696h9.44V29.302a.732.732 0 111.464 0v10.815h2.837c.404 0 .731.33.731.734v3.372a.733.733 0 01-.73.733h-4.76a4.104 4.104 0 01-4.039 3.372 4.104 4.104 0 01-4.038-3.372h-9.534a.732.732 0 110-1.464h9.534a4.05 4.05 0 01.897-1.907H13.15c.45.534.766 1.187.896 1.907h9.534a.733.733 0 110 1.464h-9.534a4.071 4.071 0 01-1.138 2.17 4.092 4.092 0 01-2.9 1.202 4.098 4.098 0 01-4.106-4.105c0-1.132.46-2.16 1.201-2.901a4.119 4.119 0 012.17-1.138V5.777c0-.725-.296-1.384-.774-1.863a2.63 2.63 0 00-1.863-.777H1.464V4.99A.733.733 0 010 4.99V2.406c0-.405.33-.734.734-.734h5.902c1.129 0 2.156.462 2.898 1.204a4.093 4.093 0 011.204 2.901v23.724zm29.424 15.455a.733.733 0 110-1.464h.62a.733.733 0 110 1.464h-.62zm-30.468 0a.732.732 0 010-1.464h.623a.732.732 0 110 1.464h-.623zM37.8 18.434a.732.732 0 010-1.465h4.892a.733.733 0 110 1.465H37.8zm0 3.371a.73.73 0 01-.73-.733.73.73 0 01.73-.73h3.037a.733.733 0 110 1.463H37.8zm-3.737 16.35h-7.192v1.962h7.192v-1.962zm9.55 3.43a4.05 4.05 0 01.898 1.907h4.024v-1.907h-4.921zm-1.276.772a2.623 2.623 0 00-1.865-.773c-.728 0-1.39.294-1.866.773a2.625 2.625 0 00-.775 1.866c0 .73.296 1.39.775 1.868a2.634 2.634 0 001.866.773c.728 0 1.39-.297 1.865-.773a2.632 2.632 0 00.776-1.868c0-.703-.277-1.37-.776-1.866zm-30.464 0a2.622 2.622 0 00-1.866-.773 2.62 2.62 0 00-1.865.773 2.625 2.625 0 00-.776 1.866c0 .73.297 1.39.776 1.868a2.634 2.634 0 001.865.773c.728 0 1.39-.297 1.866-.773a2.631 2.631 0 00.775-1.868c0-.703-.277-1.37-.775-1.866z" fill="#000"/></g><defs><clipPath id="clip0"><path fill="#fff" d="M0 0h50v50H0z"/></clipPath></defs></svg>