<svg width="50" height="50" fill="none" xmlns="http://www.w3.org/2000/svg"><g clip-path="url(#clip0)"><path fill-rule="evenodd" clip-rule="evenodd" d="M24.999 49.271C38.365 49.271 49.27 38.366 49.27 25 49.27 11.634 38.365.732 24.999.732 11.633.732.73 11.634.73 25 .73 38.366 11.633 49.271 25 49.271z" fill="#D9D9D9"/><path fill-rule="evenodd" clip-rule="evenodd" d="M24.999.732C38.404.732 49.27 11.595 49.27 25c0 13.405-10.866 24.271-24.271 24.271-.476 0-.952-.017-1.423-.044C36.32 48.49 46.424 37.926 46.424 25S36.32 1.51 23.576.773c.47-.027.947-.041 1.423-.041z" fill="#D9D9D9"/><path fill-rule="evenodd" clip-rule="evenodd" d="M36.857 33.477a3.224 3.224 0 010 6.448 3.224 3.224 0 010-6.448zM30.285 5.311a3.224 3.224 0 010 6.448 3.224 3.224 0 010-6.448zM7.27 20.728a3.224 3.224 0 11-.003 6.449 3.224 3.224 0 01.003-6.449zm11.661 17.64a3.224 3.224 0 013.225 3.223 3.224 3.224 0 01-6.447 0 3.222 3.222 0 013.222-3.222z" fill="#D9D9D9"/><path fill-rule="evenodd" clip-rule="evenodd" d="M36.857 33.477a3.224 3.224 0 11-1.423 6.116 3.224 3.224 0 000-5.786c.43-.21.911-.33 1.423-.33zM30.285 5.311a3.224 3.224 0 11-1.423 6.118 3.225 3.225 0 000-5.789c.429-.21.913-.33 1.423-.33zM7.27 20.728a3.224 3.224 0 11-1.423 6.119 3.222 3.222 0 000-5.786c.429-.214.91-.333 1.423-.333zm11.66 17.64a3.224 3.224 0 013.226 3.223 3.224 3.224 0 01-4.646 2.893 3.226 3.226 0 000-5.786c.43-.213.91-.33 1.42-.33z" fill="#D9D9D9"/><path fill-rule="evenodd" clip-rule="evenodd" d="M36.856 14.676c4.471 0 8.096 3.752 8.096 8.093 0 4.343-4.765 9.18-7.6 12.145-.332.343-.64.362-.99 0-2.855-2.949-7.6-7.802-7.6-12.145 0-4.341 3.623-8.093 8.094-8.093z" fill="#E30613"/><path fill-rule="evenodd" clip-rule="evenodd" d="M36.855 14.676c4.471 0 8.095 3.752 8.095 8.093 0 4.343-4.764 9.18-7.6 12.145-.331.343-.639.362-.99 0-.294-.305-.606-.626-.93-.967 2.834-2.981 6.674-7.278 6.674-11.179 0-3.87-2.879-7.272-6.672-7.964a8.06 8.06 0 011.423-.128z" fill="#E30613"/><path fill-rule="evenodd" clip-rule="evenodd" d="M36.856 26.841a4.08 4.08 0 004.07-4.072 4.076 4.076 0 00-4.07-4.07 4.079 4.079 0 00-4.073 4.07 4.081 4.081 0 004.073 4.072z" fill="#D9D9D9"/><path fill-rule="evenodd" clip-rule="evenodd" d="M36.857 18.699a4.07 4.07 0 014.07 4.07 4.07 4.07 0 01-5.493 3.817 4.075 4.075 0 000-7.632 4.041 4.041 0 011.423-.255z" fill="#D9D9D9"/><path d="M29.654 21.271a.73.73 0 11-1.431-.302 8.985 8.985 0 013.114-5.044 8.72 8.72 0 015.52-1.982c2.423 0 4.615 1.008 6.21 2.603 1.614 1.614 2.616 3.837 2.616 6.223 0 3.865-3.388 7.951-6.207 10.971a3.96 3.96 0 011.337 2.96 3.945 3.945 0 01-1.16 2.799 3.947 3.947 0 01-2.796 1.157 3.953 3.953 0 01-2.627-6.91c-2.384-2.544-5.166-5.866-5.969-9.158a.729.729 0 01.54-.88.726.726 0 01.88.537c.76 3.106 3.622 6.403 5.967 8.875.4.421.805.84 1.21 1.255.368-.385.739-.77 1.107-1.158 2.716-2.868 6.254-6.907 6.254-10.448 0-1.985-.836-3.837-2.187-5.188-1.332-1.331-3.16-2.173-5.174-2.173a7.27 7.27 0 00-4.599 1.65 7.521 7.521 0 00-2.605 4.213zm1.226 16.53a.733.733 0 01.377 1.415l-1.745.471a.73.73 0 11-.376-1.412l1.744-.473zm-4.49 1.216a.735.735 0 01.897.518.735.735 0 01-.518.897l-1.744.47a.732.732 0 11-.38-1.412l1.745-.473zm5.54-5.684a.73.73 0 11-.56 1.351l-1.666-.697a.733.733 0 01-.396-.958.734.734 0 01.958-.393l1.663.697zm-4.289-1.796a.73.73 0 11-.56 1.348l-1.666-.698a.73.73 0 11.56-1.35l1.666.7zm-4.288-1.8a.732.732 0 01-.562 1.351l-1.667-.698a.732.732 0 01.562-1.35l1.667.697zm-4.291-1.796a.73.73 0 11-.56 1.35l-1.666-.697a.733.733 0 01-.396-.958.734.734 0 01.958-.393l1.664.698zm-4.289-1.797a.73.73 0 11-.559 1.348l-1.667-.698a.73.73 0 11.56-1.351l1.666.7zm9.903-15.163a.732.732 0 011.014.188.73.73 0 01-.192 1.013l-1.486 1.025a.729.729 0 01-.825-1.202l1.49-1.024zm-3.834 2.635a.729.729 0 01.825 1.202l-1.49 1.021a.726.726 0 01-1.013-.188.731.731 0 01.188-1.013l1.49-1.022zM17.01 16.25a.731.731 0 011.013.189.731.731 0 01-.188 1.013l-1.49 1.024a.729.729 0 01-.825-1.202l1.49-1.024zm-3.834 2.636A.729.729 0 0114 20.087l-1.49 1.02a.727.727 0 11-.822-1.2l1.487-1.022zM30.285 4.58c1.093 0 2.082.443 2.796 1.157a3.942 3.942 0 011.16 2.797 3.944 3.944 0 01-1.16 2.798 3.942 3.942 0 01-2.796 1.158 3.941 3.941 0 01-2.796-1.158 3.944 3.944 0 01-1.16-2.798c0-1.091.443-2.08 1.16-2.797a3.941 3.941 0 012.796-1.157zm1.76 2.193a2.481 2.481 0 00-1.76-.728 2.48 2.48 0 00-1.76.728 2.486 2.486 0 001.76 4.252 2.493 2.493 0 002.492-2.491c0-.687-.28-1.31-.731-1.761zM7.272 19.998c1.09 0 2.079.443 2.796 1.157a3.943 3.943 0 011.16 2.799c0 1.09-.443 2.079-1.16 2.796a3.94 3.94 0 01-2.796 1.157 3.952 3.952 0 01-3.956-3.953 3.953 3.953 0 013.956-3.956zm1.76 2.192a2.493 2.493 0 00-3.524 3.525 2.484 2.484 0 001.764.728 2.482 2.482 0 002.489-2.49c0-.689-.277-1.311-.728-1.763zm29.44 12.613l-.592.615c-.302.318-.631.484-1.005.49-.487.008-.8-.24-1.121-.573l-.515-.532c-.205.175-.38.385-.52.618a2.461 2.461 0 00-.352 1.279c0 .69.28 1.312.73 1.764a2.493 2.493 0 003.898-3.045 2.475 2.475 0 00-.523-.616zm-19.54 2.833a3.953 3.953 0 013.957 3.956c0 1.09-.443 2.081-1.158 2.796a3.943 3.943 0 01-2.798 1.16 3.944 3.944 0 01-2.797-1.16 3.935 3.935 0 01-1.157-2.796 3.951 3.951 0 013.953-3.956zm1.764 2.195a2.486 2.486 0 00-3.524 0 2.472 2.472 0 00-.728 1.76c0 .687.277 1.31.728 1.761a2.486 2.486 0 003.524 0 2.493 2.493 0 000-3.521zm19.772 2.912a.728.728 0 011.03.07.728.728 0 01-.069 1.03 24.924 24.924 0 01-17.286 6.143A24.919 24.919 0 017.32 42.68 24.92 24.92 0 01.015 25.858 24.93 24.93 0 016.158 8.572a.729.729 0 011.03-.069.728.728 0 01.069 1.03 23.462 23.462 0 00-5.78 16.281 23.438 23.438 0 006.88 15.83 23.453 23.453 0 0015.83 6.883c5.79.196 11.643-1.73 16.28-5.784zM9.533 7.257a.728.728 0 01-1.03-.069.728.728 0 01.069-1.03A24.929 24.929 0 0125.858.015 24.919 24.919 0 0142.68 7.321a24.919 24.919 0 017.306 16.821 24.925 24.925 0 01-6.143 17.286.728.728 0 01-1.03.07.728.728 0 01-.069-1.03c4.053-4.638 5.98-10.49 5.783-16.282a23.454 23.454 0 00-6.882-15.83 23.438 23.438 0 00-15.83-6.88C20.022 1.278 14.17 3.205 9.533 7.258zm27.324 10.709a4.79 4.79 0 013.397 1.406c.87.87 1.407 2.07 1.407 3.397a4.789 4.789 0 01-1.407 3.397 4.793 4.793 0 01-3.397 1.409 4.791 4.791 0 01-3.397-1.41 4.789 4.789 0 01-1.406-3.396 4.79 4.79 0 011.406-3.397 4.789 4.789 0 013.397-1.406zm2.362 2.444a3.327 3.327 0 00-2.362-.98 3.32 3.32 0 00-2.361.98 3.324 3.324 0 00-.977 2.359c0 .922.373 1.758.977 2.361a3.33 3.33 0 002.361.978 3.336 3.336 0 002.362-5.698z" fill="#000"/></g><defs><clipPath id="clip0"><path fill="#fff" d="M0 0h50v50H0z"/></clipPath></defs></svg>