<svg width="50" height="50" fill="none" xmlns="http://www.w3.org/2000/svg"><g clip-path="url(#clip0)"><path d="M13.587 16.348l9.628-2.511-3.099-11.88-9.628 2.511 3.099 11.88z" fill="#D9D9D9"/><path d="M19.948 12.348l9.94-.448-.336-7.456-9.94.449.336 7.455zm9.235 3.353l9.426 3.189 5.048-14.926L34.231.776 29.183 15.7z" fill="#D9D9D9"/><path d="M27.072 29.32H7.17v19.902h19.9V29.32z" fill="#1D327B"/><path d="M42.83 29.32H27.074v19.902H42.83V29.32z" fill="#D9D9D9"/><path d="M27.075 26.004H4.685v4.975h22.39v-4.975z" fill="#1D327B"/><path d="M45.317 26.004H27.074v4.975h18.243v-4.975zM20.438 38.442H7.17v4.975h13.268v-4.975z" fill="#D9D9D9"/><path d="M37.852 38.443h-5.805a1.658 1.658 0 01-1.658-1.659v-2.488h9.121v2.488c0 .916-.742 1.659-1.658 1.659z" fill="#9E9E9E"/><path d="M37.44 34.296v2.488a1.66 1.66 0 01-1.659 1.659h2.073a1.66 1.66 0 001.659-1.659v-2.488H37.44z" fill="#9E9E9E"/><path d="M27.073 10.248H10.488v15.756h16.585V10.248z" fill="#1D327B"/><path d="M42.83 10.248H27.074v15.756H42.83V10.248zm-22.39 6.634h-9.952v4.975h9.951v-4.975z" fill="#D9D9D9"/><path d="M37.852 17.712h-5.805a1.658 1.658 0 01-1.658-1.659v-2.487h9.121v2.487c0 .916-.742 1.659-1.658 1.659z" fill="#9E9E9E"/><path d="M37.44 13.566v2.487a1.66 1.66 0 01-1.659 1.659h2.073a1.66 1.66 0 001.659-1.659v-2.487H37.44z" fill="#9E9E9E"/><path d="M42.83 23.516H27.074v2.488H42.83v-2.488zm0 7.463H27.074v2.488H42.83v-2.488z" fill="#1D327B"/><path d="M27.07 23.516H10.487v2.488h16.585v-2.488zm.002 7.463H7.17v2.488h19.9v-2.488z" fill="#D9D9D9"/><path d="M45.314 25.227h-1.71v-2.54a.777.777 0 10-1.555 0v2.54h-14.2v-14.2h14.2v7.514a.777.777 0 101.555 0v-8.292a.777.777 0 00-.777-.778h-.213l1.778-5.256a.785.785 0 00-.487-.985L34.479.04a.777.777 0 00-.986.487l-2.95 8.72-.218-4.839a.786.786 0 00-.811-.741l-8.055.363-.592-2.27a.777.777 0 00-.948-.557L10.29 3.716a.777.777 0 00-.556.949l1.254 4.806h-.502a.777.777 0 00-.777.778v14.978H4.682a.777.777 0 00-.778.777v4.976c0 .429.348.777.778.777h1.71v17.466c0 .429.348.777.777.777h35.657c.43 0 .778-.348.778-.777V31.757h1.71c.43 0 .778-.348.778-.777v-4.976a.777.777 0 00-.778-.777zM34.717 1.763l7.953 2.69-1.697 5.018h-8.864l2.608-7.708zm-5.72 7.708h-8.404l-.173-3.836 8.387-.38.19 4.216zM19.56 2.905l.312 1.198c-.177.008-.365-.001-.534.061a.785.785 0 00-.506.764l.205 4.543h-6.441l-1.16-4.447 8.124-2.119zM11.264 17.66h8.396v3.42h-8.396v-3.42zm0 4.975h9.173c.43 0 .778-.348.778-.777v-4.976a.777.777 0 00-.778-.777h-9.173v-5.079h15.03v14.2h-15.03v-2.59zM7.947 39.22H19.66v3.42H7.947v-3.42zm0 4.975h12.49c.43 0 .778-.348.778-.777v-4.975a.777.777 0 00-.778-.778H7.947v-5.908h6.271a.777.777 0 100-1.555H5.459v-3.42h20.835v3.42h-7.93a.777.777 0 100 1.555h7.93v16.688H7.947v-4.25zm34.102 4.25h-14.2V31.757h14.2v16.688zm2.488-18.243H27.848v-3.42h16.689v3.42z" fill="#000"/><path d="M32.05 39.22h5.804a2.439 2.439 0 002.436-2.436v-2.487a.777.777 0 00-.778-.778h-9.121a.777.777 0 00-.778.778v2.487a2.439 2.439 0 002.436 2.436zm-.882-4.146h7.567v1.71a.882.882 0 01-.881.881h-5.805a.882.882 0 01-.88-.88v-1.711zm-.778-22.286a.777.777 0 00-.777.778v2.487a2.439 2.439 0 002.436 2.436h5.805a2.439 2.439 0 002.436-2.436v-2.487a.777.777 0 00-.778-.778h-9.121zm8.345 3.265a.882.882 0 01-.881.881h-5.805a.882.882 0 01-.88-.88v-1.71h7.566v1.71zm-21.612-3.265h-4.146a.777.777 0 100 1.555h4.146a.777.777 0 100-1.555zm-1.659 21.56h-4.976a.777.777 0 100 1.555h4.976a.777.777 0 100-1.555zm4.976 0h-2.487a.777.777 0 100 1.555h2.488a.777.777 0 100-1.555z" fill="#000"/></g><defs><clipPath id="clip0"><path fill="#fff" d="M0 0h50v50H0z"/></clipPath></defs></svg>