<svg width="50" height="50" fill="none" xmlns="http://www.w3.org/2000/svg"><path d="M13.569 49.268c-5.366 0-9.731-4.377-9.731-9.758a9.82 9.82 0 014.04-7.914V6.481c0-3.105 2.405-5.628 5.474-5.744.073-.003.145-.005.217-.005 3.138 0 5.69 2.56 5.69 5.706v25.158a9.82 9.82 0 014.04 7.914c.001 5.38-4.364 9.758-9.73 9.758z" fill="#F7F7F7"/><path d="M13.569 49.268c-5.366 0-9.731-4.377-9.731-9.758a9.82 9.82 0 014.04-7.914V6.481c0-3.105 2.405-5.628 5.474-5.744.073-.003.145-.005.217-.005 3.138 0 5.69 2.56 5.69 5.706v25.158a9.82 9.82 0 014.04 7.914c.001 5.38-4.364 9.758-9.73 9.758z" fill="#D9D9D9"/><path d="M19.26 31.596V6.438c0-3.146-2.553-5.706-5.69-5.706a5.747 5.747 0 00-1.466.193 5.713 5.713 0 014.227 5.513v25.158a9.82 9.82 0 014.04 7.914c0 4.881-3.593 8.937-8.267 9.647.478.073.967.11 1.465.11 5.366 0 9.731-4.376 9.731-9.757a9.82 9.82 0 00-4.04-7.914z" fill="#D9D9D9"/><path d="M13.57 45.279c-3.173 0-5.754-2.588-5.754-5.769a5.804 5.804 0 012.824-4.965 2.493 2.493 0 001.216-2.143V6.481c0-.93.72-1.723 1.647-1.758a1.716 1.716 0 011.779 1.715v25.965c0 .88.462 1.694 1.216 2.142a5.804 5.804 0 012.824 4.965c0 3.181-2.58 5.769-5.753 5.769z" fill="#F7F7F7"/><path d="M13.57 45.279c-3.173 0-5.754-2.588-5.754-5.769a5.804 5.804 0 012.824-4.965 2.493 2.493 0 001.216-2.143V6.481c0-.93.72-1.723 1.647-1.758a1.716 1.716 0 011.779 1.715v25.965c0 .88.462 1.694 1.216 2.142a5.804 5.804 0 012.824 4.965c0 3.181-2.58 5.769-5.753 5.769z" fill="#9E9E9E"/><path d="M16.498 34.545a2.493 2.493 0 01-1.217-2.142v-4.245h-3.425v4.245c0 .879-.462 1.694-1.216 2.142a5.804 5.804 0 00-2.824 4.965c0 3.181 2.581 5.769 5.753 5.769s5.753-2.588 5.753-5.769a5.805 5.805 0 00-2.823-4.965z" fill="#1D327B"/><path d="M16.498 34.545a2.493 2.493 0 01-1.217-2.142v-4.245h-2.93v4.245c0 .879.463 1.694 1.217 2.142a5.804 5.804 0 012.823 4.965 5.775 5.775 0 01-4.287 5.579c.467.123.958.19 1.464.19 3.172 0 5.753-2.588 5.753-5.769a5.804 5.804 0 00-2.823-4.965z" fill="#1D327B"/><path d="M22.081 44.291a.733.733 0 00-1.015.206 8.985 8.985 0 01-7.497 4.038c-4.962 0-8.999-4.048-8.999-9.024a9.074 9.074 0 013.738-7.322.733.733 0 00.303-.593V14.99a.732.732 0 10-1.465 0v16.241a10.545 10.545 0 00-4.04 8.28C3.105 45.294 7.798 50 13.568 50c3.508 0 6.767-1.755 8.717-4.694a.732.732 0 00-.205-1.015z" fill="#000"/><path d="M19.993 31.231V6.438C19.993 2.888 17.112 0 13.57 0a6.72 6.72 0 00-.245.005C9.861.136 7.146 2.98 7.146 6.48v5.58a.732.732 0 001.465 0V6.48c0-2.71 2.095-4.911 4.77-5.013l.189-.003c2.734 0 4.958 2.231 4.958 4.973v25.158c0 .235.113.455.303.593a9.074 9.074 0 013.737 7.321c0 .842-.116 1.676-.344 2.478a.733.733 0 001.409.401 10.5 10.5 0 00.4-2.879c0-3.227-1.504-6.294-4.04-8.279z" fill="#000"/><path d="M15.262 4.673a2.425 2.425 0 00-1.787-.682c-1.318.05-2.35 1.143-2.35 2.49v25.921c0 .619-.33 1.199-.86 1.514a6.54 6.54 0 00-3.181 5.595c0 3.584 2.91 6.5 6.485 6.5 3.576 0 6.485-2.916 6.485-6.5a6.54 6.54 0 00-3.18-5.595 1.769 1.769 0 01-.86-1.514v-3.515h.5a.732.732 0 100-1.465h-.5V24.94h.5a.732.732 0 100-1.465h-.5v-2.482h.5a.732.732 0 100-1.465h-.5v-2.482h.5a.732.732 0 000-1.464h-.5V13.1h.5a.732.732 0 100-1.465h-.5V9.153h.5a.732.732 0 100-1.465h-.5v-1.25c0-.672-.267-1.299-.752-1.765zm.862 30.502a5.068 5.068 0 012.466 4.336c0 2.776-2.253 5.035-5.02 5.035-2.769 0-5.021-2.259-5.021-5.035a5.07 5.07 0 012.465-4.336 3.24 3.24 0 001.575-2.772v-3.516h1.96v3.516a3.24 3.24 0 001.575 2.772zm-3.535-7.753V6.48c0-.546.422-1.007.942-1.027h.038a.97.97 0 01.678.274c.195.188.302.44.302.71v20.984h-1.96zM46.16 15.633h-2.052l.89-.89a.732.732 0 10-1.036-1.036l-1.926 1.926h-4.534l3.206-3.206h2.724a.732.732 0 100-1.465h-1.26l1.452-1.451a.732.732 0 10-1.036-1.036l-1.451 1.451V8.667a.732.732 0 10-1.465 0v2.724l-3.133 3.133v-4.389l1.926-1.925a.732.732 0 10-1.036-1.036l-.89.89V6.01a.732.732 0 00-1.465 0v2.053l-.89-.89a.733.733 0 00-1.036 1.036l1.926 1.926v4.431l-2.998-2.998V8.845a.732.732 0 00-1.465 0v1.26l-1.557-1.558a.732.732 0 10-1.035 1.036l1.557 1.557h-1.26a.732.732 0 100 1.465h2.724l3.028 3.028h-4.24l-1.926-1.926a.732.732 0 00-1.036 1.036l.89.89h-2.201a.732.732 0 100 1.465h2.202l-.89.89a.732.732 0 101.035 1.036l1.926-1.926h4.137l-2.925 2.925h-2.724a.732.732 0 100 1.465h1.26l-1.558 1.557a.732.732 0 101.036 1.036l1.557-1.557v1.258a.732.732 0 001.465 0V21.06l2.998-2.998v4.282l-1.926 1.926a.732.732 0 101.036 1.036l.89-.89v2.202a.732.732 0 101.465 0v-2.202l.89.89a.73.73 0 001.036 0 .732.732 0 000-1.036l-1.926-1.926v-4.24l3.133 3.134v2.724a.732.732 0 101.465 0V22.7l1.451 1.452a.73.73 0 001.036 0 .732.732 0 000-1.036l-1.451-1.451h1.259a.732.732 0 100-1.465h-2.724l-3.104-3.103h4.432l1.926 1.926a.73.73 0 001.036 0 .732.732 0 000-1.036l-.89-.89h2.052a.732.732 0 100-1.465z" fill="#000"/></svg>