<svg width="50" height="50" fill="none" xmlns="http://www.w3.org/2000/svg"><g clip-path="url(#clip0)"><path d="M38.203 9.616a.632.632 0 01.105.347v20.772c0 .243-.14.465-.359.571l-17.486 8.442a1.268 1.268 0 01-.551.126V18.446l18.29-8.83z" fill="#D9D9D9"/><path d="M32.004 12.598L13.65 3.73 8.81 6.076l18.397 8.88 4.797-2.358z" fill="#E30613"/><path d="M27.207 14.957v6.88c0 .233.244.387.455.285l3.983-1.923a.634.634 0 00.359-.571v-7.03l-4.797 2.359z" fill="#E30613"/><path d="M37.525 49.268c6.053 0 10.96-4.907 10.96-10.96 0-6.053-4.907-10.96-10.96-10.96-6.053 0-10.96 4.907-10.96 10.96 0 6.053 4.907 10.96 10.96 10.96z" fill="#EDEBED"/><path d="M37.525 46.919a8.611 8.611 0 100-17.223 8.611 8.611 0 000 17.223z" fill="#fff"/><path d="M37.525 42.222a3.914 3.914 0 100-7.828 3.914 3.914 0 000 7.828z" fill="#EDEBED"/><path d="M37.525 39.873a1.565 1.565 0 100-3.13 1.565 1.565 0 000 3.13z" fill="#AEA8AF"/><path d="M23.633 15.885l-3.721 1.796L3.2 9.613l5.576-2.692 17.698 8.544v7.042a.733.733 0 001.051.66l4.44-2.145a.732.732 0 00.415-.66V13.29l5.196-2.509v13.437a.732.732 0 101.465 0V9.613a.732.732 0 00-.414-.66L20.23.074a.732.732 0 00-.637 0L1.197 8.953a.732.732 0 00-.414.66v21.569c0 .28.16.537.414.66l18.396 8.88a.73.73 0 00.637 0l3.723-1.797a.733.733 0 00-.636-1.32l-2.673 1.29v-19.94l3.626-1.751a.733.733 0 00-.637-1.32zM13.65 4.593l16.687 8.056-3.164 1.527-16.68-8.053 3.157-1.53zm17.265 15.31l-2.976 1.437v-5.908l2.976-1.436v5.907zM19.912 1.546l16.711 8.067-4.607 2.225c-.016-.01-.033-.021-.05-.03l-16.657-8.04 4.603-2.222zM2.248 10.78l16.931 8.174v19.942L2.248 30.722V10.78z" fill="#787879"/><path d="M7.701 28.314l-2.7-1.303a.732.732 0 10-.636 1.319l2.7 1.303a.729.729 0 00.977-.34.732.732 0 00-.34-.979zm2.485-2.106l-5.18-2.501a.732.732 0 10-.637 1.319l5.18 2.5a.729.729 0 00.978-.34.732.732 0 00-.34-.978zm27.339.408c-6.447 0-11.692 5.245-11.692 11.692S31.078 50 37.525 50s11.692-5.245 11.692-11.692-5.245-11.692-11.692-11.692zm0 21.92c-5.639 0-10.227-4.589-10.227-10.228 0-5.64 4.588-10.227 10.227-10.227 5.64 0 10.227 4.588 10.227 10.227 0 5.64-4.587 10.227-10.227 10.227z" fill="#787879"/><path d="M45.353 37.576h-5.65a2.308 2.308 0 00-1.445-1.446v-5.65a.732.732 0 10-1.465 0v5.65a2.302 2.302 0 00-1.566 2.178 2.3 2.3 0 002.298 2.298 2.302 2.302 0 002.178-1.566h5.65a.732.732 0 100-1.464zm-7.828 1.565a.834.834 0 010-1.666.834.834 0 010 1.666z" fill="#1D327B"/></g><defs><clipPath id="clip0"><path fill="#fff" d="M0 0h50v50H0z"/></clipPath></defs></svg>