<svg width="50" height="46" fill="none" xmlns="http://www.w3.org/2000/svg"><path d="M.733 7.894h1.953v36.4H.733v-36.4z" fill="#D9D9D9"/><path d="M22.7 17.94l-3.767-1.728-3.767 1.728V7.894H22.7V17.94z" fill="#ED1C24"/><path d="M12.194 34.753L8.322 30.88 4.45 34.753h2.355v6.576h3.033v-6.576h2.356z" fill="#F1F6F7"/><path d="M40.167 22.746c-3.755-1.682-6.044-4.907-6.044-8.625V6.989l6.044-2.055 6.044 2.055v7.132c0 3.717-2.289 6.943-6.044 8.625zM25 38.167h9.1v2.72H25v-2.72z" fill="#D9D9D9"/><path d="M13.57 45.027H.731A.732.732 0 010 44.295v-28.77a.732.732 0 111.465 0v28.038h12.104a.732.732 0 110 1.464z" fill="#787879"/><path d="M8.84 30.362c-.346-.286-.69-.286-1.036 0l-3.872 3.873c-.384.647-.212 1.064.518 1.25h1.623v5.843c0 .405.328.733.732.733H9.84a.732.732 0 00.732-.733v-5.843h1.623c.73-.186.902-.603.518-1.25L8.84 30.362zm.999 3.658a.732.732 0 00-.733.733v5.843H7.538v-5.843a.732.732 0 00-.733-.733h-.587l2.104-2.104 2.104 2.104h-.587z" fill="#787879"/><path d="M49.503 4.106l-9.1-3.094a.733.733 0 00-.472 0l-2.619.89a.732.732 0 10.472 1.387l2.383-.81 8.368 2.845v8.796c0 4.903-3.276 9.249-8.368 11.135-5.092-1.886-8.368-6.232-8.368-11.135V5.324l2.963-1.007a.732.732 0 10-.471-1.387l-3.46 1.176a.732.732 0 00-.497.694v2.36H.732A.732.732 0 000 7.894v4.438a.732.732 0 101.465 0V8.626h12.968v9.314c.104.6.45.822 1.038.666l3.462-1.589 3.462 1.589c.443.203 1.038-.124 1.038-.666V8.626h6.901v5.494c0 4.406 2.424 8.46 6.067 10.865v18.578h-19.64a.732.732 0 100 1.464h20.373a.732.732 0 00.732-.732V25.842c.656.336 1.343.631 2.058.882a.733.733 0 00.486 0C45.812 24.828 50 20.013 50 14.12V4.8c0-.314-.2-.593-.497-.694zM21.968 16.798l-2.73-1.252a.732.732 0 00-.61 0l-2.73 1.252V8.626h6.07v8.172z" fill="#787879"/><path d="M33.391 6.989v7.132c0 4.003 2.421 7.477 6.477 9.294.2.085.399.085.599 0 4.055-1.817 6.476-5.291 6.476-9.294V6.989c0-.314-.2-.593-.496-.694L40.403 4.24a.732.732 0 00-.472 0l-6.043 2.055a.732.732 0 00-.497.694zm1.465.524l5.311-1.806 5.311 1.806v6.607c0 3.311-1.978 6.213-5.31 7.819-3.334-1.606-5.312-4.508-5.312-7.819V7.513z" fill="#1D327B"/><path d="M24.268 40.887c0 .405.327.733.732.733h9.1a.732.732 0 00.733-.733v-2.72a.732.732 0 00-.733-.732H25a.732.732 0 00-.732.732v2.72zm1.464-1.987h7.636v1.255h-7.636V38.9zm8.368-3.034a.732.732 0 00.001-1.465l-9.1-.009H25a.732.732 0 000 1.465l9.1.01z" fill="#787879"/><path d="M38.822 15.318a.732.732 0 001.038-.002l2.938-2.966c.3-.304.334-.678-.005-1.036-.234-.247-.67-.31-1.036.005l-2.42 2.443-.763-.761c-.944-.727-1.725.318-1.035 1.036l1.283 1.281z" fill="#1D327B"/></svg>