<svg width="50" height="42" fill="none" xmlns="http://www.w3.org/2000/svg"><path d="M48.78 1.209H13.642a.488.488 0 00-.489.488v16.166c5.903.478 10.545 5.42 10.545 11.445 0 3.118-1.243 5.945-3.26 8.014h28.34c.27 0 .489-.219.489-.488V1.697a.488.488 0 00-.489-.488z" fill="#D9D9D9"/><path d="M18.262 19.545V1.697c0-.27.218-.488.488-.488h-5.107a.488.488 0 00-.489.488v16.166c1.864.151 3.602.747 5.108 1.682z" fill="#9E9E9E"/><path d="M27.95 1.209v8.156c0 .162.13.293.292.293h5.938a.293.293 0 00.293-.293V1.209h-6.524z" fill="#E30613"/><path d="M31.055 9.365V1.209h-3.106v8.156c0 .162.131.293.293.293h3.106a.293.293 0 01-.293-.293z" fill="#E30613"/><path d="M12.216 40.791c6.342 0 11.483-5.14 11.483-11.483 0-6.342-5.142-11.483-11.484-11.483-6.341 0-11.483 5.141-11.483 11.483 0 6.342 5.142 11.483 11.484 11.483z" fill="#D9D9D9"/><path d="M7.093 36.213a8.594 8.594 0 01-3.479-6.905 8.594 8.594 0 013.48-6.905 11.481 11.481 0 017.148-4.4 11.555 11.555 0 00-2.027-.178c-6.34 0-11.483 5.141-11.483 11.483 0 6.342 5.142 11.483 11.484 11.483.69 0 1.368-.06 2.026-.178a11.48 11.48 0 01-7.149-4.4z" fill="#D9D9D9"/><path d="M18.292 35.387A8.6 8.6 0 106.129 23.225a8.6 8.6 0 0012.163 12.162z" fill="#fff"/><path d="M7.715 29.308c0-4.036 2.795-7.431 6.55-8.353a8.594 8.594 0 00-2.05-.248c-4.742 0-8.6 3.858-8.6 8.601s3.858 8.601 8.6 8.601a8.6 8.6 0 002.05-.247c-3.755-.922-6.55-4.318-6.55-8.354z" fill="#F2FBFF"/><path d="M45.215 27.348h-9.57a.293.293 0 01-.293-.293v-12.5c0-.162.13-.293.293-.293h9.57c.162 0 .293.13.293.293v12.5a.293.293 0 01-.293.293z" fill="#fff"/><path d="M38.281 27.055v-12.5c0-.162.131-.293.293-.293h-2.93a.293.293 0 00-.292.293v12.5c0 .162.13.293.293.293h2.93a.293.293 0 01-.294-.293z" fill="#F2FBFF"/><path d="M48.78.476H13.642c-.674 0-1.221.548-1.221 1.221v3.399H.732a.732.732 0 000 1.465h11.69v2.37h-8.74a.732.732 0 000 1.465h8.74v2.371H6.633a.732.732 0 100 1.465h5.789v2.863l-.207-.002C5.48 17.093 0 22.573 0 29.308c0 6.736 5.48 12.216 12.216 12.216a12.17 12.17 0 008.518-3.47h22.04a.733.733 0 000-1.464H22.017a12.151 12.151 0 002.413-7.282c0-6.169-4.597-11.283-10.544-12.1v-2.976h7.5a.732.732 0 100-1.465h-7.5v-2.37h5.547a.732.732 0 000-1.466h-5.547v-2.37h3.515a.733.733 0 000-1.465h-3.515V1.94h13.33v7.424c0 .565.46 1.025 1.025 1.025h5.938c.565 0 1.025-.46 1.025-1.025V7.133a.732.732 0 00-1.465 0v1.792h-5.058V1.941h5.058v1.774a.733.733 0 001.465 0V1.94h13.33v34.65H46.19a.732.732 0 000 1.464h2.588c.673 0 1.221-.547 1.221-1.22V1.697c0-.673-.548-1.22-1.22-1.22zM22.965 29.308c0 5.928-4.823 10.75-10.75 10.75-5.928 0-10.751-4.822-10.751-10.75s4.823-10.75 10.75-10.75c5.928 0 10.751 4.822 10.751 10.75z" fill="#787879"/><path d="M35.414 29.643a.732.732 0 100 1.464h10.094a.732.732 0 100-1.464H35.414zm-.062 4.406h10.094a.732.732 0 100-1.465H35.352a.733.733 0 000 1.465zm-32.47-4.741c0 5.147 4.187 9.334 9.334 9.334a9.247 9.247 0 005.592-1.865 9.427 9.427 0 003.328-4.721.732.732 0 00-1.4-.432 7.951 7.951 0 01-2.808 3.981 7.793 7.793 0 01-4.712 1.572c-4.34 0-7.87-3.53-7.87-7.869s3.53-7.869 7.87-7.869c1.956 0 3.833.726 5.284 2.045a7.853 7.853 0 012.543 5.013.732.732 0 001.457-.15 9.316 9.316 0 00-3.015-5.948 9.308 9.308 0 00-6.27-2.425c-5.146 0-9.333 4.188-9.333 9.334z" fill="#787879"/><path d="M12.216 22.159a.732.732 0 00-.733.732v6.417a.733.733 0 001.127.617l4.08-2.608a.733.733 0 00-.79-1.234l-2.952 1.888v-5.08a.733.733 0 00-.732-.732z" fill="#1D327B"/><path d="M46.24 14.555c0-.566-.46-1.026-1.025-1.026h-9.57c-.566 0-1.026.46-1.026 1.026v12.5c0 .565.46 1.025 1.026 1.025h9.57c.565 0 1.025-.46 1.025-1.025v-12.5zm-1.465 12.06h-8.691v-11.62h8.691v11.62z" fill="#787879"/><path d="M37.802 19.738a.732.732 0 001.033-.077l.862-1v3.493a.732.732 0 001.465 0v-3.492l.863 1a.73.73 0 001.033.076.733.733 0 00.076-1.034l-2.15-2.491a.732.732 0 00-1.109 0l-2.15 2.491a.733.733 0 00.077 1.034zm.297 5.912h4.662a.732.732 0 000-1.464h-4.662a.732.732 0 100 1.465z" fill="#787879"/></svg>