<svg width="100" height="100" fill="none" xmlns="http://www.w3.org/2000/svg"><path d="M17.207 68.492h65.588c8.694 0 15.741-7.047 15.741-15.74 0-8.695-7.047-15.742-15.74-15.742h-65.59v31.482z" fill="#E30613"/><path d="M32.685 85.825l-.068 8.594h65.918V52.427h-.008c-.173-8.543-7.148-15.417-15.733-15.417H17.206c-.268 0-.535.007-.8.02l16.54 15.721-.216 27.41" fill="#D9D9D9"/><path d="M98.525 52.427c-.173-8.543-7.147-15.417-15.732-15.417h-4.492c8.584 0 15.56 6.874 15.732 15.417h.009v41.992h4.492V52.427h-.009z" fill="#D9D9D9"/><path d="M32.947 52.751c0 8.694-7.048 15.741-15.741 15.741-8.694 0-15.741-7.047-15.741-15.74 0-8.695 7.047-15.742 15.74-15.742 8.695 0 15.742 7.047 15.742 15.741z" fill="#E30613"/><path d="M22.455 52.751a5.248 5.248 0 11-10.495 0 5.248 5.248 0 0110.495 0z" fill="#9E9E9E"/><path d="M17.207 37.048h65.588c8.694 0 15.741-7.047 15.741-15.74 0-8.694-7.047-15.742-15.74-15.742h-65.59v31.482z" fill="#D9D9D9"/><path d="M82.793 5.566h-4.492c8.693 0 15.74 7.048 15.74 15.741 0 8.694-7.046 15.741-15.74 15.741h4.492c8.693 0 15.74-7.047 15.74-15.74 0-8.694-7.046-15.742-15.74-15.742z" fill="#D9D9D9"/><path d="M32.947 21.307c0 8.694-7.048 15.742-15.741 15.742-8.694 0-15.741-7.048-15.741-15.742 0-8.693 7.047-15.74 15.74-15.74 8.695 0 15.742 7.047 15.742 15.74z" fill="#E30613"/><path d="M22.455 21.307a5.248 5.248 0 11-10.495 0 5.248 5.248 0 0110.495 0z" fill="#9E9E9E"/><path d="M94.841 40.47a17.169 17.169 0 00-5.055-3.443C95.799 34.342 100 28.307 100 21.307c0-9.487-7.719-17.205-17.206-17.205H17.206C7.719 4.102 0 11.82 0 21.307 0 28.31 4.203 34.345 10.219 37.03 4.203 39.713 0 45.75 0 52.751c0 9.488 7.719 17.206 17.206 17.206h14.14l-.08 10.193a1.466 1.466 0 001.453 1.476h.011c.804 0 1.459-.648 1.465-1.453l.217-27.41v-.011c0-5.914-2.999-11.14-7.555-14.238h55.937c.254 0 .507-.007.758-.018a14.173 14.173 0 019.237 4.065 14.197 14.197 0 014.274 9.896c0 .042.004.084.008.126v40.372H34.094l.056-7.118a1.464 1.464 0 00-1.453-1.477h-.012c-.803 0-1.458.648-1.464 1.453l-.069 8.595a1.465 1.465 0 001.465 1.477h65.918c.81 0 1.465-.656 1.465-1.465V52.428a1.44 1.44 0 00-.012-.192A17.107 17.107 0 0094.84 40.47zM82.794 7.03c7.872 0 14.276 6.404 14.276 14.276 0 7.618-5.998 13.862-13.52 14.256a17.73 17.73 0 00-.756-.018c-.114 0-.223.014-.33.038H26.8c4.588-3.093 7.612-8.338 7.612-14.276 0-5.938-3.024-11.183-7.612-14.276h55.994zM2.93 21.307c0-7.872 6.404-14.276 14.276-14.276s14.276 6.404 14.276 14.276c0 7.617-5.994 13.858-13.513 14.256-.254-.01-.508-.018-.763-.018-.256 0-.51.007-.762.018-7.52-.398-13.514-6.64-13.514-14.256zm28.439 45.72h-4.57a17.348 17.348 0 004.607-4.57l-.037 4.57zm.113-14.276c0 7.872-6.404 14.276-14.276 14.276S2.93 60.623 2.93 52.751c0-7.616 5.995-13.858 13.514-14.255.252.011.506.018.762.018h.995c7.409.513 13.28 6.7 13.28 14.237z" fill="#18191B"/><path d="M17.208 46.04a6.719 6.719 0 00-6.712 6.711 6.72 6.72 0 006.712 6.713 6.72 6.72 0 006.712-6.713 6.72 6.72 0 00-6.712-6.711zm0 10.493a3.787 3.787 0 01-3.782-3.782 3.787 3.787 0 013.782-3.782 3.787 3.787 0 013.782 3.782 3.787 3.787 0 01-3.782 3.782zm6.712-35.226a6.72 6.72 0 00-6.712-6.711 6.719 6.719 0 00-6.712 6.711 6.72 6.72 0 006.712 6.713 6.72 6.72 0 006.712-6.713zm-10.494 0a3.786 3.786 0 013.782-3.782 3.787 3.787 0 013.782 3.782 3.787 3.787 0 01-3.782 3.783 3.787 3.787 0 01-3.782-3.783z" fill="#18191B"/></svg>