<svg width="100" height="100" fill="none" xmlns="http://www.w3.org/2000/svg"><g clip-path="url(#clip0)"><path d="M94.554 6.949H8.937V92.49h85.617V6.949z" fill="#7F3F26"/><path d="M12.734 20.963v66.31h12.402v-53.91l-12.402-12.4zM49.94 41.97V12.863h-12.4v16.704l12.4 12.401zm-12.4 3.796v41.506h12.4V58.167l-12.4-12.401zm37.201 21.006V12.864H62.34V54.37l12.401 12.4zM62.34 70.568v16.704h12.4V82.97l-12.4-12.402z" fill="#E30613"/><path d="M74.746 12.864v53.908l12.401 12.401v-66.31h-12.4zm0 74.408h4.303l-4.303-4.303v4.303zM25.14 33.364v53.908h12.402V45.765l-12.401-12.4zm12.402-3.796V12.864H25.141v4.303l12.401 12.401zM62.343 54.37V12.865H49.94V41.97l12.402 12.402zm-12.402 3.797v29.105h12.402V70.568L49.94 58.167z" fill="#D9D9D9"/><path d="M87.143 12.864h-12.4v6.828h12.4v-6.828z" fill="#9E9E9E"/><path d="M74.744 12.864h-12.4v6.828h12.4v-6.828z" fill="#E30613"/><path d="M62.342 12.864h-12.4v6.828h12.4v-6.828z" fill="#9E9E9E"/><path d="M49.94 12.864h-12.4v6.828h12.4v-6.828z" fill="#E30613"/><path d="M25.14 17.167l2.525 2.525h9.877v-6.828H25.141v4.303z" fill="#9E9E9E"/><path d="M25.14 12.864h-4.304l4.303 4.303v-4.303z" fill="#562417"/><path d="M12.734 5.663v81.61h6.774V13.294l-6.774-7.632z" fill="#E30613"/><path d="M87.142 87.272v-8.099l-66.31-66.31h-8.098v8.1l66.31 66.31h8.098z" fill="#D9D9D9"/><path d="M85.798 85.982L14.12 14.304v-1.44h-1.386v8.099l66.31 66.31h8.098v-1.291h-1.344z" fill="#9E9E9E"/><path d="M90.217 1.41H9.66c-4.62 0-8.378 3.76-8.378 8.38v80.557c0 4.62 3.758 8.378 8.378 8.378h80.558c4.62 0 8.378-3.758 8.378-8.378V9.79c0-4.62-3.758-8.378-8.378-8.378zM15.088 12.865h69.7c1.3 0 2.354 1.054 2.354 2.354v69.7c0 1.3-1.054 2.354-2.354 2.354h-69.7a2.354 2.354 0 01-2.354-2.354v-69.7c0-1.3 1.054-2.354 2.354-2.354z" fill="#D9D9D9"/><path d="M7.482 90.347V9.79c0-4.62 3.758-8.378 8.378-8.378h-6.2c-4.62 0-8.379 3.758-8.379 8.378v80.558c0 4.62 3.758 8.378 8.378 8.378h6.2c-4.619 0-8.377-3.758-8.377-8.378z" fill="#9E9E9E"/><path d="M98.532 26.89c.81 0 1.467-.657 1.467-1.467V9.824C100 4.407 95.592 0 90.176 0H9.824C4.407 0 0 4.407 0 9.824v80.352C0 95.593 4.407 100 9.824 100h80.352c5.416 0 9.823-4.407 9.823-9.824V31.03a1.467 1.467 0 10-2.934 0v59.145c0 3.799-3.09 6.89-6.89 6.89H9.825a6.897 6.897 0 01-6.89-6.89V9.824a6.898 6.898 0 016.89-6.89h80.351a6.898 6.898 0 016.89 6.89v15.599c0 .81.657 1.467 1.467 1.467z" fill="#000"/><path d="M12.893 11.424c-.81 0-1.467.657-1.467 1.467V87.11c0 .81.657 1.467 1.467 1.467H87.11c.81 0 1.468-.657 1.468-1.467V12.89c0-.81-.657-1.467-1.468-1.467H12.893zm72.75 64.064l-9.435-9.435V14.359h9.435v61.129zm-12.37-12.37l-9.434-9.434V14.359h9.434v48.76zm-12.37-12.37l-9.434-9.434V14.359h9.435v36.39zM48.535 38.38L39.1 28.945V14.359h9.435v24.02zm-12.37-12.37l-9.434-9.434V14.36h9.435v11.65zm-21.803-1.497l9.434 9.435V85.64H14.36V24.512zm12.369 12.37l9.435 9.434v39.325H26.73v-48.76zm12.37 12.37l9.434 9.434v26.955H39.1v-36.39zM51.47 61.62l9.434 9.434V85.64h-9.435V61.62zm12.368 12.37l9.435 9.434v2.216h-9.435V73.99zM79.64 85.64L14.36 20.36v-6h6.003l40.97 40.97 24.31 24.31v6.002H79.64z" fill="#000"/></g><defs><clipPath id="clip0"><path fill="#fff" d="M0 0h100v100H0z"/></clipPath></defs></svg>