<svg width="100" height="100" fill="none" xmlns="http://www.w3.org/2000/svg"><g clip-path="url(#clip0)"><path d="M98.487 70.626H1.727v6.912h96.76v-6.912z" fill="#9E9E9E"/><path d="M98.487 91.36H1.727v6.912h96.76v-6.911z" fill="#D9D9D9"/><path d="M58.751 77.538H41.473V91.36H58.75V77.538zm32.829 0H77.759V91.36H91.58V77.538zm-69.117 0H8.642V91.36h13.822V77.538z" fill="#9E9E9E"/><path d="M22.463 77.538H8.642v5.183h13.822v-5.183zm69.117 0H77.759v5.183H91.58v-5.183zm-32.829 0H41.473v5.183H58.75v-5.183z" fill="#9E9E9E"/><path d="M93 9H7v60h86V9z" fill="#D9D9D9"/><path d="M98.488 79.266c.895 0 1.512-.834 1.512-1.728v-6.912c0-.895-.617-1.512-1.512-1.512h-1.944v.398c0-.895-.617-1.512-1.512-1.512V32.335a1.62 1.62 0 10-3.24 0V68H8.424V8.74h83.37v16.683a1.62 1.62 0 103.24 0V7.012c0-.895-.618-1.512-1.513-1.512H6.912c-.895 0-1.728.617-1.728 1.512V68c-.895 0-1.728.617-1.728 1.512v-.397H1.728c-.895 0-1.728.617-1.728 1.511v6.912c0 .895.833 1.728 1.728 1.728h5.184v10.583H1.728C.833 89.85 0 90.466 0 91.361v6.912C0 99.167.833 100 1.728 100h96.76c.895 0 1.512-.833 1.512-1.728V91.36c0-.894-.617-1.511-1.512-1.511h-5.4V79.266h5.4zm-5.183-8.026v-2.126h-14.04v2.126h14.04zm-20.95-2.126v2.126h3.671v-2.126h-3.672zm-3.24 2.126v-2.126h-14.04v2.126h14.04zm-20.95-2.126v2.126h3.67v-2.126h-3.67zm-3.24 2.126v-2.126h-14.04v2.126h14.04zm-20.951-2.126v2.126h3.672v-2.126h-3.672zM6.696 71.24h14.038v-2.126H6.696v2.126zM3.24 72.354h93.52v3.672H3.24v-3.672zM60.26 89.85V79.266h15.766v10.583H60.259zM42.98 79.266h14.04v10.583H42.98V79.266zm-32.829 0h10.583v10.583H10.151V79.266zm86.61 17.494H3.24v-3.67h24.406a1.62 1.62 0 100-3.24h-3.672V79.266h15.767v10.583h-5.184a1.62 1.62 0 100 3.24H96.76v3.671zm-6.912-6.911H79.266V79.266h10.583v10.583z" fill="#000"/><path d="M57.12 39.74h20.734a1.62 1.62 0 100-3.24H57.12a1.62 1.62 0 100 3.24zM22.621 61.5h20.735a1.62 1.62 0 100-3.24H22.62a1.62 1.62 0 100 3.24zm31.501 0h20.735a1.62 1.62 0 100-3.24H54.122a1.62 1.62 0 100 3.24zM17.266 19.12H38a1.62 1.62 0 100-3.24H17.266a1.62 1.62 0 100 3.24zm41.501 0H79.5a1.62 1.62 0 100-3.24H58.767a1.62 1.62 0 100 3.24zM40.121 39.74h11.38a1.62 1.62 0 100-3.24h-11.38a1.62 1.62 0 100 3.24zm-25.001 0h18.76a1.62 1.62 0 100-3.24H15.12a1.62 1.62 0 100 3.24zm30.5-20.62h6.88a1.62 1.62 0 100-3.24h-6.88a1.62 1.62 0 100 3.24z" fill="#000"/><path d="M9 6H4v63h5V6z" fill="#1D327B"/><path d="M91 50v-3H8v3h83zm0-21v-3H8v3h83z" fill="#000"/><path d="M96 6h-5v63h5V6z" fill="#1D327B"/></g><defs><clipPath id="clip0"><path fill="#fff" d="M0 0h100v100H0z"/></clipPath></defs></svg>