<svg width="100" height="100" fill="none" xmlns="http://www.w3.org/2000/svg"><path d="M100 54.203V48.05a3.538 3.538 0 00-3.534-3.534h-1.207c.036-.148.074-.296.106-.444.546-2.56.667-2.174-.036-4.68-.767-2.73-1.712 4.933-1.052 2.206.094-.391.17-.791.227-1.19 1.078-3.055-3.2 1.26-9.14-.436a12.48 12.48 0 00-.994-.239c.13.795-1.228 2.08-2.45.148a1.465 1.465 0 00-2.476 1.565c.884 1.398 2.08-.517 2.187 1.12-35.412 1.423-6.156-.697-4.868-1.754 1.545-1.268 2.743 1.518 4.688 1.38l.472-1.701a1.465 1.465 0 102.91.341l-.46 1.602c.13.032.261.062.391.099 4.54 1.297 7.712-4.151 6.84-2.538a9.827 9.827 0 01-.175.914c-.777 3.214.177-3.936 1.08-.725.583 2.08.445 1.149-.01 3.276-.075.355-.168.708-.273 1.055-5.266 0-16.509 2.824-17.036-2.633a4.273 4.273 0 01-.02-.41c1.918-11.858-2.232-15.17-4.97-2.34-.029.133-.055.265-.078.395-.34 1.884-1.26.658-2.333 2.413a16.323 16.323 0 00-2.237-1.37c-.408-.996-2.185 5.153-4.483 1.974-3.211 3.34-6.624.678-10.555-.86-5.121-2.006-10.892-1.992-16.248.038-3.456 1.31-5.959-.093-8.843-.45-.043-.584.004 1.846-.329 1.159-1.129-2.334-2.996-2.256-4-2.215a6.954 6.954 0 01-.453.01c-.076-.236-1.047-.2-1.106-.496-.111 1.476-.768-1.828-4.568-1.828s-4.456 3.304-4.977 1.828c-.058.296.748.26.671.496a6.951 6.951 0 01-.453-.01c-1-.04-2.87-.118-4 2.215-1.16 2.398.481-2.678 1.115-1.514.187.343.365.672.444.93-.085.04-.18.082-.262.119-1.062.472-3.471-5.085-3.471-1.76 0 1.52.42 3.67 2.973-.346-1.206 2.227-.698 4.368-.583.444l1.381 4.211h-4.27A3.539 3.539 0 000 48.05v6.153a3.537 3.537 0 003.23 3.52v5.72A3.537 3.537 0 000 66.962v6.153a3.537 3.537 0 003.23 3.519v5.72A3.537 3.537 0 000 85.873v6.153a3.538 3.538 0 003.534 3.535h61.707a1.465 1.465 0 100-2.93H3.534a.605.605 0 01-.604-.605v-6.153c0-.334.271-.605.604-.605h92.932c.333 0 .605.271.605.605v6.153a.605.605 0 01-.605.605H71.1a1.465 1.465 0 100 2.93h25.365A3.538 3.538 0 00100 92.026v-6.153a3.537 3.537 0 00-3.23-3.52v-5.72a3.537 3.537 0 003.23-3.518v-6.153a3.537 3.537 0 00-3.23-3.52v-5.72a3.537 3.537 0 003.23-3.519zm-28.11-9.688H45.92a13.4 13.4 0 01-.35-3.043c.205.416 1.2 1.251 2.654-.935 1.278.56 2.957-2.258 5.5-2.258 1.37 0 3.154 3.212 4.895 2.803 1.347-.315 2.398 1.438 2.131.08-.259-1.322-1.925 1.621-2.32.59 7.257.113 13.811-7.563 13.811-.28a13.4 13.4 0 01-.35 3.044zm-14.088-3.142c-1.982.423-6.16.975-9.169-.968-3.009-1.943-5.34 1.195-5.77-.787 1.982-.423 6.16-.975 9.169.968 3.009 1.944 5.34-1.194 5.77.787zm1.577-.628c1.71 2.366 2.501-1.304 3.168 1.667a16.231 16.231 0 00-4.121-.53c-.405 0-.812.019-1.215.049-.33-.528-.666-.998-.998-1.41.45-3.73-.123 3.243-.757.673 1.122.977 2.347 1.833 3.923-.449zm-9.25.152c2.3.9 3.456 1.57 3.37-2.849-1.047 5.519-4.918 3.755-11.429 2.17-1.347.316-2.421-1.746-2.155-.389 1.012 5.167 4.433.812 6.036 2.208-1.75 2.655-3.106-.707-3.31-.565 0 1.026.097 2.044.286 3.044H30.603c.24-4.493 1.418 3.272 3.44-1.893 4.363-6.053 11.52.269 16.087-1.726zm-14.14.05c1.897 2.537 4.317-.974 6.901-.897-1.183.782-1.503 1.358-2.716 2.624-3.656 3.816-6.793-3.842-9.495-.526-2.156 5.507-2.77-2.47-3.01 2.367h-2.478l1.626-4.672c.874 4.032-.414 2.028-1.528-.036 1.161 4.041 2.482 1.91 2.482.398.433 3.863-.752 2.756-1.78 2.167 2.085-.258 5.826.156 9.997-1.425zM8.263 38.205c.714-.317 2.476 5.528 2.476 3.879 0-1.016-1.337-1.388-1.732-2.115-.384 1.982-.85 1.673-.367.675.292-.603.419-.598 1.242-.564.714.03 1.998 3.139 2.859 2.278.64-.64-.069-1.096.122-2.057.601 1.07.882.531 2.103.531 1.222 0 1.502.54 1.694-.53.191.96 1.26 1.416 1.9 2.056.86.86 1.736-2.249 2.45-2.278.823-.034.95-.04 1.242.564.483.998.426 1.307-.367-.675-.396.727.045 1.099.045 2.115 0 .943.231-1.525.737-1.126.054.047.111.092.174.132.017.011.036.02.053.03.312.206.402-3.024.647-2.915.865.386 1.3.579 1.3 2 0 .368-.384-1.634-1.878.784-1.96-1.872-4.38.129-7.102.129-.163 0-.323.003-.483.01-2.539.115-5.125-1.888-6.927-.11-1.507-2.432-1.488-.438-1.488-.813 0-1.42.434-1.614 1.3-2zm1.394 3.179h3.3a1.465 1.465 0 100-2.93H9.122c.333 4.607-.277.543 1.136 1.762 1.539 1.33 2.9.872 5.049.775.116-.005.233-.008.35-.008 2.136 0 3.938 4.082 6.066-1.18 1.53 1.669 3.075 3.61 2.213-.49l-1.723 5.203H10.804l-1.146-3.132zM2.93 54.204V48.05c0-.333.271-.605.604-.605h92.932c.333 0 .605.272.605.605v6.153a.605.605 0 01-.605.605H3.534a.605.605 0 01-.604-.605zm90.91 22.445v5.69H6.16v-5.69h87.68zm3.23-9.687v6.153a.605.605 0 01-.604.604H3.534a.605.605 0 01-.604-.604v-6.153c0-.334.271-.605.604-.605h17.734a1.465 1.465 0 100-2.93H6.16v-5.69h87.68v5.69H27.127a1.465 1.465 0 100 2.93h69.339c.333 0 .604.271.604.605z" fill="#000"/><path d="M0 67.138v6.154a3.538 3.538 0 003.534 3.534h1.207c-.036.148-.074.296-.106.444-.546 2.56-.667 2.174.036 4.68.767 2.729 1.712-4.933 1.052-2.206-.094.39-.17.791-.228 1.19-1.077 3.054 3.2-1.261 9.14.435.33.094.662.173.995.24-.13-.795 1.228-2.08 2.45-.148a1.465 1.465 0 002.476-1.565c-.884-1.398-2.08.517-2.188-1.12 35.413-1.423 6.158.696 4.87 1.754-1.546 1.268-2.744-1.519-4.69-1.38l-.47 1.701a1.465 1.465 0 10-2.91-.341l.46-1.602c-.132-.032-.262-.062-.392-.1-4.54-1.296-7.712 4.152-6.84 2.539.044-.307.102-.614.175-.914.777-3.214-.177 3.936-1.08.724-.583-2.079-.445-1.148.01-3.275.075-.355.169-.708.273-1.055 5.266 0 16.509-2.825 17.036 2.633.013.132.02.268.02.41-1.918 11.858 2.232 15.17 4.97 2.339.029-.132.055-.264.078-.394.34-1.885 1.26-.658 2.333-2.413.705.515 1.453.973 2.237 1.37.408.996 2.185-5.153 4.483-1.974 3.211-3.34 6.624-.678 10.555.86 5.121 2.005 10.892 1.992 16.248-.038 3.456-1.31 5.959.093 8.844.45.042.584-.005-1.846.328-1.159 1.129 2.333 2.996 2.256 4 2.214.137-.005.323-.013.453-.008.076.235 1.047.2 1.106.495.111-1.476.768 1.828 4.568 1.828s4.456-3.305 4.977-1.828c.058-.296-.748-.26-.672-.496.13-.004.317.003.454.009 1 .041 2.87.119 4-2.214 1.16-2.398-.481 2.678-1.115 1.513-.187-.343-.366-.671-.444-.929.085-.04.18-.083.262-.119 1.062-.473 3.471 5.085 3.471 1.76 0-1.52-.42-3.67-2.973.346 1.206-2.227.698-4.368.583-.444l-1.381-4.212h4.27A3.539 3.539 0 00100 73.292v-6.154a3.537 3.537 0 00-3.23-3.519V57.9a3.537 3.537 0 003.23-3.52v-6.153a3.537 3.537 0 00-3.23-3.519v-5.72a3.537 3.537 0 003.23-3.52v-6.152a3.538 3.538 0 00-3.534-3.535H34.759a1.465 1.465 0 100 2.93h61.707c.333 0 .604.271.604.605v6.153a.605.605 0 01-.604.605H3.534a.605.605 0 01-.605-.605v-6.153c0-.334.272-.605.605-.605H28.9a1.465 1.465 0 100-2.93H3.534A3.538 3.538 0 000 29.316v6.153a3.537 3.537 0 003.23 3.519v5.72A3.537 3.537 0 000 48.228v6.152a3.537 3.537 0 003.23 3.52v5.72A3.538 3.538 0 000 67.138zm28.11 9.688h25.97a13.4 13.4 0 01.35 3.044c-.205-.416-1.2-1.252-2.654.935-1.278-.56-2.957 2.258-5.5 2.258-1.37 0-3.154-3.212-4.895-2.804-1.347.316-2.398-1.437-2.131-.08.259 1.323 1.925-1.62 2.32-.59-7.257-.112-13.811 7.564-13.811.28a13.4 13.4 0 01.35-3.043zm14.088 3.143c1.982-.423 6.16-.975 9.169.968 3.009 1.943 5.34-1.195 5.77.786-1.982.424-6.16.975-9.169-.968-3.009-1.943-5.34 1.195-5.77-.786zm-1.577.628c-1.71-2.366-2.501 1.304-3.168-1.667 1.317.345 2.698.53 4.121.53.405 0 .812-.02 1.215-.05.33.53.666.999.998 1.411-.45 3.73.123-3.244.757-.674-1.122-.977-2.347-1.832-3.923.45zm9.25-.152c-2.3-.9-3.456-1.57-3.37 2.849 1.047-5.519 4.918-3.755 11.429-2.17 1.347-.316 2.421 1.746 2.155.389-1.012-5.167-4.433-.812-6.036-2.208 1.75-2.655 3.106.707 3.31.564a16.38 16.38 0 00-.286-3.043h12.324c-.24 4.493-1.418-3.272-3.44 1.893-4.362 6.053-11.52-.269-16.087 1.726zm14.14-.05c-1.897-2.537-4.317.974-6.901.897 1.183-.782 1.503-1.358 2.716-2.625 3.656-3.815 6.793 3.843 9.495.527 2.157-5.507 2.77 2.47 3.01-2.368h2.478L73.183 81.5c-.874-4.032.414-2.028 1.528.036-1.161-4.041-2.482-1.911-2.482-.398-.433-3.864.752-2.756 1.78-2.167-2.085.258-5.826-.156-9.997 1.425zm27.725 2.741c-.714.318-2.476-5.527-2.476-3.878 0 1.016 1.337 1.388 1.732 2.114.384-1.981.85-1.672.367-.674-.292.603-.419.598-1.242.564-.714-.03-1.998-3.139-2.859-2.278-.64.64.069 1.096-.122 2.056-.601-1.07-.882-.53-2.103-.53-1.222 0-1.502-.54-1.695.53-.19-.96-1.26-1.416-1.9-2.056-.86-.86-1.735 2.248-2.45 2.278-.822.034-.95.039-1.24-.564-.484-.998-.427-1.307.366.674.396-.726-.045-1.098-.045-2.114 0-.943-.231 1.524-.737 1.126a1.479 1.479 0 00-.174-.132c-.017-.011-.035-.02-.053-.03-.312-.206-.402 3.024-.647 2.914-.865-.385-1.3-.578-1.3-2 0-.367.384 1.635 1.878-.784 1.96 1.873 4.38-.128 7.102-.128.163 0 .323-.004.483-.01 2.539-.115 5.125 1.887 6.927.109 1.507 2.433 1.487.439 1.487.813.001 1.422-.433 1.615-1.3 2zm-1.394-3.178h-3.3a1.465 1.465 0 100 2.93h3.837c-.333-4.607.277-.543-1.136-1.763-1.539-1.328-2.9-.871-5.049-.774a7.683 7.683 0 01-.35.008c-2.136 0-3.938-4.082-6.066 1.179-1.53-1.668-3.076-3.608-2.213.49l1.724-5.202h11.407l1.146 3.132zm6.728-12.82v6.154a.605.605 0 01-.604.605H3.534a.605.605 0 01-.605-.605v-6.154c0-.333.272-.604.605-.604h92.932c.333 0 .604.271.604.604zM6.16 44.693v-5.69h87.68v5.69H6.16zM2.93 54.38v-6.153c0-.333.271-.604.604-.604h92.932c.333 0 .604.27.604.604v6.153a.605.605 0 01-.604.605H78.732a1.465 1.465 0 000 2.93H93.84v5.69H6.16v-5.69h66.713a1.465 1.465 0 100-2.93H3.534a.605.605 0 01-.604-.605z" fill="#000"/><path d="M96.466 56.273H3.534a2.07 2.07 0 01-2.07-2.07V48.05a2.07 2.07 0 012.07-2.07h92.932a2.07 2.07 0 012.07 2.07v6.153a2.07 2.07 0 01-2.07 2.07zm0 18.911H3.534a2.07 2.07 0 01-2.07-2.07v-6.153a2.07 2.07 0 012.07-2.07h92.932a2.07 2.07 0 012.07 2.07v6.154a2.07 2.07 0 01-2.07 2.07zm0 18.912H3.534a2.07 2.07 0 01-2.07-2.07v-6.153a2.07 2.07 0 012.07-2.07h92.932a2.07 2.07 0 012.07 2.07v6.153a2.07 2.07 0 01-2.07 2.07z" fill="#D9D9D9"/><path d="M94.14 45.98v10.293h2.843c.857 0 1.552-.927 1.552-2.07V48.05c0-1.143-.695-2.07-1.552-2.07h-2.842zm0 18.912v10.293h2.843c.857 0 1.552-.927 1.552-2.07v-6.153c0-1.143-.695-2.07-1.552-2.07h-2.842zm0 18.911v10.293h2.843c.857 0 1.552-.927 1.552-2.07v-6.153c0-1.143-.695-2.07-1.552-2.07h-2.842z" fill="#9E9E9E"/><path d="M9.09 52.591a1.465 1.465 0 100-2.93 1.465 1.465 0 000 2.93zm0 18.912a1.465 1.465 0 100-2.93 1.465 1.465 0 000 2.93zm0 18.911a1.465 1.465 0 100-2.93 1.465 1.465 0 000 2.93zm82.258-37.823a1.465 1.465 0 100-2.93 1.465 1.465 0 000 2.93zm0 18.912a1.465 1.465 0 100-2.93 1.465 1.465 0 000 2.93zm0 18.911a1.465 1.465 0 100-2.93 1.465 1.465 0 000 2.93z" fill="#E30613"/><path d="M96.466 37.44H3.534a2.07 2.07 0 01-2.07-2.069v-6.153a2.07 2.07 0 012.07-2.07h92.932a2.07 2.07 0 012.07 2.07v6.153a2.07 2.07 0 01-2.07 2.07z" fill="#D9D9D9"/><path d="M94.14 27.148v10.293h2.843c.857 0 1.552-.927 1.552-2.07v-6.153c0-1.143-.695-2.07-1.552-2.07h-2.842z" fill="#9E9E9E"/><path d="M9.09 33.76a1.465 1.465 0 100-2.93 1.465 1.465 0 000 2.93zm82.258 0a1.465 1.465 0 100-2.93 1.465 1.465 0 000 2.93z" fill="#E30613"/><path fill="#9E9E9E" d="M6.055 57.617h88.086v6.055H6.055zm0 18.946h88.086v6.055H6.055zm0-37.891h88.086v6.055H6.055z"/></svg>