<svg width="100" height="100" fill="none" xmlns="http://www.w3.org/2000/svg"><path d="M20.246 75.052c10.377 0 18.789-8.412 18.789-18.789s-8.412-18.789-18.79-18.789c-10.376 0-18.788 8.412-18.788 18.79 0 10.376 8.412 18.788 18.789 18.788zm9.394-48.537a4.698 4.698 0 10-.001-9.396 4.698 4.698 0 000 9.396zm25.054 67.328c6.919 0 12.527-5.608 12.527-12.527 0-6.918-5.608-12.526-12.527-12.526-6.918 0-12.526 5.608-12.526 12.526 0 6.919 5.608 12.527 12.526 12.527zm17.225-34.448c14.7 0 26.617-11.918 26.617-26.618S86.62 6.159 71.92 6.159c-14.702 0-26.62 11.917-26.62 26.618 0 14.7 11.917 26.617 26.618 26.617z" fill="#D9D9D9"/><path d="M81.314 50c-14.7 0-26.618-11.918-26.618-26.619 0-4.927 1.362-9.527 3.697-13.485C50.566 14.528 45.3 23.023 45.3 32.776c0 14.701 11.917 26.619 26.618 26.619 9.754 0 18.249-5.266 22.88-13.092A26.448 26.448 0 0181.314 50zM28.076 67.224c-10.378 0-18.79-8.413-18.79-18.79 0-3.173.793-6.157 2.182-8.778-5.952 3.153-10.011 9.403-10.011 16.607 0 10.377 8.412 18.79 18.79 18.79 7.204 0 13.454-4.06 16.607-10.011a18.699 18.699 0 01-8.778 2.182zm31.316 21.921c-6.918 0-12.527-5.609-12.527-12.526 0-2.253.603-4.36 1.643-6.187-3.784 2.156-6.34 6.218-6.34 10.884 0 6.918 5.608 12.526 12.526 12.526 4.666 0 8.728-2.556 10.884-6.34a12.453 12.453 0 01-6.186 1.643z" fill="#9E9E9E"/><path d="M71.916 4.693c-15.485 0-28.084 12.598-28.084 28.083 0 15.485 12.598 28.083 28.084 28.083 15.485 0 28.083-12.598 28.083-28.083 0-15.485-12.598-28.083-28.083-28.083zm0 53.236c-13.87 0-25.154-11.283-25.154-25.153S58.046 7.623 71.916 7.623s25.153 11.283 25.153 25.153-11.284 25.153-25.153 25.153zM34.712 44.182a1.465 1.465 0 00-.343 2.044 17.326 17.326 0 01-1.873 22.288c-6.755 6.754-17.746 6.754-24.501 0-6.755-6.755-6.755-17.746 0-24.501a17.326 17.326 0 0122.288-1.874 1.465 1.465 0 001.7-2.386 20.258 20.258 0 00-26.06 2.188c-7.897 7.898-7.897 20.747 0 28.644 3.949 3.95 9.135 5.924 14.322 5.924 5.187 0 10.374-1.975 14.322-5.924a20.258 20.258 0 002.188-26.06 1.465 1.465 0 00-2.043-.343z" fill="#000"/><path d="M54.694 67.325c-7.714 0-13.99 6.276-13.99 13.991s6.276 13.992 13.99 13.992c7.715 0 13.992-6.277 13.992-13.992 0-7.715-6.277-13.991-13.992-13.991zm0 25.052c-6.099 0-11.06-4.962-11.06-11.06 0-6.1 4.961-11.062 11.06-11.062 6.1 0 11.062 4.962 11.062 11.061 0 6.1-4.962 11.061-11.062 11.061zM29.64 27.978a6.17 6.17 0 006.162-6.162 1.465 1.465 0 00-2.93 0 3.236 3.236 0 01-3.233 3.232 3.236 3.236 0 01-3.233-3.232 3.236 3.236 0 013.233-3.233 1.465 1.465 0 000-2.93 6.17 6.17 0 00-6.162 6.162 6.17 6.17 0 006.162 6.163z" fill="#1D327B"/></svg>