<svg width="100" height="100" fill="none" xmlns="http://www.w3.org/2000/svg"><path d="M49.999 13.565L13.871 33.093l-.004-.001-.002.002L1.867 20.997l36.035-19.53 12.097 12.097zm48.133 7.433L86.134 33.093l-.002-.001-.004.002L50 13.563 62.097 1.468l36.035 19.531z" fill="#9E9E9E"/><path d="M50 52.622v45.913L13.866 79.004v-45.91L50 52.621z" fill="#D9D9D9"/><path d="M86.132 33.093v45.911L50 98.534V52.623l36.132-19.529z" fill="#9E9E9E"/><path d="M80.273 36.26v45.912l5.86-3.168v-45.91l-5.86 3.166z" fill="#9E9E9E"/><path d="M86.134 33.093L98.132 45.19l-12 6.504L62.097 64.72 50 52.622l36.128-19.529.004.002.002-.002z" fill="#D9D9D9"/><path d="M86.134 33.093L98.132 45.19l-12 6.504L62.097 64.72 50 52.622l36.128-19.529.004.002.002-.002z" fill="#D9D9D9"/><path d="M81.066 35.829L93.07 47.932l5.06-2.743-11.997-12.096-.002.002-.004-.002-5.06 2.736z" fill="#9E9E9E"/><path d="M49.999 52.622L37.902 64.72 13.867 51.693l-12-6.504 11.998-12.096.002.002.004-.002 36.128 19.53z" fill="#D9D9D9"/><path d="M86.127 33.093L50 52.623l-36.128-19.53L50 13.565l36.128 19.528z" fill="#E30613"/><path d="M88.195 33.094l10.976-11.065a1.466 1.466 0 00-.343-2.32L62.795.18a1.465 1.465 0 00-1.735.25L49.998 11.493 38.937.432A1.451 1.451 0 0037.204.18L25.63 6.45a1.458 1.458 0 00-.705.872 1.46 1.46 0 00.115 1.115 1.47 1.47 0 001.29.768c.242 0 .484-.063.697-.178l10.61-5.752 9.936 9.936-33.439 18.074-9.851-9.932 17.591-9.535c.346-.185.596-.494.707-.869a1.464 1.464 0 00-2.102-1.705L1.17 19.71a1.463 1.463 0 00-.341 2.319l10.974 11.065L.827 44.158a1.466 1.466 0 00.342 2.32l11.233 6.088V79c0 .05.003.101.008.151l.009.063a.926.926 0 00.035.17l.01.043c.01.032.022.062.033.093l.015.041c.012.028.025.054.038.08l.023.05.038.064.036.06.035.048.05.068.032.036.064.07.036.033c.022.021.044.042.068.062.022.019.047.036.07.053.015.01.028.022.042.032.042.028.086.054.13.079l36.12 19.524a1.473 1.473 0 00.324.128l.045.012c.041.01.083.017.125.023l.043.007a1.473 1.473 0 00.335 0l.044-.007c.042-.006.083-.014.124-.023l.046-.012c.042-.011.083-.024.124-.04l.037-.013a1.31 1.31 0 00.161-.075l36.12-19.524c.045-.025.089-.051.13-.08l.042-.03c.024-.018.049-.035.071-.054a1 1 0 00.068-.062l.036-.033.064-.07.031-.036c.018-.022.035-.045.051-.068l.035-.048.036-.06.038-.064.023-.05c.013-.026.026-.052.038-.08l.015-.04a1.38 1.38 0 00.032-.094.3.3 0 00.011-.043.922.922 0 00.023-.094c.005-.025.008-.05.012-.076l.01-.063c.004-.05.007-.1.007-.15V52.565l11.232-6.088a1.47 1.47 0 00.752-1.075 1.476 1.476 0 00-.408-1.246L88.195 33.094zM62.36 3.276l33.355 18.078-9.851 9.931-33.44-18.075 9.935-9.934zM49.999 15.23l33.049 17.864-33.05 17.864-33.047-17.864L50 15.23zM14.136 34.901l33.439 18.075-9.935 9.935-23.07-12.502-.012-.006-10.275-5.57 9.851-9.93zm23.069 31.106a1.463 1.463 0 001.733-.252l9.597-9.596v39.918L15.332 78.131V54.154l21.871 11.854zM85.444 50.4a.884.884 0 00-.023.012l-7.298 3.956a1.449 1.449 0 00-.707.871 1.46 1.46 0 001.404 1.881c.243 0 .485-.06.698-.176l5.148-2.79V78.13L51.464 96.08V56.16l9.597 9.597a1.454 1.454 0 001.733.252l11.574-6.273c.343-.185.593-.496.705-.87a1.466 1.466 0 00-2.102-1.703L62.36 62.909l-9.935-9.933L85.864 34.9l9.85 9.932-10.27 5.567z" fill="#000"/></svg>