<svg width="100" height="100" fill="none" xmlns="http://www.w3.org/2000/svg"><g clip-path="url(#clip0)"><path d="M63.83 40.406H30.79V13.502a2.93 2.93 0 012.929-2.93h27.18a2.93 2.93 0 012.93 2.93v26.904z" fill="#D9D9D9"/><path d="M52.662 10.572v5.218a3.885 3.885 0 01-3.884 3.885h-2.936a3.885 3.885 0 01-3.885-3.885v-5.218" fill="#E30613"/><path d="M60.898 10.572H55.04a2.93 2.93 0 012.93 2.93v26.904h5.86V13.502a2.93 2.93 0 00-2.93-2.93z" fill="#D9D9D9"/><path d="M94.19 65.798H57.375V26.69a2.93 2.93 0 012.93-2.93H91.26a2.93 2.93 0 012.93 2.93v39.108z" fill="#D9D9D9"/><path d="M81.749 23.76v5.815a4.328 4.328 0 01-4.329 4.329h-3.27a4.328 4.328 0 01-4.329-4.329v-5.814" fill="#E30613"/><path d="M37.68 65.798H6.473v-39.3a2.93 2.93 0 012.93-2.93H34.75a2.93 2.93 0 012.93 2.93v39.3z" fill="#D9D9D9"/><path d="M27.13 23.568v4.929a3.67 3.67 0 01-3.668 3.669h-2.773a3.67 3.67 0 01-3.67-3.67v-4.928" fill="#9E9E9E"/><path d="M27.13 23.568v4.929a3.67 3.67 0 01-3.668 3.669h-2.773a3.67 3.67 0 01-3.67-3.67v-4.928" fill="#E30613"/><path d="M91.258 23.76h-5.86a2.93 2.93 0 012.93 2.93v39.108h5.86V26.69a2.93 2.93 0 00-2.93-2.93zm-56.508-.192h-5.86a2.93 2.93 0 012.93 2.93v39.3h5.86v-39.3a2.93 2.93 0 00-2.93-2.93z" fill="#D9D9D9"/><path d="M7.922 73.046h9.107v9.108H7.922v-9.108zm18.762 0h9.107v9.108h-9.107v-9.108zm18.766 0h9.107v9.108h-9.108v-9.108zm18.757 0h9.108v9.108h-9.108v-9.108zm18.762 0h9.107v9.108H82.97v-9.108z" fill="#E30613"/><path d="M98.006 73.047H1.994a.529.529 0 01-.53-.53v-6.215a.53.53 0 01.53-.529h96.012a.53.53 0 01.529.53v6.215a.529.529 0 01-.529.529zm0 16.38H1.994a.529.529 0 01-.53-.529v-6.215a.53.53 0 01.53-.529h96.012a.53.53 0 01.529.53v6.214a.529.529 0 01-.529.53z" fill="#9E9E9E"/><path d="M98.004 65.773h-5.86a.53.53 0 01.53.53v6.215a.529.529 0 01-.53.529h5.86a.529.529 0 00.529-.53v-6.215a.529.529 0 00-.53-.529zm0 16.381h-5.86a.53.53 0 01.53.53v6.214a.529.529 0 01-.53.53h5.86a.529.529 0 00.529-.53v-6.215a.529.529 0 00-.53-.529z" fill="#9E9E9E"/><path d="M47.305 65.735H19.254v-22.4a2.93 2.93 0 012.93-2.929h25.121v25.33zm28.055.01H47.309V40.416H72.43a2.93 2.93 0 012.93 2.93v22.4z" fill="#D9D9D9"/><path d="M41.45 40.406h5.859v25.33h-5.86v-25.33zm30.98.01h-5.86a2.93 2.93 0 012.93 2.93v22.4h5.86v-22.4a2.93 2.93 0 00-2.93-2.93z" fill="#D9D9D9"/><path d="M66.19 40.416v4.43a3.298 3.298 0 01-3.298 3.298H60.4a3.298 3.298 0 01-3.298-3.298v-4.43" fill="#9E9E9E"/><path d="M66.19 40.856v3.99a3.298 3.298 0 01-3.298 3.298H60.4a3.298 3.298 0 01-3.298-3.298v-4.43m-18.052 0v4.43a3.298 3.298 0 01-3.298 3.298h-2.493a3.298 3.298 0 01-3.298-3.298v-4.43" fill="#E30613"/><path d="M98.006 74.511c1.1 0 1.994-.894 1.994-1.993v-6.216c0-1.1-.894-1.994-1.994-1.994h-2.35V26.69a4.4 4.4 0 00-4.396-4.394H65.294v-8.794a4.4 4.4 0 00-4.395-4.395H33.72a4.4 4.4 0 00-4.395 4.395v8.601H9.402a4.4 4.4 0 00-4.394 4.395v17.613a1.465 1.465 0 002.93 0V26.498c0-.808.656-1.465 1.464-1.465h6.154v3.464a5.14 5.14 0 005.133 5.134h2.773a5.14 5.14 0 005.134-5.134v-3.464h6.154c.808 0 1.465.657 1.465 1.465v12.444H22.186a4.4 4.4 0 00-4.394 4.394v20.972H7.937V49.97a1.465 1.465 0 00-2.93 0v14.338H1.995c-1.1 0-1.994.895-1.994 1.994v6.216c0 1.099.895 1.993 1.994 1.993h4.463v6.178H1.994c-1.1 0-1.994.895-1.994 1.994v6.215c0 1.1.895 1.994 1.994 1.994h67.929a1.465 1.465 0 000-2.93H2.93V83.62h94.14v4.344H75.782a1.465 1.465 0 100 2.93h22.224c1.1 0 1.994-.895 1.994-1.995v-6.215c0-1.1-.894-1.994-1.994-1.994h-4.464v-6.177h4.464zm-5.28-47.82v37.617h-15.9V43.346a4.4 4.4 0 00-4.394-4.395H58.84v-12.26c0-.808.657-1.465 1.464-1.465h8.05v4.349a5.8 5.8 0 005.793 5.793h3.271a5.8 5.8 0 005.793-5.793v-4.35h8.05c.807 0 1.464.658 1.464 1.465zM58.564 41.88h6.159v2.965a1.835 1.835 0 01-1.833 1.833h-2.493a1.835 1.835 0 01-1.833-1.833V41.88zm1.833 7.728h2.493a4.768 4.768 0 004.763-4.763V41.88h4.778c.808 0 1.465.657 1.465 1.465V64.28H48.775v-22.4h6.86v2.966a4.768 4.768 0 004.763 4.763zm10.885-24.383h8.999v4.349a2.867 2.867 0 01-2.864 2.864h-3.271a2.867 2.867 0 01-2.864-2.864v-4.35zM43.421 12.037h7.776v3.753a2.423 2.423 0 01-2.42 2.42h-2.936a2.422 2.422 0 01-2.42-2.42v-3.753zm-17.754 16.46a2.207 2.207 0 01-2.205 2.204H20.69a2.207 2.207 0 01-2.204-2.204v-3.464h7.182v3.464zm9.083-6.393h-2.496v-8.602c0-.808.657-1.465 1.465-1.465h6.773v3.753c0 2.95 2.4 5.35 5.349 5.35h2.936c2.95 0 5.35-2.4 5.35-5.35v-3.753H60.9c.807 0 1.465.657 1.465 1.465v8.794h-2.06a4.4 4.4 0 00-4.395 4.394v12.261l-16.766-.01V26.499a4.4 4.4 0 00-4.394-4.395zM31.427 41.87h6.159v2.975c0 1.01-.822 1.833-1.833 1.833H33.26a1.835 1.835 0 01-1.833-1.833V41.87zm-10.706 1.465c0-.808.657-1.465 1.465-1.465h6.311v2.975a4.768 4.768 0 004.763 4.763h2.493a4.768 4.768 0 004.763-4.763V41.87h5.33v22.437H20.72V43.336zM2.93 67.238h94.14v4.344H2.93v-4.344zm22.29 7.273v6.178h-6.725v-6.178h6.724zm2.93 0h6.177v6.178H28.15v-6.178zm9.107 0h6.724v6.178h-6.724v-6.178zm9.654 0h6.178v6.178h-6.178v-6.178zm9.108 0h6.724v6.178H56.02v-6.178zm9.654 0h6.178v6.178h-6.178v-6.178zm9.108 0h6.724v6.178h-6.724v-6.178zm-65.394 0h6.178v6.178H9.387v-6.178zm81.226 6.178h-6.178v-6.178h6.178v6.178z" fill="#000"/></g><defs><clipPath id="clip0"><path fill="#fff" d="M0 0h100v100H0z"/></clipPath></defs></svg>