<svg width="100" height="100" fill="none" xmlns="http://www.w3.org/2000/svg"><g clip-path="url(#clip0)"><path d="M81.567 66.878h-78.5a1.781 1.781 0 01-1.782-1.781V11.464c0-.984.797-1.782 1.782-1.782h78.5c.984 0 1.782.798 1.782 1.782v53.632c0 .985-.798 1.782-1.782 1.782z" fill="#A0A0A5"/><path d="M89.056 78.699h-78.5a1.782 1.782 0 01-1.783-1.782V23.285c0-.984.798-1.782 1.783-1.782h78.5c.984 0 1.782.798 1.782 1.782v53.632c0 .984-.798 1.782-1.782 1.782z" fill="#B9B9BE"/><path d="M98.326 35.106v53.632a1.78 1.78 0 01-1.782 1.781h-78.5a1.781 1.781 0 01-1.782-1.781V35.106a1.78 1.78 0 011.781-1.782h78.5c.985 0 1.783.797 1.783 1.782z" fill="#D2D2D7"/><path d="M98.323 35.106v49.295H23.962a1.781 1.781 0 01-1.782-1.781V33.324h74.36a1.78 1.78 0 011.782 1.782z" fill="#EBEBF0"/><path d="M98.325 60.299c.817 0 1.48-.66 1.48-1.48V35.107a3.266 3.266 0 00-3.263-3.263h-4.225v-8.56a3.266 3.266 0 00-3.262-3.261H84.83v-8.557c0-1.8-1.465-3.263-3.263-3.263H44.926a1.48 1.48 0 100 2.96h36.641c.166 0 .302.135.302.303v8.557H10.555a3.266 3.266 0 00-3.263 3.262v42.113H3.067a.302.302 0 01-.302-.301V11.466a.3.3 0 01.302-.303h35.938a1.48 1.48 0 100-2.96H3.067a3.265 3.265 0 00-3.262 3.263v53.631a3.266 3.266 0 003.262 3.262h4.225v8.559a3.266 3.266 0 003.263 3.262h4.225v8.558c0 1.8 1.464 3.263 3.262 3.263h78.5c1.8 0 3.263-1.463 3.263-3.263V64.74a1.48 1.48 0 00-2.96 0v24a.3.3 0 01-.303.3h-78.5a.302.302 0 01-.301-.3V51.624a1.481 1.481 0 00-2.961 0V77.22h-4.225a.303.303 0 01-.303-.302V23.285c0-.166.137-.302.303-.302h78.5c.165 0 .302.136.302.302v8.56H18.042a3.267 3.267 0 00-3.262 3.262v10.598a1.48 1.48 0 002.96 0V35.107c0-.166.136-.303.302-.303h78.5c.168 0 .302.137.302.303v23.712c0 .82.663 1.48 1.48 1.48z" fill="#000"/></g><defs><clipPath id="clip0"><path fill="#fff" d="M0 0h100v100H0z"/></clipPath></defs></svg>