<svg width="50" height="50" fill="none" xmlns="http://www.w3.org/2000/svg"><path d="M25 6.782L6.934 16.547l-.001-.001h-.001l-6-6.047L18.952.734 25 6.782z" fill="#9E9E9E"/><path d="M49.066 10.5l-5.999 6.047-.001-.001h-.002L25 6.783 31.049.734l18.017 9.765z" fill="#E30613"/><path d="M25 26.311v22.956L6.934 39.502V16.547L25 26.31zm18.066-9.764v22.955L25 49.267V26.311l18.066-9.764z" fill="#D9D9D9"/><path d="M40.137 18.13v22.956l2.93-1.584V16.547l-2.93 1.583z" fill="#9E9E9E"/><path d="M43.067 16.547l5.999 6.047-6 3.252-12.017 6.514L25 26.31l18.064-9.764h.003z" fill="#F2C397"/><path d="M43.067 16.547l5.999 6.047-6 3.252-12.017 6.514L25 26.31l18.064-9.764h.003z" fill="#D9D9D9"/><path d="M40.535 17.914l6.002 6.052 2.53-1.372-5.999-6.047h-.003l-2.53 1.367z" fill="#9E9E9E"/><path d="M25 26.311l-6.05 6.049-12.016-6.514-6-3.252 5.999-6.047h.002L25 26.31z" fill="#D9D9D9"/><path d="M43.066 16.547L25.002 26.31 6.938 16.547l18.064-9.765 18.064 9.765z" fill="#1D327B"/><path d="M44.1 16.547l5.487-5.532a.733.733 0 00-.17-1.16L31.398.089a.732.732 0 00-.867.126L25 5.747 19.47.216a.726.726 0 00-.867-.126l-5.787 3.135a.729.729 0 00-.353.436.73.73 0 00.703.941.737.737 0 00.348-.088l5.306-2.876 4.967 4.967L7.07 15.642l-4.926-4.965 8.796-4.768a.723.723 0 00.354-.434.732.732 0 00-1.05-.853L.586 9.855a.732.732 0 00-.171 1.16l5.487 5.532-5.487 5.532a.733.733 0 00.17 1.16l5.617 3.044V39.5c0 .025.001.05.004.075 0 .011.003.021.004.032l.006.038c.003.016.008.032.012.047l.005.022c.005.015.01.03.017.046l.007.02a.371.371 0 00.019.04l.012.026.018.032.019.03.017.023.025.035.016.017c.01.012.02.024.032.035l.018.017c.011.01.022.021.034.03l.035.028.021.015a.786.786 0 00.065.04l18.06 9.762a.765.765 0 00.081.038l.019.006a.66.66 0 00.147.038l.021.003a.748.748 0 00.168 0l.022-.003a.72.72 0 00.147-.038l.018-.006a.762.762 0 00.081-.038l18.06-9.762a.78.78 0 00.065-.04l.021-.015.036-.027.034-.03c.005-.007.012-.012.017-.018.012-.01.022-.023.032-.035l.016-.017c.01-.011.017-.023.026-.035l.017-.023.018-.03.019-.032.012-.025.018-.04.008-.02.016-.047.006-.022.011-.047c.003-.012.004-.025.006-.038l.005-.032a.702.702 0 00.003-.075V26.283l5.617-3.044a.735.735 0 00.171-1.16L44.1 16.547zM31.18 1.637l16.678 9.04-4.926 4.966-16.719-9.038 4.968-4.967zM25 7.615l16.525 8.932L25 25.479 8.477 16.547l16.525-8.932zM7.07 17.45l16.72 9.038-4.968 4.967-11.533-6.251a.092.092 0 00-.007-.004l-5.137-2.784L7.07 17.45zm11.535 15.553a.732.732 0 00.867-.126l4.798-4.798v19.96L7.668 39.064V27.077l10.936 5.927zm24.12-7.804a.443.443 0 00-.011.006l-3.65 1.978a.73.73 0 00.349 1.376c.121 0 .242-.03.349-.088l2.574-1.395v11.989l-16.601 8.973V28.08l4.798 4.8a.727.727 0 00.867.125l5.787-3.136a.727.727 0 00.352-.436.733.733 0 00-1.05-.851l-5.306 2.874-4.968-4.966 16.72-9.038 4.925 4.965-5.135 2.784z" fill="#000"/></svg>