<svg width="50" height="50" fill="none" xmlns="http://www.w3.org/2000/svg"><g clip-path="url(#clip0)"><path d="M.734 5.991h4.69v10.163H.733V5.991zm19.579 0H25v10.163h-4.689V5.991zm19.577 0h4.69v10.163h-4.69V5.991z" fill="#E30613"/><path d="M44.58 18.037H1.73a.994.994 0 01-.995-.995v-2.77h43.847v3.764zm0-10.163H.735v-2.77c0-.55.446-.995.995-.995h41.857c.55 0 .995.446.995.995v2.77z" fill="#D9D9D9"/><path d="M38.2 14.272h6.38v3.764H38.2v-3.764zM43.585 4.11H38.2v3.764h6.38v-2.77a.994.994 0 00-.994-.995z" fill="#9E9E9E"/><path d="M.734 33.846h4.69v10.162H.733V33.845zm19.579 0H25v10.162h-4.689V33.845zm19.577 0h4.69v10.162h-4.69V33.845z" fill="#E30613"/><path d="M43.586 45.89H1.73a.994.994 0 01-.995-.994v-2.77h43.847v2.77c0 .55-.446.995-.995.995zm.994-10.162H.735v-2.77c0-.55.446-.995.995-.995h42.85v3.765z" fill="#D9D9D9"/><path d="M38.2 42.126v3.765h5.385c.55 0 .994-.446.994-.995v-2.77H38.2zm0-10.163h6.38v3.764H38.2v-3.764z" fill="#9E9E9E"/><path d="M5.422 19.919h4.689V30.08H5.42V19.92zm19.578 0h4.689V30.08H25V19.92zm19.578 0h4.689V30.08h-4.689V19.92z" fill="#D9D9D9"/><path d="M48.274 31.964H5.422V28.2h43.846v2.77a.994.994 0 01-.994.994zm.994-10.162H5.422v-3.765h42.852c.549 0 .994.446.994.995v2.77z" fill="#9E9E9E"/><path d="M42.887 28.2v3.764h5.386a.995.995 0 00.994-.995V28.2h-6.38zm5.386-10.164h-5.386V21.8h6.38v-2.77a.994.994 0 00-.994-.994z" fill="#E30613"/><path d="M48.273 17.304h-2.962v-12.2a1.73 1.73 0 00-1.727-1.727H1.727A1.73 1.73 0 000 5.104v11.938a1.73 1.73 0 001.727 1.727h2.962v12.462H1.727A1.73 1.73 0 000 32.958v11.939c0 .952.775 1.726 1.727 1.726h41.857c.952 0 1.727-.774 1.727-1.726v-12.2h2.962A1.73 1.73 0 0050 30.969V19.031a1.73 1.73 0 00-1.727-1.727zM30.421 27.467v-4.934h13.425v4.934H30.421zm-4.689 0v-4.934h3.224v4.934h-3.224zm-14.89 0v-4.934h13.426v4.934H10.843zm-4.688 0v-4.934h3.224v4.934H6.154zm39.157-4.934h3.224v4.934h-3.224v-4.934zM25.732 13.54V8.606h13.425v4.934H25.732zm-4.688 0V8.606h3.224v4.934h-3.224zm19.578-4.934h3.224v4.934h-3.224V8.606zM1.465 5.104c0-.145.117-.262.262-.262h41.857c.145 0 .262.117.262.262V7.14H14.484a.732.732 0 100 1.465h5.095v4.934H6.154V8.606h4.905a.732.732 0 100-1.465H1.465V5.104zm0 8.436V8.606h3.224v4.934H1.465zm0 3.502v-2.037h42.381v2.3H1.727a.262.262 0 01-.262-.263zm46.808 1.727c.145 0 .262.117.262.262v2.037H6.154V18.77h42.12zM19.58 36.46v4.934H6.154V36.46h13.425zm4.689 0v4.934h-3.224V36.46h3.224zm-19.58 4.934H1.466V36.46H4.69v4.934zm39.158 3.502a.262.262 0 01-.262.262H1.727a.262.262 0 01-.262-.262V42.86h42.381v2.037zm0-8.436v4.934h-3.224V36.46h3.224zm0-1.465h-9.43a.732.732 0 100 1.465h4.741v4.934H25.732V36.46h5.26a.732.732 0 000-1.465H1.464v-2.037c0-.144.117-.262.262-.262h42.12v2.3zm4.69-4.026a.262.262 0 01-.263.262H6.154v-2.3h42.381v2.038z" fill="#000"/></g><defs><clipPath id="clip0"><path fill="#fff" d="M0 0h50v50H0z"/></clipPath></defs></svg>