<svg width="50" height="46" fill="none" xmlns="http://www.w3.org/2000/svg"><path d="M.73 7.894h36.402v36.4H.73v-36.4z" fill="#ECECEC"/><path d="M.73 7.894h1.954v36.4H.73v-36.4z" fill="#9E9E9E"/><path d="M40.167 26.033c-5.469-1.92-9.1-6.492-9.1-11.912V4.799l9.1-3.094 9.1 3.094v9.321c0 5.422-3.632 9.994-9.1 11.913z" fill="#D9D9D9"/><path d="M22.703 17.94l-3.768-1.728-3.767 1.728V7.894h7.535V17.94z" fill="#1D327B"/><path d="M12.194 34.752L8.32 30.88l-3.87 3.872h2.356v6.576h3.033v-6.576h2.356z" fill="#F1F6F7"/><path d="M40.165 22.746c-3.755-1.682-6.044-4.908-6.044-8.625V6.989l6.044-2.055 6.044 2.055v7.131c0 3.718-2.29 6.944-6.044 8.626z" fill="#E30613"/><path d="M25 38.167h9.1v2.72H25v-2.72z" fill="#9E9E9E"/><path d="M13.57 45.027H.731A.732.732 0 010 44.295v-28.77a.732.732 0 111.465 0v28.038h12.104a.732.732 0 110 1.464z" fill="#000"/><path d="M8.837 30.362c-.345-.286-.69-.286-1.036 0L3.93 34.234c-.384.648-.211 1.065.518 1.25H6.07v5.844c0 .405.328.733.733.733h3.033a.732.732 0 00.733-.733v-5.843h1.623c.73-.186.902-.603.518-1.25l-3.873-3.873zm.999 3.658a.732.732 0 00-.732.732v5.844H7.535v-5.843a.732.732 0 00-.732-.733h-.588l2.104-2.104 2.104 2.104h-.587z" fill="#000"/><path d="M49.503 4.106l-9.1-3.094a.733.733 0 00-.472 0l-2.619.89a.732.732 0 10.472 1.387l2.383-.81 8.368 2.845v8.796c0 4.903-3.276 9.249-8.368 11.135-5.092-1.886-8.368-6.232-8.368-11.135V5.324l2.963-1.008a.732.732 0 10-.471-1.386l-3.46 1.176a.732.732 0 00-.497.694v2.36H.732A.732.732 0 000 7.894v4.438a.732.732 0 101.465 0V8.626h12.968v9.314c.104.6.45.822 1.038.666l3.462-1.589 3.462 1.589c.443.203 1.038-.124 1.038-.666V8.626h6.901v5.494c0 4.406 2.424 8.46 6.067 10.865v18.578h-19.64a.732.732 0 100 1.464h20.373a.732.732 0 00.732-.732V25.84a16.36 16.36 0 002.058.883.733.733 0 00.486 0C45.812 24.828 50 20.013 50 14.12V4.8c0-.314-.2-.593-.497-.694zM21.968 16.798l-2.73-1.252a.732.732 0 00-.61 0l-2.73 1.252V8.626h6.07v8.172z" fill="#000"/><path d="M33.39 6.989v7.132c0 4.003 2.422 7.477 6.477 9.294.2.085.4.085.6 0 4.055-1.817 6.476-5.291 6.476-9.294V6.989c0-.314-.2-.593-.497-.694L40.402 4.24a.732.732 0 00-.471 0l-6.044 2.055a.732.732 0 00-.496.694zm1.465.524l5.312-1.806 5.311 1.806v6.607c0 3.311-1.979 6.213-5.311 7.819-3.333-1.606-5.312-4.508-5.312-7.819V7.513zM24.266 40.887c0 .405.328.733.732.733h9.1a.732.732 0 00.733-.733v-2.72a.732.732 0 00-.733-.732h-9.1a.732.732 0 00-.732.732v2.72zM25.73 38.9h7.635v1.255H25.73V38.9zm8.368-3.034a.732.732 0 00.001-1.465l-9.1-.009h-.001a.732.732 0 000 1.465l9.1.01z" fill="#000"/><path d="M38.823 15.318a.732.732 0 001.038-.003L42.8 12.35c.301-.304.334-.678-.005-1.036-.234-.247-.67-.31-1.035.005l-2.42 2.443-.764-.761c-.944-.727-1.725.318-1.035 1.036l1.283 1.281z" fill="#000"/></svg>