<svg width="50" height="50" fill="none" xmlns="http://www.w3.org/2000/svg"><g clip-path="url(#clip0)"><path d="M48.781 5.209H13.645a.488.488 0 00-.489.488v16.166c5.903.478 10.545 5.42 10.545 11.445 0 3.118-1.244 5.945-3.26 8.014h28.34a.49.49 0 00.489-.489V5.697a.488.488 0 00-.489-.488z" fill="#ECECEC"/><path d="M18.264 23.545V5.697c0-.27.218-.488.488-.488h-5.107a.488.488 0 00-.489.488v16.166c1.864.151 3.602.747 5.108 1.682z" fill="#9E9E9E"/><path d="M27.953 5.209v8.156c0 .162.131.293.293.293h5.938a.293.293 0 00.293-.293V5.209h-6.524z" fill="#1D327B"/><path d="M31.059 13.365V5.209h-3.106v8.156c0 .162.131.293.293.293h3.106a.293.293 0 01-.293-.293z" fill="#1D327B"/><path d="M12.217 44.791c6.342 0 11.484-5.141 11.484-11.483 0-6.342-5.142-11.483-11.484-11.483-6.341 0-11.483 5.141-11.483 11.483 0 6.342 5.142 11.483 11.483 11.483z" fill="#E30613"/><path d="M7.095 40.213a8.594 8.594 0 01-3.479-6.905 8.594 8.594 0 013.48-6.905 11.48 11.48 0 017.148-4.4 11.564 11.564 0 00-2.027-.178C5.876 21.825.734 26.966.734 33.308c0 6.342 5.142 11.483 11.483 11.483.692 0 1.369-.061 2.027-.178a11.48 11.48 0 01-7.149-4.4z" fill="#E30613"/><path d="M18.294 39.387A8.6 8.6 0 106.132 27.225a8.6 8.6 0 0012.162 12.162z" fill="#fff"/><path d="M7.718 33.308c0-4.036 2.794-7.431 6.55-8.354a8.587 8.587 0 00-2.05-.247c-4.742 0-8.6 3.858-8.6 8.601s3.858 8.601 8.6 8.601a8.6 8.6 0 002.05-.247c-3.756-.922-6.55-4.318-6.55-8.354z" fill="#F0F0F0"/><path d="M45.215 31.348h-9.57a.293.293 0 01-.293-.293v-12.5c0-.162.13-.293.293-.293h9.57c.162 0 .293.13.293.293v12.5a.293.293 0 01-.293.293z" fill="#fff"/><path d="M38.281 31.055v-12.5c0-.162.131-.293.293-.293h-2.93a.293.293 0 00-.292.293v12.5c0 .162.13.293.293.293h2.93a.293.293 0 01-.294-.293z" fill="#F0F0F0"/><path d="M48.78 4.476H13.642c-.674 0-1.221.548-1.221 1.22v3.4H.732a.732.732 0 000 1.465h11.69v2.37h-8.74a.732.732 0 100 1.465h8.74v2.371H6.633a.732.732 0 100 1.465h5.789v2.863l-.207-.002C5.48 21.093 0 26.573 0 33.308c0 6.736 5.48 12.216 12.216 12.216a12.17 12.17 0 008.518-3.47h22.04a.732.732 0 100-1.464H22.017a12.152 12.152 0 002.413-7.282c0-6.169-4.597-11.283-10.544-12.1v-2.976h7.5a.732.732 0 000-1.465h-7.5v-2.37h5.547a.732.732 0 100-1.466h-5.547v-2.37h3.515a.733.733 0 000-1.465h-3.515V5.94h13.33v7.424c0 .565.46 1.025 1.025 1.025h5.938c.565 0 1.025-.46 1.025-1.025v-2.232a.732.732 0 00-1.465 0v1.792h-5.058V5.941h5.058v1.774a.733.733 0 001.465 0V5.94h13.33v34.648H46.19a.732.732 0 100 1.465h2.588c.673 0 1.221-.547 1.221-1.22V5.697c0-.673-.548-1.22-1.22-1.22zM22.965 33.308c0 5.928-4.823 10.75-10.75 10.75-5.928 0-10.751-4.822-10.751-10.75s4.823-10.75 10.75-10.75c5.928 0 10.751 4.822 10.751 10.75z" fill="#000"/><path d="M35.412 33.643a.732.732 0 100 1.464h10.094a.732.732 0 000-1.464H35.412zm-.062 4.406h10.094a.732.732 0 000-1.465H35.35a.732.732 0 100 1.465zM2.883 33.308c0 5.147 4.187 9.334 9.333 9.334a9.247 9.247 0 005.592-1.865 9.427 9.427 0 003.329-4.721.732.732 0 10-1.4-.432 7.95 7.95 0 01-2.808 3.981 7.792 7.792 0 01-4.713 1.572c-4.338 0-7.868-3.53-7.868-7.869s3.53-7.869 7.868-7.869c1.957 0 3.834.726 5.285 2.045a7.853 7.853 0 012.543 5.013.732.732 0 001.457-.15 9.316 9.316 0 00-3.015-5.948 9.308 9.308 0 00-6.27-2.425c-5.146 0-9.333 4.188-9.333 9.334z" fill="#000"/><path d="M12.217 26.159a.732.732 0 00-.733.732v6.417a.733.733 0 001.127.617l4.08-2.608a.733.733 0 00-.79-1.234L12.95 31.97v-5.079a.733.733 0 00-.732-.732zm34.021-7.604c0-.566-.46-1.026-1.025-1.026h-9.57c-.566 0-1.026.46-1.026 1.026v12.5c0 .565.46 1.025 1.026 1.025h9.57c.565 0 1.025-.46 1.025-1.025v-12.5zm-1.465 12.06h-8.691v-11.62h8.691v11.62z" fill="#000"/><path d="M37.8 23.738a.732.732 0 001.034-.077l.862-1v3.493a.732.732 0 101.465 0v-3.492l.863 1a.73.73 0 001.033.076.732.732 0 00.076-1.034l-2.15-2.491a.732.732 0 00-1.109 0l-2.15 2.491a.732.732 0 00.077 1.034zm.296 5.912h4.662a.732.732 0 100-1.464h-4.662a.732.732 0 000 1.464z" fill="#000"/></g><defs><clipPath id="clip0"><path fill="#fff" d="M0 0h50v50H0z"/></clipPath></defs></svg>