<svg width="50" height="50" fill="none" xmlns="http://www.w3.org/2000/svg"><g clip-path="url(#clip0)"><path d="M9.558 26.83h2.924v-2.424h-.5c-.281-.01-.548-.369-.747-.567l-2.35-2.35a.553.553 0 00-.781 0L6.07 23.523l2.74 2.74c.2.199.467.558.748.567z" fill="#9E9E9E"/><path d="M42.586 18.017a6.684 6.684 0 01-6.674-7.054h-22.78a.648.648 0 00-.648.647v15.22h4.886a1.477 1.477 0 010 2.953h-2.252l7.457 7.457c.562.562.614 1.477.079 2.066a1.477 1.477 0 01-2.138.051l2.129 2.128c.23.23.372.519.426.82H43.18c.357 0 .647-.29.647-.647V17.9a6.714 6.714 0 01-1.241.117z" fill="#ECECEC"/><path d="M17.37 29.783h-2.253l3.542 3.541v-4.299a1.475 1.475 0 01-1.29.758zm0-2.953a1.48 1.48 0 011.29.758V11.611c0-.357.29-.647.647-.647h-6.175a.648.648 0 00-.648.647v15.22h4.886z" fill="#9E9E9E"/><path d="M24.02 10.963v6.27c0 .357.29.647.647.647h6.976c.358 0 .648-.29.648-.648v-6.27H24.02z" fill="#1D327B"/><path d="M28.058 17.232v-6.27H24.02v6.27c0 .358.29.648.647.648h4.039a.648.648 0 01-.648-.648z" fill="#1D327B"/><path d="M22.644 41.486l-2.128-2.129a1.477 1.477 0 002.137-.051c.536-.588.484-1.504-.078-2.066l-7.457-7.457h2.252a1.476 1.476 0 100-2.953H9.56c-.281-.01-.548-.368-.747-.567l-2.74-2.74-5.177 5.176a.553.553 0 000 .782l2.327 2.326c.199.2.319.467.323.75a5.885 5.885 0 001.728 4.087l8.252 8.252c.563.562 1.478.614 2.066.079a1.477 1.477 0 00.052-2.138l1.432 1.432c.562.563 1.478.614 2.066.08a1.477 1.477 0 00.052-2.138l1.392 1.392a1.477 1.477 0 002.137-.052c.535-.588.484-1.503-.079-2.065z" fill="#D9D9D9"/><path d="M22.644 41.486l-2.128-2.129a1.477 1.477 0 002.137-.051c.536-.588.484-1.504-.078-2.066l-7.457-7.457h2.252a1.476 1.476 0 100-2.953H9.56c-.281-.01-.548-.368-.747-.567l-2.74-2.74-5.177 5.176a.553.553 0 000 .782l2.327 2.326c.199.2.319.467.323.75a5.885 5.885 0 001.728 4.087l8.252 8.252c.563.562 1.478.614 2.066.079a1.477 1.477 0 00.052-2.138l1.432 1.432c.562.563 1.478.614 2.066.08a1.477 1.477 0 00.052-2.138l1.392 1.392a1.477 1.477 0 002.137-.052c.535-.588.484-1.503-.079-2.065z" fill="#D9D9D9"/><path d="M15.53 42.856l-8.253-8.252a5.885 5.885 0 01-1.728-4.088 1.087 1.087 0 00-.323-.749l-2.327-2.326a.55.55 0 01-.094-.65L.896 28.698a.553.553 0 000 .782l2.327 2.326c.199.2.319.467.323.75a5.885 5.885 0 001.728 4.087l8.252 8.252c.563.562 1.478.614 2.066.079a1.476 1.476 0 00.261-1.872 1.536 1.536 0 01-.324-.247z" fill="#9E9E9E"/><path d="M42.583 18.017a6.684 6.684 0 100-13.369 6.684 6.684 0 000 13.37z" fill="#E30613"/><path d="M39.951 11.334a6.686 6.686 0 014.658-6.371 6.684 6.684 0 100 12.742 6.687 6.687 0 01-4.658-6.371z" fill="#E30613"/><path d="M28.156 30.805a.732.732 0 00.732-.732v-6.908l2.207 2.558a.73.73 0 001.033.076.732.732 0 00.076-1.033l-3.494-4.05a.732.732 0 00-1.109 0l-3.493 4.05a.733.733 0 001.109.957l2.206-2.558v6.908c0 .404.328.732.733.732zm-4.523 5.082c0 .404.328.732.732.732h7.578a.732.732 0 100-1.465h-7.578a.732.732 0 00-.732.733zM45.089 9.26l-2.928 2.927-2.079-2.079a.732.732 0 00-1.035 1.036l2.596 2.597a.731.731 0 001.036 0l3.446-3.446a.732.732 0 10-1.036-1.036z" fill="#000"/><path d="M42.583 3.916c-3.715 0-6.8 2.746-7.334 6.314h-22.12c-.76 0-1.38.62-1.38 1.38v11.708L9.403 20.97a1.287 1.287 0 00-1.818 0L4.55 24.008a.732.732 0 101.035 1.036l.485-.485 2.222 2.223c.032.031.065.068.101.107.242.261.607.657 1.142.674h7.832a.745.745 0 010 1.488h-2.252a.732.732 0 00-.518 1.25l7.457 7.457c.293.294.318.767.055 1.055a.74.74 0 01-.534.245.73.73 0 01-.543-.218h-.001l-5.846-5.846a.732.732 0 10-1.036 1.035l7.975 7.976c.293.293.317.766.055 1.054a.739.739 0 01-.534.244.74.74 0 01-.544-.217l-1.392-1.392-6.612-6.612a.732.732 0 10-1.036 1.035l6.613 6.613.017.019a.74.74 0 01-.044 1.058c-.29.263-.762.238-1.055-.054l-6.583-6.583a.732.732 0 10-1.036 1.035l5.15 5.15v.001a.738.738 0 01.218.544.74.74 0 01-.244.534c-.289.262-.762.238-1.055-.055l-8.253-8.253a5.146 5.146 0 01-1.513-3.58 1.808 1.808 0 00-.538-1.256l-2.2-2.2 1.63-1.63a.732.732 0 10-1.035-1.035L.376 28.18a1.287 1.287 0 000 1.818l2.326 2.326a.357.357 0 01.109.242 6.603 6.603 0 001.943 4.594l8.252 8.253c.445.445 1.027.67 1.605.67.529 0 1.055-.188 1.472-.568a2.21 2.21 0 00.513-.69c.854.815 2.177.846 3.037.064.218-.2.392-.434.514-.692a2.22 2.22 0 001.533.57 2.191 2.191 0 002.098-1.73h19.399c.76 0 1.38-.62 1.38-1.38V36.62a.732.732 0 00-1.465 0v4.953h-19.5a2.292 2.292 0 00-.432-.605l-.657-.657a2.21 2.21 0 00.69-.512c.794-.873.75-2.225-.103-3.077l-6.207-6.207h.485a2.21 2.21 0 00-.001-4.418h-4.153V11.695h10.071v5.537c0 .761.62 1.38 1.38 1.38h6.976c.761 0 1.38-.619 1.38-1.38v-.925a.732.732 0 10-1.465 0v.84H24.75v-5.452h6.806v1.194a.732.732 0 101.465 0v-1.194h2.155c.19 3.922 3.44 7.054 7.407 7.054.172 0 .34-.008.51-.019v14.471a.732.732 0 101.464 0v-14.72C47.691 17.614 50 14.739 50 11.333c0-4.09-3.327-7.417-7.417-7.417zM11.75 26.097H9.67c-.059-.05-.144-.143-.2-.203a5.611 5.611 0 00-.141-.15l-2.222-2.221 1.388-1.389 2.222 2.223c.032.031.066.068.102.107.208.226.51.55.931.646v.987zm30.834-8.812a5.959 5.959 0 01-5.952-5.952 5.959 5.959 0 015.952-5.952 5.959 5.959 0 015.952 5.952 5.959 5.959 0 01-5.952 5.952z" fill="#000"/></g><defs><clipPath id="clip0"><path fill="#fff" d="M0 0h50v50H0z"/></clipPath></defs></svg>