<svg width="20" height="20" fill="none" xmlns="http://www.w3.org/2000/svg"><path d="M5.625 2.5A1.885 1.885 0 003.75 4.375V10H5V4.375c0-.352.273-.625.625-.625h5.625V7.5H15V10h1.25V6.616L12.134 2.5H5.625zM12.5 4.634l1.616 1.616H12.5V4.634zM3.75 11.25v6.25h1.875A1.884 1.884 0 007.5 15.625v-2.5a1.884 1.884 0 00-1.875-1.875H3.75zm6.875 0a1.884 1.884 0 00-1.875 1.875v2.5c0 1.028.847 1.875 1.875 1.875a1.884 1.884 0 001.875-1.875v-2.5a1.884 1.884 0 00-1.875-1.875zm5 0a1.884 1.884 0 00-1.875 1.875v2.5c0 1.028.847 1.875 1.875 1.875a1.884 1.884 0 001.875-1.875h-1.25a.617.617 0 01-.625.625.617.617 0 01-.625-.625v-2.5c0-.352.273-.625.625-.625s.625.273.625.625h1.25a1.884 1.884 0 00-1.875-1.875zM5 12.5h.625c.352 0 .625.273.625.625v2.5a.617.617 0 01-.625.625H5V12.5zm5.625 0c.352 0 .625.273.625.625v2.5a.617.617 0 01-.625.625.617.617 0 01-.625-.625v-2.5c0-.352.273-.625.625-.625z" fill="#94A5B7"/></svg>