<svg width="20" height="20" fill="none" xmlns="http://www.w3.org/2000/svg"><path d="M5.625 2.5A1.885 1.885 0 003.75 4.375V10H5V4.375c0-.352.273-.625.625-.625h5.625V7.5H15V10h1.25V6.616L12.134 2.5H5.625zM12.5 4.634l1.616 1.616H12.5V4.634zM3.75 11.25v6.25H5V15h.625A1.884 1.884 0 007.5 13.125a1.884 1.884 0 00-1.875-1.875H3.75zm5 0v6.25h1.875a1.884 1.884 0 001.875-1.875v-2.5a1.884 1.884 0 00-1.875-1.875H8.75zm5 0v6.25H15V15h1.25v-1.25H15V12.5h2.5v-1.25h-3.75zM5 12.5h.625c.352 0 .625.273.625.625a.617.617 0 01-.625.625H5V12.5zm5 0h.625c.352 0 .625.273.625.625v2.5a.617.617 0 01-.625.625H10V12.5z" fill="#94A5B7"/></svg>