<svg width="20" height="20" fill="none" xmlns="http://www.w3.org/2000/svg"><path d="M5.625 2.5c-1.03 0-1.875.845-1.875 1.875V10H5V4.375c0-.352.273-.625.625-.625h5.625V7.5H15V10h1.25V6.616L12.134 2.5H5.625zM12.5 4.634l1.616 1.616H12.5V4.634zM3.75 11.25L5 14.375 3.75 17.5H5l.625-1.563.625 1.563H7.5l-1.25-3.125L7.5 11.25H6.25l-.625 1.563L5 11.25H3.75zm5 0v6.25h2.5v-1.25H10v-5H8.75zm5.65 0c-.738 0-1.168.298-1.402.547-.513.556-.474 1.294-.474 1.328 0 1.01.923 1.465 1.592 1.797.532.268.908.469.908.713 0 .005-.01.303-.175.473-.034.035-.142.142-.45.142h-1.757c.073.24.19.503.42.737.229.235.654.513 1.337.513.689 0 1.109-.283 1.343-.518.532-.542.532-1.284.532-1.357 0-1.025-.927-1.484-1.601-1.821-.523-.26-.894-.464-.899-.718 0-.005-.004-.283.147-.44.088-.097.254-.146.478-.146h1.773c-.215-.63-.752-1.25-1.773-1.25z" fill="#94A5B7"/></svg>