<svg width="16" height="16" fill="none" xmlns="http://www.w3.org/2000/svg"><path d="M4.88.609C2.44.609.437 2.612.437 5.056v6.23c0 2.442 2.002 4.448 4.445 4.448h6.227c2.44 0 4.445-2.004 4.445-4.447v-6.23c0-2.442-2.003-4.448-4.445-4.448H4.881zm0 1.375h6.228a3.067 3.067 0 013.07 3.072v6.23c0 1.7-1.371 3.073-3.07 3.073H4.881c-1.7 0-3.07-1.372-3.07-3.072v-6.23c0-1.7 1.37-3.073 3.07-3.073zm7.173 1.504a.62.62 0 00-.623.623.62.62 0 00.623.623.62.62 0 00.622-.623.62.62 0 00-.622-.623zm-4.059.558a4.135 4.135 0 00-4.122 4.125 4.135 4.135 0 004.122 4.125 4.135 4.135 0 004.123-4.125 4.135 4.135 0 00-4.123-4.125zm0 1.375a2.737 2.737 0 012.749 2.75 2.737 2.737 0 01-2.749 2.75 2.737 2.737 0 01-2.748-2.75 2.737 2.737 0 012.748-2.75z" fill="#000"/></svg>