<svg width="156" height="53" fill="none" xmlns="http://www.w3.org/2000/svg"><path d="M54.1 49.594c-.12-.121-.12-.243-.12-.486.12-.485.484-.728 1.09-.728h.847l-.485 1.214h-.847c-.121.122-.363 0-.484 0zm-.846 2.43l1.452-1.58h.605l-.484 1.58h1.09l1.452-4.494h-2.058c-.605 0-1.21.121-1.573.364s-.605.607-.727 1.215c-.12.607.121.971.606 1.214l-1.695 1.7h1.332zm-5.448 0l2.905-3.037-.968 3.036h1.09l1.452-4.493h-1.21l-2.906 3.036.969-3.036h-1.09l-1.452 4.493h1.21zm-5.568 0l.605-1.944h1.816l-.605 1.943h1.09l1.452-4.493h-1.09l-.605 1.7h-1.937l.605-1.7H42.48l-1.453 4.493h1.21zm-4.963-1.215c.12-.486.726-.729 2.058-.729h.12l-.12.243c-.121.364-.242.607-.606.729-.242.243-.605.243-.847.243-.363.121-.605-.122-.605-.486zm1.694.729c0 .243-.12.364-.12.485h.968c0-.242.12-.607.242-.971l.605-1.822c0-.121.121-.243.121-.364 0-.365 0-.608-.12-.85-.122-.243-.364-.365-.606-.486-.242-.122-.484-.122-.847-.122-.727 0-1.332.243-1.937.608l.242.728c.484-.243.968-.486 1.331-.486.606 0 .848.243.727.608 0 .121 0 .242-.121.242-2.18 0-3.269.608-3.51 1.7-.122.365 0 .73.241.851.242.243.606.243.969.243.968.243 1.452.121 1.815-.364zm-7.142.485l1.211-3.643h1.816l-1.21 3.643h1.089l1.452-4.493h-3.994l-1.453 4.493h1.09zm-7.02 0l1.089-3.279.242 3.28h.605l2.543-3.28-1.09 3.28h1.09l1.452-4.494h-1.574l-2.3 3.036-.12-2.915H25.29l-1.453 4.494h.969v-.122zm-4.963-1.093c-.122-.243-.243-.486-.122-.85.121-.486.243-.85.606-1.214.363-.365.726-.486 1.21-.486.363 0 .605.121.727.364.12.243.242.486.12.85-.12.486-.242.85-.605 1.215-.363.364-.726.486-1.21.486-.363 0-.605-.122-.727-.365zm2.663.486c.605-.486.968-1.214 1.09-1.943.12-.607 0-1.093-.364-1.457-.363-.365-.847-.486-1.453-.486-.847 0-1.452.243-2.058.85-.605.486-.968 1.214-1.089 1.943-.121.607 0 1.093.363 1.458.363.364.848.485 1.453.485.726-.121 1.452-.364 2.058-.85zm-8.11.607l.726-2.186 1.21 2.186h1.332l-1.332-2.307 2.784-2.186h-1.452l-2.421 1.943.605-1.943h-1.09l-1.452 4.493h1.09zM75.526 40c-.121-.122-.121-.243-.121-.486.12-.486.484-.729 1.089-.729h.847L76.857 40h-.847c-.242.121-.363 0-.484 0zm-.969 2.55l1.453-1.579h.605l-.484 1.58h1.09l1.452-4.495h-2.058c-.605 0-1.21.122-1.574.365-.363.243-.605.607-.726 1.214-.12.608.121.972.605 1.215l-1.694 1.7h1.331zm-4.842-1.336c.121-.486.727-.729 2.058-.729h.121l-.12.243c-.122.365-.243.608-.606.729-.242.243-.606.243-.848.243-.363.121-.605-.122-.605-.486zm1.695.729c0 .243-.121.364-.121.486h.968c0-.243.121-.608.242-.972l.606-1.822c0-.121.12-.243.12-.364 0-.364 0-.607-.12-.85-.121-.243-.364-.365-.606-.486-.242-.122-.484-.122-.847-.122-.726 0-1.332.243-1.937.608l.242.728c.485-.242.969-.485 1.332-.485.605 0 .847.242.726.607 0 .121 0 .243-.12.243-2.18 0-3.27.607-3.511 1.7-.121.364 0 .729.242.85.242.243.605.243.968.243.969.243 1.453.122 1.816-.364zm-7.142.607l.605-1.943h1.816l-.605 1.943h1.09l1.452-4.494h-1.09l-.605 1.7h-1.937l.606-1.7h-1.09l-1.453 4.494h1.21zm-3.39 0l1.211-3.643h1.453l.242-.85H59.91l-.242.85h1.453l-1.21 3.643h.968zm-5.931-1.093c-.121-.243-.242-.486-.121-.85.121-.486.242-.85.605-1.215.363-.364.727-.486 1.21-.486.364 0 .606.122.727.365s.242.486.121.85c-.121.486-.242.972-.605 1.215-.363.364-.727.485-1.21.485l-.727-.364zm-1.574 3.28l.969-2.916c.242.608.726.85 1.452.85.727 0 1.332-.242 1.937-.85.605-.485.847-1.214.969-1.943.12-.607 0-1.093-.242-1.457-.243-.365-.727-.486-1.332-.486-.726 0-1.332.243-1.695.85l.242-.729h-1.09l-2.3 6.68h1.09zm-4.236-3.401c-.121-.243-.243-.486-.121-.85.12-.486.242-.85.605-1.215.363-.364.726-.486 1.21-.486.363 0 .605.122.727.364.12.243.242.486.12.85-.12.486-.241.85-.605 1.215-.363.364-.726.486-1.21.486-.242 0-.605-.122-.727-.364zm2.663.485c.605-.485.968-1.214 1.09-1.943.12-.607 0-1.093-.364-1.457-.363-.365-.847-.486-1.453-.486-.847 0-1.452.243-2.057.85-.606.486-.969 1.215-1.09 1.943-.121.608 0 1.093.363 1.458.363.364.847.607 1.453.607.726-.121 1.452-.486 2.058-.972zm-8.595.73l1.21-3.645h1.816l-1.21 3.644h1.09l1.452-4.494h-3.995l-1.452 4.494h1.09zm-1.574-.73l-.484-.607c-.363.364-.726.486-1.21.486-.363 0-.606-.122-.848-.364-.12-.243-.242-.486-.12-.85.12-.486.241-.85.605-1.215.363-.364.726-.486 1.21-.486.242 0 .363 0 .484.122l.363.364.848-.607c-.242-.486-.727-.73-1.574-.73-.847 0-1.453.244-2.058.851-.605.607-.968 1.215-1.09 1.943-.12.608 0 1.093.364 1.458.363.364.847.486 1.453.486.726 0 1.452-.365 2.057-.85zm-8.473.73l.605-1.944h1.816l-.605 1.943h1.09l1.452-4.494h-1.09l-.605 1.7h-1.816l.605-1.7h-1.089l-1.453 4.494h1.09zm-4.963-1.337c.12-.486.726-.729 2.058-.729h.12l-.12.243c-.121.365-.242.608-.606.729-.242.243-.605.243-.847.243-.363.121-.605-.122-.605-.486zm1.695.729c0 .243-.122.364-.122.486h.969c0-.243.12-.608.242-.972l.605-1.822c0-.121.121-.243.121-.364 0-.364 0-.607-.12-.85-.122-.243-.364-.365-.606-.486-.242-.122-.484-.122-.847-.122-.727 0-1.332.243-1.937.608l.242.728c.484-.242.968-.485 1.331-.485.606 0 .848.242.727.607 0 .121 0 .243-.121.243-2.18 0-3.269.607-3.51 1.7-.122.364 0 .729.241.85.242.243.605.243.969.243.968.243 1.452.122 1.816-.364zm-6.78-.486c-.12-.243-.241-.486-.12-.85.12-.486.242-.85.605-1.215.363-.364.726-.486 1.21-.486.364 0 .606.122.727.365.12.243.242.486.12.85-.12.486-.241.972-.605 1.215-.363.364-.726.485-1.21.485-.363-.121-.605-.242-.726-.364zm-1.573 3.28l.968-2.916c.242.608.727.85 1.453.85.726 0 1.332-.242 1.937-.85.605-.485.847-1.214.968-1.943.121-.607 0-1.093-.242-1.457-.242-.365-.726-.486-1.331-.486-.727 0-1.332.243-1.695.85l.242-.729h-1.09l-2.3 6.68h1.09zm-2.663-2.187l1.21-3.643h1.453l.242-.85h-3.874l-.242.85h1.453l-1.21 3.643h.968z" fill="#000"/><path d="M85.331 30.77l4.116-12.389h-4.358l1.574-4.736h14.163l-1.574 4.736h-4.237L90.9 30.77h-5.568zm22.759-6.8a3.311 3.311 0 01-.969 1.943c-.484.485-1.21.85-1.937.85-.605 0-1.089-.122-1.331-.486s-.363-.729-.242-1.336c.121-.729.484-1.457.968-1.943s1.211-.85 1.937-.85c.605 0 1.089.121 1.331.486.243.364.364.728.243 1.335zm4.599-4.737c-.726-.972-1.936-1.579-3.631-1.579-1.453 0-2.784.607-3.874 1.7l.484-1.336h-5.084L94.411 36.6h5.447l2.3-6.8c.242.363.605.728 1.211.97a4.84 4.84 0 001.815.365c2.058 0 3.874-.729 5.448-2.307 1.573-1.58 2.542-3.401 2.905-5.587.242-1.7 0-2.915-.848-4.008zm8.959 6.314l-.121.364c-.242.486-.484.972-.968 1.336a2.322 2.322 0 01-1.453.486c-.726 0-1.089-.243-.968-.85.121-.85 1.21-1.336 3.147-1.336h.363zm4.721-6.801c-.847-.729-2.3-1.215-4.115-1.215-.969 0-2.058.243-3.269.608-1.21.364-2.179.971-3.026 1.7l1.937 2.672c.968-.729 1.937-1.093 3.026-1.093.484 0 .847.121 1.089.243.243.121.364.364.243.728 0 .122 0 .243-.121.243-5.448 0-8.474 1.7-8.958 4.98-.121 1.093.121 1.943.726 2.55.726.607 1.453.85 2.542.85 1.453 0 2.784-.486 3.874-1.457-.121.364-.121.85-.242 1.214h4.6c.121-.607.242-1.335.484-1.943l1.573-4.736c.243-.73.364-1.458.485-2.065.363-1.336 0-2.43-.848-3.28zm8.11 12.024l1.573-4.616h-2.663l-1.574 4.615h-5.447l4.237-12.752h5.447l-1.331 4.13h2.663l1.331-4.13h5.448l-4.237 12.752h-5.447zm19.247-1.215l-1.574-3.644c-.605.486-1.21.73-1.937.73a2 2 0 01-1.452-.608c-.242-.364-.364-.85-.364-1.336.122-.729.485-1.457 1.09-1.943.605-.486 1.21-.85 2.058-.85.726 0 1.331.242 1.452.728l3.632-3.4c-.726-1.093-2.3-1.7-4.479-1.7-2.3 0-4.237.728-6.052 2.307-1.695 1.579-2.785 3.4-3.027 5.587-.242 1.7.121 3.157 1.09 4.129.968 1.093 2.421 1.579 4.358 1.579 1.936 0 3.631-.486 5.205-1.58z" fill="#1D327B"/><path d="M35.944 30.77l3.51-9.96h-.12l-6.658 9.96h-3.874v-9.96h-.12l-3.027 9.96H20.45l5.69-17.125h7.141v9.352h.121l5.932-9.352h7.868l-5.81 17.124h-5.448zm18.521-8.26c0 .122 0 .243-.121.243h-3.995c.121-.364.485-.728.969-1.093.484-.364.968-.485 1.573-.485.485 0 .969.121 1.21.364.364.243.364.486.364.972zm3.632-3.4c-.969-.972-2.3-1.457-4.237-1.457-2.3 0-4.358.728-6.053 2.186-1.694 1.457-2.784 3.279-3.147 5.465-.242 1.822.121 3.28 1.21 4.25 1.09.972 2.664 1.458 4.6 1.458 2.663 0 4.842-.729 6.658-2.307l-3.268-2.55c-.727.606-1.453.85-2.3.85-.484 0-.969-.122-1.332-.365-.363-.243-.605-.607-.484-1.093v-.122h8.716a7.342 7.342 0 00.726-2.307c.121-1.579-.242-2.915-1.09-4.008zm-.121 11.66l4.236-12.753h9.684l-1.331 4.008h-4.237l-2.905 8.745h-5.447zm20.213-5.223l-.121.364c-.121.486-.484.972-.969 1.336a2.321 2.321 0 01-1.452.486c-.727 0-1.09-.243-.969-.85.121-.85 1.21-1.336 3.148-1.336h.363zm4.72-6.801c-.847-.729-2.3-1.215-4.115-1.215-.968 0-2.058.243-3.268.608-1.21.364-2.18.971-3.027 1.7l1.937 2.672c.969-.729 1.937-1.093 3.026-1.093.485 0 .848.121 1.09.243.242.121.363.364.242.728 0 .122 0 .243-.121.243-5.447 0-8.474 1.7-8.958 4.98-.12 1.093.121 1.943.727 2.55.726.607 1.452.85 2.542.85 1.452 0 2.784-.486 3.873-1.457-.12.364-.12.85-.242 1.214h4.6c.121-.607.242-1.335.484-1.943l1.574-4.736c.242-.73.363-1.458.484-2.065.363-1.336 0-2.43-.847-3.28z" fill="#000"/><path d="M21.66 7.815L16.453.649l-3.026 9.595H3.26l5.205 7.166h10.168l3.026-9.595z" fill="#1D327B"/><path d="M8.465 17.41L.112 20.082l8.232 5.95-3.148 9.717 8.353-2.794 3.147-9.594-8.231-5.951z" fill="#E30613"/></svg>