<svg width="13" height="14" fill="none" xmlns="http://www.w3.org/2000/svg"><path d="M2.371.652L.797 2.226a2.697 2.697 0 00-.434 3.262c.688 1.18 1.25 2.05 3.606 4.402 2.351 2.356 2.992 2.676 4.152 3.356a2.69 2.69 0 003.258-.434l1.578-1.574L9.91 8.195 8.672 9.433a5.178 5.178 0 01-.629-.348 11.163 11.163 0 01-1.809-1.46 13.74 13.74 0 01-1.593-1.946 6.93 6.93 0 01-.446-.742l-.008-.016 1.227-1.226L2.371.652zm0 1.414L4 3.695l-.715.719a.53.53 0 00-.16.406c0 .09.016.152.031.21.035.122.082.227.14.352.122.243.298.532.516.86a15.051 15.051 0 001.711 2.093 12.08 12.08 0 001.985 1.59c.297.192.558.336.781.434.113.05.215.09.336.113.059.012.125.02.215.012a.534.534 0 00.355-.16l.715-.715 1.633 1.629-.871.87a1.692 1.692 0 01-2.047.274c-1.18-.691-1.629-.875-3.953-3.195-2.32-2.324-2.766-3.039-3.445-4.203A1.692 1.692 0 011.5 2.937l.871-.871z" fill="#1D327B"/></svg>