<svg width="17" height="11" fill="none" xmlns="http://www.w3.org/2000/svg"><path d="M8.014.611c-.894-.01-1.655 0-2.083.22-.285.146-.503.476-.37.491.166.025.542.11.741.395.257.366.248 1.191.248 1.191s.142 2.272-.348 2.557c-.337.196-.798-.2-1.797-2.006a17.559 17.559 0 01-.893-1.957s-.072-.19-.205-.29c-.161-.125-.385-.165-.385-.165L.54 1.062s-.356.015-.485.175c-.118.15-.01.445-.01.445s1.865 4.589 3.975 6.9c1.935 2.123 4.132 1.982 4.132 1.982h.998s.3-.034.452-.205c.142-.16.137-.46.137-.46s-.019-1.406.6-1.616c.613-.2 1.393 1.36 2.224 1.961.633.456 1.113.356 1.113.356l2.225-.035s1.16-.075.608-1.041c-.043-.075-.318-.71-1.65-2.012-1.397-1.361-1.212-1.14.471-3.498 1.022-1.436 1.431-2.312 1.303-2.692-.124-.355-.875-.26-.875-.26l-2.505.015s-.186-.025-.323.06c-.134.085-.22.285-.22.285s-.399 1.111-.926 2.057C10.67 5.47 10.22 5.58 10.039 5.455c-.423-.29-.319-1.16-.319-1.776 0-1.937.281-2.737-.541-2.948-.271-.07-.471-.115-1.165-.12z" fill="#000"/></svg>