<svg width="50" height="50" fill="none" xmlns="http://www.w3.org/2000/svg"><g clip-path="url(#clip0)"><path d="M30.48 16.23l-7.143 5.815 11.013 15.22 14.764-10.48-9.554-12.982-4.951 3.79-4.13-1.364z" fill="#D9D9D9"/><path d="M47.24 30.36l2.026-1.606V4.488L34.67 13.856 47.24 30.36z" fill="#E30613"/><path d="M44.495 26.757l2.745 3.603 2.026-1.606v-5.14l-4.77 3.143z" fill="#E30613"/><path d="M40.826 34.302l-15.808-8.616 2.248-4.124 15.808 8.616a2.348 2.348 0 01-2.248 4.124z" fill="#fff"/><path d="M42.313 32.815L33.7 28.12l-1.014 1.745 8.141 4.437a2.348 2.348 0 003.352-1.321 2.341 2.341 0 01-1.865-.166z" fill="#D9D9D9"/><path d="M37.204 37.676L21.396 29.06l2.247-4.124 15.809 8.617a2.348 2.348 0 11-2.248 4.123z" fill="#fff"/><path d="M38.46 36.295l-7.223-3.938-.912 1.57 6.88 3.75a2.348 2.348 0 003.345-1.304 2.344 2.344 0 01-2.09-.078z" fill="#D9D9D9"/><path d="M33.581 41.051l-15.808-8.616 2.248-4.124 15.808 8.616a2.348 2.348 0 11-2.248 4.124z" fill="#fff"/><path d="M34.876 39.756l-6.03-3.286-.882 1.52 5.617 3.061a2.348 2.348 0 003.3-1.18 2.343 2.343 0 01-2.005-.115z" fill="#D9D9D9"/><path d="M29.959 44.426l-15.808-8.617 2.248-4.123 15.808 8.616a2.348 2.348 0 01-2.248 4.124z" fill="#fff"/><path d="M31.374 43.01l-4.806-2.62-.965 1.661 4.356 2.375a2.348 2.348 0 003.334-1.268 2.34 2.34 0 01-1.919-.148z" fill="#D9D9D9"/><path d="M19.165 18.15l8.1 3.412-8.99 16.495L2.3 29.537l7.827-14.09 5.393 3.13 3.645-.426z" fill="#fff"/><path d="M1.223 30.887l3.389 1.957 10.373-17.966-3.39-1.957L1.223 30.887z" fill="#F4F6F7"/><path d="M12.538 13.465L.734 6.65v23.956l1.431.826 10.373-17.967z" fill="#1D327B"/><path d="M1.222 30.888l3.39 1.957 2.52-4.365-3.406-1.928-2.504 4.336z" fill="#EAECEE"/><path d="M.734 30.606l1.431.826 2.508-4.344-3.94-2.23v5.748z" fill="#1D327B"/><path d="M17.181 29.315a2.348 2.348 0 00-3.239-.472l-5.191 3.756a2.348 2.348 0 102.753 3.805l5.191-3.756a2.348 2.348 0 00.486-3.333z" fill="#D9D9D9"/><path d="M17.181 29.315a2.336 2.336 0 00-.99-.75c.39.974.089 2.128-.804 2.774l-5.192 3.757a2.346 2.346 0 01-2.249.277 2.35 2.35 0 003.558 1.03l5.191-3.755a2.348 2.348 0 00.486-3.333z" fill="#D9D9D9"/><path d="M16.804 32.57l-3.989 2.885c-1.067.772-1.334 2.295-.542 3.347a2.348 2.348 0 003.252.49l4.032-2.918a2.348 2.348 0 00-2.753-3.805z" fill="#D9D9D9"/><path d="M20.043 33.041a2.336 2.336 0 00-.984-.747 2.349 2.349 0 01-.801 2.78l-4.032 2.918a2.347 2.347 0 01-2.25.277c.072.186.171.365.297.533a2.348 2.348 0 003.253.49l4.031-2.918a2.349 2.349 0 00.486-3.333z" fill="#D9D9D9"/><path d="M16.794 38.373a2.348 2.348 0 102.753 3.805L22.42 40.1a2.348 2.348 0 00-2.753-3.805l-2.872 2.078z" fill="#D9D9D9"/><path d="M22.905 36.768a2.338 2.338 0 00-1.082-.785 2.349 2.349 0 01-.838 2.684l-2.872 2.077a2.345 2.345 0 01-2.157.312 2.348 2.348 0 003.591 1.122l2.872-2.077a2.348 2.348 0 00.486-3.333z" fill="#D9D9D9"/><path d="M20.815 41.26a2.348 2.348 0 102.754 3.806l1.712-1.239a2.348 2.348 0 00-2.753-3.805l-1.713 1.239z" fill="#D9D9D9"/><path d="M25.767 40.494a2.338 2.338 0 00-1.014-.759c.376.97.073 2.11-.813 2.751l-1.712 1.239a2.345 2.345 0 01-2.226.286 2.348 2.348 0 003.567 1.054l1.712-1.238a2.348 2.348 0 00.486-3.333zM30.48 16.23l-3.915 6.262v6.262a3.131 3.131 0 11-6.262 0v-6.262l1.566-6.263h8.61z" fill="#D9D9D9"/><path d="M22.652 28.754v-6.262l1.565-6.263H21.87l-1.566 6.263v6.262a3.131 3.131 0 004.305 2.902 3.131 3.131 0 01-1.956-2.902z" fill="#D9D9D9"/><path d="M48.81 28.179l-1.44 1.141-11.635-15.276 6.652-4.27a.734.734 0 10-.793-1.234l-7.32 4.699a.741.741 0 00-.188 1.062l1.332 1.749-.947.725-3.761-1.242a.75.75 0 00-.23-.037h-8.611a.734.734 0 00-.712.555l-.485 1.939-1.223-.515a.734.734 0 00-.37-.053l-3.402.398-1.156-.67 1.1-1.905a.741.741 0 00-.269-1.002L1.101 6.014a.734.734 0 10-.734 1.271l11.169 6.449-9.64 16.696-.795-.46a.734.734 0 10-.734 1.271l3.878 2.24a.74.74 0 001.002-.27l.562-.971 1.583.844a3.08 3.08 0 003.69 4.348 3.01 3.01 0 00.605 1.811 3.086 3.086 0 002.47 1.222c.314 0 .63-.047.934-.144.008.613.197 1.229.583 1.762a3.062 3.062 0 002.503 1.276c.319 0 .633-.05.933-.146.01.628.21 1.237.585 1.757a3.062 3.062 0 002.504 1.276c.643 0 1.269-.201 1.8-.586l1.712-1.238c.37-.268.67-.607.885-.994l3.012 1.642a3.066 3.066 0 002.346.25 3.062 3.062 0 001.835-1.481 3.059 3.059 0 00.357-1.819 3.085 3.085 0 003.266-1.556c.314-.577.424-1.21.355-1.819a3.085 3.085 0 003.624-3.373 3.038 3.038 0 001.43-.075 3.062 3.062 0 001.836-1.482 3.062 3.062 0 00.032-2.89l1.288-.913.68.893a.741.741 0 001.04.13l2.025-1.606a.734.734 0 00-.912-1.15zM4.343 31.842l-1.175-.679 9.639-16.695 1.176.679-9.64 16.695zm4.476 3.606a1.617 1.617 0 01.362-2.255l5.191-3.756a1.608 1.608 0 012.227.325 1.63 1.63 0 01-.334 2.29l-5.191 3.757a1.616 1.616 0 01-2.255-.361zm4.04 2.912c-.543-.722-.334-1.79.386-2.31l3.88-2.808c.142-.094.272-.193.43-.26a1.602 1.602 0 011.906.506 1.63 1.63 0 01-.334 2.291l-4.032 2.918a1.622 1.622 0 01-2.235-.337zm5.056 3.51a1.616 1.616 0 01-.692-2.901l2.765-2.001.108-.078a1.607 1.607 0 012.227.325 1.63 1.63 0 01-.334 2.29l-2.872 2.079c-.35.253-.776.354-1.202.286zm7.587.287a1.601 1.601 0 01-.651 1.075l-1.713 1.24a1.63 1.63 0 01-2.254-.362 1.63 1.63 0 01.361-2.255l1.604-1.16.109-.078a1.624 1.624 0 012.227.324c.268.35.38.781.317 1.216zm17.866-9.144a1.63 1.63 0 01-2.19.645l-8.485-4.625a.734.734 0 00-.703 1.289l7.11 3.875a1.616 1.616 0 01.645 2.19 1.616 1.616 0 01-2.19.645L30.341 33.1a.734.734 0 10-.702 1.289l5.84 3.183c.78.427 1.07 1.409.644 2.19a1.63 1.63 0 01-2.19.645l-6.115-3.333a.734.734 0 00-.703 1.289l4.74 2.583a1.63 1.63 0 01.646 2.19 1.63 1.63 0 01-2.19.645l-3.326-1.812a3.053 3.053 0 00-.636-1.922 3.07 3.07 0 00-2.293-1.207 3.058 3.058 0 00-.57-2.52 3.07 3.07 0 00-2.291-1.206 3.058 3.058 0 00-.57-2.52 3.07 3.07 0 00-2.292-1.206c.013-.066.026-.131.036-.198a3.058 3.058 0 00-.606-2.322 3.067 3.067 0 00-4.251-.62l-5.121 3.705-1.848-.985 7.244-12.548 1.364.792a.73.73 0 00.454.094l3.453-.404 1.254.528-.72 2.884a.74.74 0 00-.023.178v6.262a3.87 3.87 0 003.865 3.865 3.87 3.87 0 003.865-3.865v-6.052l.134-.213 15.29 8.334a1.63 1.63 0 01.645 2.19zm.35-3.297a3.155 3.155 0 00-.293-.182l-15.213-8.292.565-.903a.734.734 0 00-1.245-.778l-1.589 2.542a.735.735 0 00-.111.389v6.262a2.4 2.4 0 01-2.398 2.397 2.4 2.4 0 01-2.397-2.397v-6.172l1.405-5.619h7.92l4.017 1.327a.74.74 0 00.676-.114l1.252-.958 8.78 11.526-1.37.971zM45.155 7.86a.731.731 0 00.396-.116l4.111-2.639a.734.734 0 00-.792-1.235l-4.112 2.64a.734.734 0 00.397 1.351z" fill="#787879"/></g><defs><clipPath id="clip0"><path fill="#fff" d="M0 0h50v50H0z"/></clipPath></defs></svg>