<svg width="44" height="50" fill="none" xmlns="http://www.w3.org/2000/svg"><path d="M43.522 41.008l-7.598-11.135c.916-.409 1.947-.875 2.485-1.804.535-.924.424-2.006.317-3.051-.071-.701-.139-1.363 0-1.88.128-.482.507-1.004.908-1.556.6-.826 1.28-1.761 1.28-2.871s-.68-2.046-1.28-2.871c-.4-.552-.78-1.074-.909-1.556-.138-.517-.07-1.179.001-1.88.107-1.046.218-2.127-.317-3.05-.543-.939-1.588-1.405-2.51-1.817-.636-.283-1.237-.551-1.604-.918-.367-.368-.635-.968-.918-1.604-.412-.922-.878-1.967-1.816-2.51-.925-.535-2.006-.424-3.052-.318-.7.072-1.362.14-1.879.001-.482-.129-1.004-.507-1.556-.908C24.248.68 23.313 0 22.203 0s-2.046.68-2.872 1.28c-.552.4-1.073.78-1.556.908-.516.139-1.178.07-1.879 0-1.046-.108-2.127-.218-3.051.317-.938.543-1.405 1.588-1.816 2.51-.284.636-.551 1.236-.919 1.603-.367.368-.967.635-1.603.919-.922.412-1.968.878-2.51 1.816-.535.924-.425 2.005-.318 3.051.072.701.14 1.363.001 1.88-.129.482-.507 1.003-.909 1.555-.6.826-1.28 1.762-1.28 2.872 0 1.11.68 2.046 1.28 2.871.401.552.78 1.074.91 1.556.137.517.07 1.179-.002 1.88-.107 1.045-.217 2.127.318 3.05.477.826 1.344 1.287 2.174 1.665L.478 41.008a1.77 1.77 0 00-.162 1.714 1.77 1.77 0 001.366 1.048l2.984.45h.001l2.064.312c.095.015.177.07.225.154l1.039 1.801 1.512 2.622a1.77 1.77 0 001.543.89c.589 0 1.134-.286 1.468-.775l8.288-12.146c.434.206.898.344 1.397.344.38 0 .74-.081 1.083-.21l8.197 12.011a1.769 1.769 0 001.536.775 1.77 1.77 0 001.474-.889l1.512-2.622 1.04-1.8a.313.313 0 01.225-.155l2.063-.311h.002l2.984-.451a1.77 1.77 0 001.365-1.048 1.77 1.77 0 00-.162-1.714zM4.431 42.704L1.9 42.32a.306.306 0 01-.242-.185.305.305 0 01.029-.302L9.51 30.37c.233.132.44.273.6.433.368.367.635.968.919 1.603l.17.379-6.768 9.919zm6.877 5.694a.303.303 0 01-.272.137.305.305 0 01-.26-.157L9.497 46.16l4.562-6.684a.732.732 0 00-1.21-.826l-4.164 6.101-.46-.798a1.77 1.77 0 00-1.276-.87l-.91-.138 5.976-8.758c.231.286.501.539.83.729.7.405 1.49.44 2.288.386l-.378.554a.733.733 0 001.21.825l1.043-1.527a2.92 2.92 0 01.767.078c.483.13 1.004.508 1.556.91l.227.163-8.25 12.092zm10.895-12.44c-.634 0-1.303-.487-2.01-1-.637-.463-1.294-.94-2.04-1.14a4.274 4.274 0 00-1.105-.13c-.433 0-.871.045-1.3.09-.852.086-1.656.168-2.17-.129-.527-.305-.86-1.05-1.211-1.84-.326-.729-.662-1.483-1.22-2.042-.56-.558-1.314-.895-2.043-1.22-.789-.352-1.534-.684-1.84-1.212-.297-.513-.214-1.317-.128-2.169.082-.801.167-1.63-.04-2.406-.2-.745-.678-1.403-1.14-2.039-.514-.708-1-1.376-1-2.01 0-.634.486-1.303 1-2.01.462-.637.94-1.294 1.14-2.04.207-.775.122-1.604.04-2.405-.087-.852-.169-1.656.129-2.17.305-.527 1.05-.86 1.84-1.211.728-.326 1.482-.662 2.041-1.22.559-.56.895-1.314 1.22-2.043.353-.789.685-1.534 1.213-1.84.513-.297 1.317-.214 2.168-.128.802.082 1.63.167 2.407-.04.745-.2 1.402-.677 2.038-1.14.708-.513 1.377-1 2.01-1 .635 0 1.303.487 2.011 1 .636.463 1.293.94 2.039 1.14.776.207 1.605.122 2.406.04.851-.086 1.655-.168 2.17.129.526.305.859 1.05 1.21 1.84.326.729.663 1.483 1.221 2.041.56.56 1.313.896 2.042 1.22.79.353 1.535.685 1.84 1.213.297.513.215 1.317.128 2.168-.082.802-.166 1.63.041 2.407.2.745.677 1.403 1.139 2.039.514.707 1 1.376 1 2.01 0 .634-.486 1.303-1 2.01-.462.636-.94 1.294-1.139 2.04-.207.775-.123 1.604-.04 2.405.086.852.168 1.656-.129 2.17-.305.527-1.05.86-1.84 1.211-.729.325-1.483.662-2.042 1.22-.558.56-.895 1.313-1.22 2.043-.352.789-.685 1.534-1.212 1.84-.513.297-1.318.214-2.169.127-.801-.081-1.63-.166-2.406.041-.745.2-1.403.677-2.039 1.14-.708.513-1.376 1-2.01 1zm11.021 12.42a.305.305 0 01-.26.157.303.303 0 01-.272-.137L24.573 36.5c.172-.119.339-.24.501-.358.552-.4 1.074-.78 1.556-.909a2.5 2.5 0 01.373-.063l7.5 10.991-1.279 2.217zm3.827-5.294a1.77 1.77 0 00-1.276.87l-.46.798-6.472-9.485c.94.09 1.891.128 2.717-.35.226-.13.424-.29.6-.47l5.801 8.5-.91.137zm5.29-.948a.306.306 0 01-.242.185l-2.53.383-6.53-9.57c.121-.243.231-.49.337-.728.284-.635.552-1.236.92-1.603.09-.091.196-.176.314-.257l7.702 11.288a.305.305 0 01.029.302z" fill="#787879"/><path d="M34.5 18.71c0-6.78-5.517-12.296-12.297-12.296S9.906 11.931 9.906 18.711s5.516 12.297 12.297 12.297c6.78 0 12.296-5.517 12.296-12.297zM22.202 29.544c-5.973 0-10.832-4.86-10.832-10.832 0-5.973 4.86-10.832 10.832-10.832s10.832 4.86 10.832 10.832c0 5.973-4.86 10.832-10.832 10.832z" fill="#787879"/><path d="M27.055 12.373a2.74 2.74 0 00-1.951.808l-4.828 4.827-.974-.975a2.741 2.741 0 00-1.951-.808c-.737 0-1.43.287-1.951.808a2.762 2.762 0 000 3.902l3.575 3.575c.348.348.81.54 1.301.54.492 0 .954-.192 1.301-.54l2.308-2.307a.732.732 0 10-1.036-1.036l-2.307 2.308a.384.384 0 01-.531 0l-3.575-3.576a1.296 1.296 0 01.915-2.209c.345 0 .67.135.915.38l1.41 1.41a.85.85 0 001.2 0l5.264-5.264c.244-.244.57-.378.915-.378a1.296 1.296 0 01.915 2.21l-2.72 2.717a.732.732 0 101.037 1.036l2.719-2.719a2.741 2.741 0 00.807-1.95 2.74 2.74 0 00-.807-1.951 2.74 2.74 0 00-1.951-.808z" fill="#E30613"/></svg>