<svg width="50" height="50" fill="none" xmlns="http://www.w3.org/2000/svg"><path d="M39.938 49.268H10.062V5.196c0-.471.382-.853.853-.853h28.17c.471 0 .853.382.853.853v44.072z" fill="#fff"/><path d="M39.086 4.343h-2.138c.47 0 .852.382.852.853v44.072h2.138V5.196a.852.852 0 00-.852-.853zm-20.421 36.8h12.67v8.125h-12.67v-8.125z" fill="#D9D9D9"/><path d="M29.198 41.143h2.137v8.125h-2.137v-8.125z" fill="#D9D9D9"/><path d="M10.062 15.801h13.453v21.437H10.062V15.8z" fill="#fff"/><path d="M21.513 15.801h2.002v21.437h-2.002V15.8zm-11.451 3.418h10.035v14.6H10.062v-14.6z" fill="#fff"/><path d="M18.083 19.219h2.014v14.6h-2.014v-14.6z" fill="#D9D9D9"/><path d="M25 .732h11.627v3.611H25V.733z" fill="#1D327B"/><path d="M34.49.732h2.137v3.611H34.49V.733z" fill="#1D327B"/><path d="M10.062 49.268H3.595V13.582c0-.776.63-1.404 1.405-1.404h5.062v37.09z" fill="#D9D9D9"/><path d="M7.996 12.178h2.066v37.09H7.996v-37.09z" fill="#E30613"/><path d="M46.405 49.268h-6.467v-37.09H45c.776 0 1.405.628 1.405 1.404v35.686z" fill="#D9D9D9"/><path d="M39.938 12.178h2.066v37.09h-2.066v-37.09z" fill="#E30613"/><path d="M14.312 8.592a.732.732 0 00-.733.733v1.817a.732.732 0 101.465 0V9.325a.732.732 0 00-.732-.733zm4.275 0a.732.732 0 00-.732.733v1.817a.732.732 0 101.464 0V9.325a.732.732 0 00-.732-.733zm4.275 0a.732.732 0 00-.732.733v1.817a.732.732 0 101.465 0V9.325a.732.732 0 00-.733-.733zm4.276 3.282a.732.732 0 00.732-.732V9.325a.732.732 0 10-1.465 0v1.817c0 .404.328.732.733.732zm4.275 0a.732.732 0 00.732-.732V9.325a.732.732 0 10-1.464 0v1.817c0 .404.328.732.732.732zm4.275 0a.732.732 0 00.733-.732V9.325a.732.732 0 10-1.465 0v1.817c0 .404.328.732.732.732zm-8.55 6.252a.732.732 0 00.732-.733v-1.817a.732.732 0 10-1.465 0v1.817c0 .405.328.733.733.733zm4.275 0a.732.732 0 00.732-.733v-1.817a.732.732 0 10-1.464 0v1.817c0 .405.328.733.732.733zm4.275 0a.732.732 0 00.733-.733v-1.817a.732.732 0 10-1.465 0v1.817c0 .405.328.733.732.733zm-8.55 6.251a.732.732 0 00.732-.732v-1.817a.732.732 0 10-1.465 0v1.817c0 .404.328.732.733.732zm4.275 0a.732.732 0 00.732-.732v-1.817a.732.732 0 10-1.464 0v1.817c0 .404.328.732.732.732zm4.275 0a.732.732 0 00.733-.732v-1.817a.732.732 0 10-1.465 0v1.817c0 .404.328.732.732.732zm-8.55 6.251a.732.732 0 00.732-.732v-1.817a.732.732 0 10-1.465 0v1.817c0 .404.328.732.733.732zm4.275 0a.732.732 0 00.732-.732v-1.817a.732.732 0 10-1.464 0v1.817c0 .404.328.732.732.732zm4.275 0a.732.732 0 00.733-.732v-1.817a.732.732 0 10-1.465 0v1.817c0 .404.328.732.732.732zm-8.55 6.252a.732.732 0 00.732-.733V34.33a.732.732 0 10-1.465 0v1.817c0 .405.328.733.733.733zm4.275 0a.732.732 0 00.732-.733V34.33a.732.732 0 10-1.464 0v1.817c0 .405.328.733.732.733zm4.275 0a.732.732 0 00.733-.733V34.33a.732.732 0 10-1.465 0v1.817c0 .405.328.733.732.733zM13.26 21.918a.732.732 0 00-.732.732v1.817a.732.732 0 101.465 0V22.65a.732.732 0 00-.732-.732zm3.639 0a.732.732 0 00-.733.732v1.817a.732.732 0 101.465 0V22.65a.732.732 0 00-.732-.732zM13.26 27.84a.732.732 0 00-.732.732v1.817a.732.732 0 101.465 0v-1.817a.732.732 0 00-.732-.733zm3.639 0a.732.732 0 00-.733.732v1.817a.732.732 0 101.465 0v-1.817a.732.732 0 00-.732-.733z" fill="#787879"/><path d="M49.268 48.535h-2.13V13.582A2.14 2.14 0 0045 11.445h-1.096V10.12a.733.733 0 000-1.435v-.039a.732.732 0 10-1.465 0v.04a.733.733 0 000 1.434v1.325H40.67v-6.25c0-.873-.71-1.584-1.584-1.584H37.36V.732A.732.732 0 0036.627 0h-6.56a.732.732 0 100 1.465h5.828V3.61H25.732V1.465h1.406a.732.732 0 100-1.465H25a.732.732 0 00-.732.732v2.879H10.914c-.873 0-1.585.71-1.585 1.585v6.25H7.561V10.12a.733.733 0 000-1.435v-.039a.732.732 0 10-1.465 0v.04a.733.733 0 000 1.434v1.325H5a2.14 2.14 0 00-2.137 2.137v26.692a.732.732 0 101.465 0V13.582c0-.37.301-.672.672-.672h4.33v35.625H4.328v-5.332a.732.732 0 10-1.465 0v5.332H.733a.732.732 0 100 1.465h48.535a.732.732 0 100-1.465zM10.794 19.952h8.57v13.135h-8.57V19.951zm0 18.018h12.721a.732.732 0 00.733-.732V23.292a.732.732 0 00-1.465 0v13.213H10.794v-1.953h9.303a.732.732 0 00.733-.732V19.219a.732.732 0 00-.733-.732h-9.303v-1.953h11.989v3.83a.732.732 0 101.465 0V15.8a.732.732 0 00-.733-.732h-12.72V5.196a.12.12 0 01.12-.12h28.17a.12.12 0 01.12.12v43.34h-7.137v-7.393a.732.732 0 00-.733-.733h-12.67a.732.732 0 00-.733.733v7.392h-7.138V37.97zm8.603 10.565v-6.66h11.206v6.66H19.397zm21.273 0V12.91H45c.37 0 .672.302.672.672v34.953H40.67z" fill="#787879"/></svg>