<svg width="50" height="50" fill="none" xmlns="http://www.w3.org/2000/svg"><g clip-path="url(#clip0)"><path d="M46.767 46.518c0 3.665-13.283 3.665-13.283 0a6.638 6.638 0 016.641-6.635 6.638 6.638 0 016.642 6.635z" fill="#E30613"/><path d="M40.125 39.883c-.68 0-1.337.103-1.955.293a6.639 6.639 0 014.687 6.342c0 1.468-2.132 2.347-4.687 2.64 3.824.436 8.597-.443 8.597-2.64a6.638 6.638 0 00-6.642-6.635zm3.321-5.92a3.32 3.32 0 00-3.32-3.317 3.32 3.32 0 00-3.322 3.317 3.32 3.32 0 003.321 3.318 3.32 3.32 0 003.32-3.318z" fill="#E30613"/><path d="M40.125 30.646c-.466 0-.91.096-1.313.27a3.318 3.318 0 010 6.095 3.32 3.32 0 004.634-3.048 3.32 3.32 0 00-3.32-3.317z" fill="#E30613"/><path d="M16.555 46.518c0 3.665-13.283 3.665-13.283 0a6.638 6.638 0 016.642-6.635 6.638 6.638 0 016.641 6.635z" fill="#D9D9D9"/><path d="M9.914 39.883c-.68 0-1.337.103-1.955.293a6.639 6.639 0 014.687 6.342c0 1.468-2.132 2.347-4.687 2.64 3.824.436 8.596-.443 8.596-2.64a6.638 6.638 0 00-6.641-6.635zm3.32-5.92a3.32 3.32 0 00-3.32-3.317 3.32 3.32 0 00-3.321 3.317 3.32 3.32 0 003.32 3.318 3.32 3.32 0 003.321-3.318z" fill="#D9D9D9"/><path d="M9.914 30.646c-.467 0-.911.096-1.314.27a3.318 3.318 0 010 6.095 3.32 3.32 0 004.634-3.048 3.32 3.32 0 00-3.32-3.317z" fill="#D9D9D9"/><path d="M31.66 16.606c0 3.664-13.282 3.664-13.282 0a6.638 6.638 0 016.641-6.636 6.639 6.639 0 016.642 6.636z" fill="#1D327B"/><path d="M25.02 9.97c-.681 0-1.337.103-1.956.293a6.639 6.639 0 014.687 6.342c0 1.468-2.132 2.348-4.687 2.64 3.824.437 8.597-.443 8.597-2.64a6.639 6.639 0 00-6.642-6.635zm3.32-5.92A3.32 3.32 0 0025.02.734a3.319 3.319 0 00-3.321 3.318 3.32 3.32 0 003.32 3.317 3.32 3.32 0 003.321-3.317z" fill="#1D327B"/><path d="M25.02.733c-.467 0-.911.097-1.314.27a3.318 3.318 0 010 6.095A3.32 3.32 0 0028.34 4.05 3.32 3.32 0 0025.02.734z" fill="#1D327B"/><path d="M40.125 39.15c-4.066 0-7.374 3.305-7.374 7.368 0 1.783 2.093 3.052 5.6 3.397a.733.733 0 10.143-1.46c-2.518-.247-4.277-1.043-4.277-1.936a5.912 5.912 0 015.908-5.903 5.912 5.912 0 015.908 5.903c0 .892-1.755 1.688-4.27 1.936a.733.733 0 10.145 1.459c3.554-.35 5.591-1.588 5.591-3.395 0-4.064-3.308-7.37-7.374-7.37zm0-1.136a4.057 4.057 0 004.054-4.05 4.057 4.057 0 00-4.054-4.051 4.057 4.057 0 00-4.053 4.05 4.057 4.057 0 004.053 4.051zm0-6.635a2.589 2.589 0 012.588 2.584 2.589 2.589 0 01-5.175 0 2.588 2.588 0 012.587-2.584zM9.914 39.15c-4.067 0-7.375 3.305-7.375 7.368 0 .826.443 1.973 2.556 2.75 1.283.472 2.994.732 4.819.732 1.823 0 3.535-.26 4.818-.732 2.113-.777 2.556-1.924 2.556-2.75 0-4.063-3.308-7.368-7.374-7.368zm0 9.384c-3.258 0-5.909-.904-5.909-2.016 0-3.254 2.65-5.902 5.909-5.902 3.257 0 5.908 2.648 5.908 5.902 0 1.112-2.65 2.016-5.908 2.016zm0-10.52a4.057 4.057 0 004.053-4.05 4.057 4.057 0 00-4.053-4.051 4.057 4.057 0 00-4.054 4.05 4.057 4.057 0 004.054 4.051zm0-6.635a2.589 2.589 0 012.587 2.584 2.589 2.589 0 01-5.175 0 2.589 2.589 0 012.588-2.584zM25.02 9.237c-4.067 0-7.375 3.306-7.375 7.369 0 1.783 2.096 3.053 5.606 3.396a.733.733 0 10.143-1.46c-2.522-.246-4.283-1.042-4.283-1.936 0-3.255 2.65-5.903 5.909-5.903 3.257 0 5.908 2.648 5.908 5.903 0 .89-1.75 1.685-4.257 1.935A.733.733 0 0026.817 20c3.544-.353 5.577-1.59 5.577-3.394 0-4.063-3.308-7.369-7.374-7.369zm0-1.135a4.057 4.057 0 004.053-4.051A4.057 4.057 0 0025.02 0a4.057 4.057 0 00-4.054 4.05 4.057 4.057 0 004.053 4.052zm0-6.636a2.59 2.59 0 012.587 2.585 2.589 2.589 0 01-5.175 0 2.59 2.59 0 012.588-2.585zm7 34.814l-6.266-5.14v-7.28a.733.733 0 10-1.466 0v7.291l-6.253 5.13a.732.732 0 10.93 1.133l6.063-4.973 6.063 4.973a.73.73 0 001.032-.102.733.733 0 00-.103-1.031z" fill="#787879"/></g><defs><clipPath id="clip0"><path fill="#fff" d="M0 0h50v50H0z"/></clipPath></defs></svg>