<svg width="50" height="50" fill="none" xmlns="http://www.w3.org/2000/svg"><path d="M9.252 28.924a2.93 2.93 0 00-1.44 2.521 2.933 2.933 0 002.93 2.93 2.934 2.934 0 002.762-1.953h7.59a2.933 2.933 0 012.93 2.93 2.933 2.933 0 01-2.93 2.93H9.375a4.888 4.888 0 00-4.883 4.882 4.888 4.888 0 004.883 4.883h9.766a.977.977 0 100-1.953H9.375a2.933 2.933 0 01-2.93-2.93 2.933 2.933 0 012.93-2.93h11.719a4.888 4.888 0 004.883-4.882 4.888 4.888 0 00-4.883-4.883h-7.59a2.944 2.944 0 00-1.272-1.545l7.459-12.238a10.695 10.695 0 001.793-5.944C21.484 4.82 16.665 0 10.742 0 4.82 0 0 4.819 0 10.742c0 2.126.62 4.18 1.794 5.944l7.458 12.238zm1.49 3.498a.978.978 0 010-1.953.978.978 0 010 1.953zm0-30.469c4.846 0 8.79 3.943 8.79 8.79a8.749 8.749 0 01-1.499 4.91l-7.29 11.963S3.436 15.63 3.428 15.619a8.749 8.749 0 01-1.476-4.877c0-4.846 3.943-8.789 8.79-8.789z" fill="#fff"/><path d="M10.742 15.625a4.888 4.888 0 004.883-4.883 4.888 4.888 0 00-4.883-4.883 4.888 4.888 0 00-4.883 4.883 4.888 4.888 0 004.883 4.883zm0-7.813a2.933 2.933 0 012.93 2.93 2.933 2.933 0 01-2.93 2.93 2.933 2.933 0 01-2.93-2.93 2.933 2.933 0 012.93-2.93zm28.516 8.398c-5.923 0-10.742 4.82-10.742 10.743 0 2.129.622 4.187 1.799 5.953l7.43 11.656a2.945 2.945 0 00-1.249 1.532H27.93a.977.977 0 100 1.953h8.566A2.934 2.934 0 0039.258 50a2.933 2.933 0 002.93-2.93 2.93 2.93 0 00-1.418-2.508l7.43-11.656a10.697 10.697 0 001.8-5.953c0-5.923-4.819-10.742-10.742-10.742zm0 31.837a.978.978 0 010-1.953.978.978 0 010 1.953zM46.57 31.83L39.258 43.3l-7.313-11.47a8.748 8.748 0 01-1.476-4.877c0-4.846 3.942-8.789 8.789-8.789 4.846 0 8.789 3.943 8.789 8.79 0 1.744-.51 3.43-1.476 4.876z" fill="#fff"/><path d="M39.258 22.07a4.888 4.888 0 00-4.883 4.883 4.888 4.888 0 004.883 4.883 4.888 4.888 0 004.883-4.883 4.888 4.888 0 00-4.883-4.883zm0 7.813a2.933 2.933 0 01-2.93-2.93 2.933 2.933 0 012.93-2.93 2.933 2.933 0 012.93 2.93 2.933 2.933 0 01-2.93 2.93zM23.536 48.047a.977.977 0 100-1.953.977.977 0 000 1.953z" fill="#fff"/></svg>