<svg width="50" height="50" fill="none" xmlns="http://www.w3.org/2000/svg"><path d="M2.928 49.261h31.515c1.209 0 2.189-.98 2.189-2.189V2.928c0-1.21-.98-2.19-2.19-2.19h-22.12c-.953 0-1.868.38-2.542 1.054l-7.988 7.44a3.596 3.596 0 00-1.054 2.544v35.296c0 1.21.98 2.19 2.19 2.19z" fill="#E8E8E8"/><path d="M34.442.739h-2.954c1.21 0 2.19.98 2.19 2.189v44.144c0 1.21-.98 2.19-2.19 2.19h2.954c1.21 0 2.19-.98 2.19-2.19V2.928c0-1.21-.98-2.19-2.19-2.19zM1.236 10.804h7.819a2.297 2.297 0 002.297-2.297V1.152" fill="#E8E8E8"/><path d="M45.356 41.085l-2.112 8.022a.23.23 0 01-.434 0l-2.113-8.022m0-24.805h4.66v24.805h-4.66V16.279z" fill="#1D327B"/><path d="M42.402 16.28h2.954v24.805h-2.954V16.279z" fill="#1D327B"/><path d="M40.697 16.675v-2.912a2.33 2.33 0 014.66 0v2.984" fill="#E8E8E8"/><path d="M43.026 11.434a2.32 2.32 0 00-1.477.528c.52.427.852 1.075.852 1.801v2.938l2.955.046v-2.984a2.33 2.33 0 00-2.33-2.33z" fill="#9E9E9E"/><path d="M8.377 26.432a1.067 1.067 0 100-2.133 1.067 1.067 0 000 2.133zm0 5.266a1.067 1.067 0 100-2.133 1.067 1.067 0 000 2.133zm0 5.267a1.067 1.067 0 100-2.133 1.067 1.067 0 000 2.133z" fill="#000"/><path d="M34.443 0h-22.12a4.306 4.306 0 00-3.056 1.26L1.29 8.692A4.306 4.306 0 000 11.775v11.389a.739.739 0 001.476 0V11.776c0-.079.004-.156.01-.233h7.568a3.039 3.039 0 003.035-3.036v-7.02c.077-.006.155-.01.233-.01h22.12c.8 0 1.45.65 1.45 1.45v44.145c0 .8-.65 1.451-1.45 1.451H2.928c-.8 0-1.451-.65-1.451-1.45V26.117a.738.738 0 10-1.477 0v20.954A2.931 2.931 0 002.928 50h31.515a2.931 2.931 0 002.928-2.928V2.928A2.931 2.931 0 0034.443 0zm-23.83 8.507a1.56 1.56 0 01-1.558 1.559h-7.01a2.98 2.98 0 01.26-.302l7.978-7.432a2.904 2.904 0 01.33-.288v6.463z" fill="#000"/><path d="M30.061 24.627H12.928a.738.738 0 100 1.477h17.133a.739.739 0 000-1.477zm0 5.266H12.928a.739.739 0 000 1.477h17.133a.739.739 0 000-1.477zm0 5.267H12.928a.738.738 0 100 1.477h17.133a.739.739 0 000-1.477zM16.482 17.3H7.74a.739.739 0 100 1.478h8.742a.739.739 0 100-1.477zm31.885-1.759h-2.272v-1.778a3.072 3.072 0 00-3.068-3.068 3.072 3.072 0 00-3.068 3.068v9.971a.738.738 0 101.477 0v-6.716h3.182v23.328h-3.182V26.688a.738.738 0 10-1.477 0V41.1a.731.731 0 00.02.156l.004.017 2.113 8.022c.005.019.01.038.017.056a.97.97 0 001.845-.056l2.113-8.022.003-.017a.57.57 0 00.018-.111.824.824 0 00.002-.045l.001-.015V17.018h1.534v10.66a.739.739 0 001.477 0V16.279a.738.738 0 00-.739-.738zm-6.931 0v-1.778a1.592 1.592 0 013.182 0v1.778h-3.182zm1.591 31.49l-1.371-5.208h2.743l-1.372 5.209z" fill="#000"/></svg>