<svg width="50" height="45" fill="none" xmlns="http://www.w3.org/2000/svg"><path d="M26.505 20.54l1.627 2.817a.732.732 0 101.269-.732l-1.627-2.817c-1.239-2.146-4.337-2.15-5.577 0l-.932 1.613-.203-.535a.733.733 0 00-1.37.521l.721 1.894a.732.732 0 00.733.47l2.022-.135a.732.732 0 10-.098-1.462l-.57.038.965-1.672c.676-1.17 2.364-1.171 3.04 0zm7.685 7.298a.733.733 0 00-.656-.8l-2.017-.2a.733.733 0 00-.748.447l-.78 1.87a.732.732 0 101.352.564l.195-.468.923 1.599c.675 1.17-.168 2.632-1.52 2.632h-3.253a.733.733 0 000 1.465h3.253c2.477 0 4.03-2.681 2.789-4.83l-.973-1.684.634.062a.732.732 0 00.802-.657zM20.661 36.44c.317.252.778.2 1.03-.116l1.264-1.584a.732.732 0 00.031-.871l-1.145-1.672a.732.732 0 00-1.209.829l.319.464-1.92.002h-.001c-1.352 0-2.195-1.462-1.52-2.632l1.623-2.819a.732.732 0 10-1.27-.73l-1.623 2.818c-1.238 2.15.314 4.828 2.79 4.828h.003l1.876-.002-.363.455a.733.733 0 00.115 1.03z" fill="#E30613"/><path d="M.733 15.7a.732.732 0 00.732-.733V11.04h47.07v23.116a.733.733 0 001.465 0V10.307c0-.747-.19-1.489-.549-2.145l-3.669-6.7A2.81 2.81 0 0043.316 0H6.684a2.81 2.81 0 00-2.466 1.461L.548 8.162A4.48 4.48 0 000 10.307v4.66c0 .405.328.733.733.733zM43.316 1.465c.492 0 .945.268 1.181.7l3.67 6.7c.122.225.215.464.277.71H31.52l-2.084-8.11h13.88zm-15.392 0l2.084 8.11H19.992l2.084-8.11h5.848zm-26.09 7.4l3.669-6.7c.236-.432.688-.7 1.18-.7h13.88l-2.083 8.11H1.556c.062-.246.155-.485.278-.71zm47.433 27.982a.732.732 0 00-.732.732v3.835a1.867 1.867 0 01-1.865 1.865H3.33a1.867 1.867 0 01-1.865-1.865V18.391a.733.733 0 00-1.465 0v23.023a3.334 3.334 0 003.33 3.33h43.34a3.334 3.334 0 003.33-3.33V37.58a.732.732 0 00-.733-.732z" fill="#000"/><path d="M37.785 13.284c-.878 0-1.592.714-1.592 1.591v4.29c0 .879.714 1.593 1.592 1.593h7.027c.878 0 1.592-.714 1.592-1.592v-4.29c0-.878-.714-1.592-1.592-1.592h-7.027zm7.154 1.591v4.29c0 .07-.057.128-.127.128h-7.027a.127.127 0 01-.127-.127v-4.29c0-.07.057-.127.127-.127h7.027c.07 0 .127.056.127.126z" fill="#000"/></svg>