<svg width="50" height="45" fill="none" xmlns="http://www.w3.org/2000/svg"><path d="M12.461 16.389a.783.783 0 00-.735 1.05l4.457 12.257a.773.773 0 00.827.51l21.389-2.516a.783.783 0 00.691-.778v-9.74a.783.783 0 00-.783-.783H12.461z" fill="#E8E6E8"/><path d="M41.44 19.52a3.131 3.131 0 100-6.262 3.131 3.131 0 000 6.262z" fill="#1D327B"/><path d="M39.874 43.788a2.348 2.348 0 100-4.697 2.348 2.348 0 000 4.697zm-28.965 0a2.348 2.348 0 100-4.697 2.348 2.348 0 000 4.697z" fill="#615260"/><path d="M48.353 13.073a2.35 2.35 0 01-1.434-2.164V9.573c0-3-2.312-5.617-5.31-5.707a5.48 5.48 0 00-5.65 5.478v1.565a2.35 2.35 0 01-1.432 2.164c-.578.244-.916.855-.916 1.483v1.05c0 .432.35.783.783.783h14.091c.432 0 .783-.35.783-.783v-1.05c0-.628-.337-1.239-.915-1.483z" fill="#1D327B"/><path d="M38.308 12.478V9.525c0-.955.346-1.84.949-2.426.34-.331.732-.572 1.166-.717 1.077-.36 1.8-1.324 1.8-2.401v-.057a5.252 5.252 0 00-.615-.058 5.48 5.48 0 00-5.648 5.477v1.566c0 .95-.563 1.767-1.374 2.137-.592.27-.975.859-.975 1.51v1.05c0 .432.35.783.783.783h14.091c.432 0 .783-.35.783-.783v-1.05c0-.177-.033-.35-.084-.516H39.87c-.863 0-1.563-.7-1.563-1.562z" fill="#1D327B"/><path d="M11.691 14.773H30.48a.732.732 0 000-1.465H11.691a.732.732 0 100 1.465z" fill="#000"/><path d="M39.874 38.358a3.086 3.086 0 00-2.992 2.349h-22.98a3.083 3.083 0 00-.92-1.546l3.225-5.933a3.865 3.865 0 001.163.038l22.08-2.598a3.082 3.082 0 002.722-3.06v-4.957a.733.733 0 00-1.465 0v4.957c0 .82-.614 1.51-1.427 1.605L17.2 31.811a2.39 2.39 0 01-2.535-1.563L6.867 8.806a3.876 3.876 0 00-3.631-2.543H.732a.732.732 0 000 1.464h2.504c1.005 0 1.911.635 2.255 1.58l7.797 21.442c.3.825.852 1.493 1.546 1.937l-3.139 5.774a3.084 3.084 0 00-3.867 2.979 3.084 3.084 0 003.081 3.081 3.086 3.086 0 002.992-2.348h22.98a3.086 3.086 0 002.993 2.348 3.084 3.084 0 003.08-3.08 3.084 3.084 0 00-3.08-3.082zm-28.965 4.697a1.618 1.618 0 01-1.616-1.616c0-.89.725-1.616 1.616-1.616.891 0 1.616.725 1.616 1.616 0 .891-.725 1.616-1.616 1.616zm28.965 0a1.618 1.618 0 01-1.616-1.616c0-.89.725-1.616 1.616-1.616.89 0 1.616.725 1.616 1.616 0 .891-.725 1.616-1.616 1.616zm8.764-30.657a1.614 1.614 0 01-.986-1.489V9.573c0-2.805-1.785-5.238-4.236-6.104.204-.343.322-.744.322-1.171A2.3 2.3 0 0041.44 0a2.3 2.3 0 00-2.298 2.298c0 .421.114.816.313 1.156a6.182 6.182 0 00-2.341 1.431 6.163 6.163 0 00-1.887 4.459v1.565c0 .65-.387 1.235-.986 1.49-.827.35-1.362 1.197-1.362 2.157v1.833c0 .405.328.732.732.732h4.035a3.87 3.87 0 003.794 3.132 3.87 3.87 0 003.793-3.132h4.035A.732.732 0 0050 16.39v-1.833c0-.96-.535-1.807-1.362-2.158zM41.44 1.465a.834.834 0 010 1.666.834.834 0 010-1.666zm0 17.323a2.402 2.402 0 01-2.284-1.667h4.568a2.403 2.403 0 01-2.284 1.667zm7.095-3.132H34.344v-1.1c0-.365.188-.69.468-.809a3.077 3.077 0 001.88-2.838V9.343a4.71 4.71 0 011.442-3.407 4.714 4.714 0 013.452-1.338c2.537.077 4.6 2.308 4.6 4.975v1.336c0 1.24.739 2.354 1.88 2.838.281.119.47.444.47.809v1.1z" fill="#000"/></svg>