<svg width="58" height="58" fill="none" xmlns="http://www.w3.org/2000/svg"><g filter="url(#filter0_d)"><path d="M53.243 35.313H4.863v3.456h48.38v-3.456z" fill="#E30613"/><path d="M53.243 45.68H4.863v3.456h48.38V45.68z" fill="#E8E8E8"/><path d="M33.374 38.769h-8.64v6.911h8.64v-6.91zm16.416 0h-6.91v6.911h6.911v-6.91zm-34.558 0H8.32v6.911h6.912v-6.91z" fill="#E30613"/><path d="M15.232 38.769H8.32v2.592h6.912v-2.592zm34.558 0h-6.91v2.592h6.911v-2.592zm-16.416 0h-8.64v2.592h8.64v-2.592z" fill="#E30613"/><path d="M51.516 31.857h-8.639v3.456h8.64v-3.456zm-12.093 0h-8.64v3.456h8.64v-3.456zm-12.098 0h-8.64v3.456h8.64v-3.456zm-12.094 0h-8.64v3.456h8.64v-3.456zM46.333.756H11.775v31.101h34.558V.756z" fill="#E8E8E8"/><path d="M14.367.756h-2.592v31.101h2.592V.756z" fill="#E8E8E8"/><path d="M32.51.756h-6.912V12.85h6.911V.756z" fill="#E30613"/><path d="M42.013 7.667H29.918v15.551h12.095V7.668z" fill="#EBEBEC"/><path d="M32.51 7.667h-2.592v15.551h2.592V7.668z" fill="#D7D8D9"/><path d="M53.244 39.633c.447 0 .756-.417.756-.864v-3.456c0-.447-.309-.756-.756-.756h-.972v-2.7c0-.447-.308-.755-.756-.755H47.09V7.667a.81.81 0 10-1.62 0v23.434H12.53V1.62h12.203v11.23c0 .448.417.865.864.865h3.456v9.503c0 .447.417.864.864.864h12.095c.447 0 .756-.416.756-.864V7.668c0-.448-.308-.757-.756-.757h-8.747V1.62h12.203v2.592a.81.81 0 101.62 0V.756c0-.447-.309-.756-.756-.756H11.775c-.447 0-.864.308-.864.756v30.346h-4.32c-.447 0-.863.308-.863.756v2.7h-.864c-.447 0-.864.308-.864.755v3.456c0 .447.417.864.864.864h2.592v5.292H4.864c-.447 0-.864.308-.864.756v3.455c0 .447.417.864.864.864h48.38c.447 0 .756-.416.756-.864V45.68c0-.447-.308-.756-.756-.756h-2.7v-5.291h2.7zm-12.095-17.17H30.674V8.53h10.475v13.931zM31.646 1.62v5.29h-1.728c-.447 0-.864.309-.864.756v4.428h-2.7V1.62h5.292zm19.006 31.1v1.836h-7.02V32.72h7.02zm-10.475 1.836V32.72h1.836v1.836h-1.836zm-1.62-1.836v1.836h-7.02V32.72h7.02zm-10.475 1.836V32.72h1.836v1.836h-1.836zm-1.62-1.836v1.836h-7.02V32.72h7.02zm-10.475 1.836V32.72h1.836v1.836h-1.836zm-8.64-1.836h7.02v1.836h-7.02V32.72zM5.62 36.177h46.76v1.836H5.62v-1.836zm28.51 8.747v-5.291h7.883v5.291H34.13zm-8.64-5.291h7.02v5.291h-7.02v-5.291zm-16.414 0h5.291v5.291H9.076v-5.291zM52.38 48.38H5.62v-1.836h12.203a.81.81 0 100-1.62h-1.836v-5.291h7.883v5.291h-2.59a.81.81 0 100 1.62h31.1v1.836zm-3.456-3.456h-5.291v-5.291h5.291v5.291z" fill="#000"/><path d="M15.23 21.49h6.911a.81.81 0 100-1.62H15.23a.81.81 0 100 1.62zm0 3.456h8.64a.81.81 0 100-1.62h-8.64a.81.81 0 100 1.62zm0 3.456h10.367a.81.81 0 100-1.62H15.23a.81.81 0 100 1.62zm16.415-1.728v1.728a.81.81 0 101.62 0v-1.728a.81.81 0 10-1.62 0zm-2.59 0v1.728a.81.81 0 101.62 0v-1.728a.81.81 0 10-1.62 0zm4.32 0v1.728a.81.81 0 101.62 0v-1.728a.81.81 0 10-1.62 0zm4.318 0v1.728a.81.81 0 101.62 0v-1.728a.81.81 0 10-1.62 0zm1.729 0v1.728a.81.81 0 101.62 0v-1.728a.81.81 0 10-1.62 0zm2.536-.81a.81.81 0 00-.81.81v1.728a.81.81 0 101.62 0v-1.728a.81.81 0 00-.81-.81zM23.514 8.763l-4.32-3.456a.81.81 0 00-1.012 0l-4.32 3.456a.81.81 0 00-.126 1.138c.28.35.762.406 1.111.127l1.25-1.02v3.087h-.865a.81.81 0 100 1.62h6.912a.81.81 0 100-1.62h-.972V9.007l1.303 1.02a.833.833 0 001.205-.201.815.815 0 00-.166-1.063zm-3.962 3.332h-1.836V7.711l.918-.734.918.734v4.384zm13.822-.108h5.184a.81.81 0 100-1.62h-5.184a.81.81 0 100 1.62zm0 4.32h5.184a.81.81 0 100-1.62h-5.184a.81.81 0 100 1.62zm0 3.455h5.184a.81.81 0 100-1.62h-5.184a.81.81 0 100 1.62z" fill="#000"/></g><defs><filter id="filter0_d" x="0" y="0" width="58" height="58" filterUnits="userSpaceOnUse" color-interpolation-filters="sRGB"><feFlood flood-opacity="0" result="BackgroundImageFix"/><feColorMatrix in="SourceAlpha" values="0 0 0 0 0 0 0 0 0 0 0 0 0 0 0 0 0 0 127 0"/><feOffset dy="4"/><feGaussianBlur stdDeviation="2"/><feColorMatrix values="0 0 0 0 0 0 0 0 0 0 0 0 0 0 0 0 0 0 0.25 0"/><feBlend in2="BackgroundImageFix" result="effect1_dropShadow"/><feBlend in="SourceGraphic" in2="effect1_dropShadow" result="shape"/></filter></defs></svg>