<svg width="16" height="16" fill="none" xmlns="http://www.w3.org/2000/svg"><path d="M12.167 12.167h1.666A1.666 1.666 0 0015.5 10.5V7.167A1.667 1.667 0 0013.833 5.5H2.167A1.667 1.667 0 00.5 7.167V10.5a1.667 1.667 0 001.667 1.667h10zM5.5 15.5h5a1.666 1.666 0 001.667-1.667V10.5A1.667 1.667 0 0010.5 8.833h-5A1.667 1.667 0 003.833 10.5v3.333A1.666 1.666 0 005.5 15.5zm6.667-10V2.167A1.667 1.667 0 0010.5.5h-5a1.667 1.667 0 00-1.667 1.667V5.5h8.334z" stroke="#1D327B" stroke-linecap="round" stroke-linejoin="round"/></svg>