<svg width="127" height="51" fill="none" xmlns="http://www.w3.org/2000/svg"><g clip-path="url(#clip0)"><path d="M40.75 3.503v20.82a.805.805 0 01-.806.805H13.975a.805.805 0 01-.805-.804V3.504c0-.445.36-.805.805-.805h25.969c.445 0 .805.36.805.804z" fill="#9E9E9E"/><path d="M29.276 12.29h-4.633a.805.805 0 01-.805-.804V2.699h6.243v8.787c0 .444-.36.805-.805.805zm11.473-8.787v20.82c0 .445-.36.806-.805.806h-2.762c.445 0 .805-.36.805-.805V3.504a.805.805 0 00-.805-.806h2.762c.445 0 .805.361.805.805z" fill="#D9D9D9"/><path d="M34.657 25.129H19.465V15.097c0-.222.18-.403.402-.403h14.388c.222 0 .402.18.402.403v10.032z" fill="#E30613"/><path d="M34.658 15.097v10.031h-2.146v-10.03a.403.403 0 00-.403-.404h2.146c.222 0 .403.18.403.403z" fill="#E30613"/><path d="M29.276 10.335h-4.633a.805.805 0 01-.805-.805V2.843c0-.222.18-.402.402-.402h5.439c.222 0 .402.18.402.402V9.53c0 .445-.36.805-.805.805z" fill="#D9D9D9"/><path d="M30.08 2.843V9.53c0 .445-.36.805-.805.805h-2.214c.445 0 .805-.36.805-.805V2.843a.403.403 0 00-.403-.402h2.215c.222 0 .402.18.402.402z" fill="#D9D9D9"/><path d="M49.269 25.934v20.82c0 .445-.36.806-.806.806H22.495a.805.805 0 01-.806-.806v-20.82c0-.445.36-.805.806-.805h25.968c.446 0 .806.36.806.805z" fill="#9E9E9E"/><path d="M32.357 25.128v8.788c0 .445.36.805.805.805h4.634c.444 0 .805-.36.805-.805V25.13h-6.244zm16.909.806v20.82c0 .445-.36.805-.805.805H45.7c.445 0 .805-.36.805-.805v-20.82a.805.805 0 00-.805-.805h2.762c.445 0 .805.36.805.805z" fill="#9E9E9E"/><path d="M44.661 47.56h-5.427V37.526c0-.222.18-.402.403-.402h4.621c.223 0 .403.18.403.402V47.56z" fill="#E30613"/><path d="M44.663 37.528v10.031h-2.145V37.528a.403.403 0 00-.403-.403h2.146c.222 0 .402.18.402.403z" fill="#E30613"/><path d="M32.357 25.128v6.833c0 .444.36.805.805.805h4.634c.444 0 .805-.36.805-.805v-6.832h-6.244z" fill="#D9D9D9"/><path d="M36.385 25.128v6.833c0 .444-.36.805-.805.805h2.215a.806.806 0 00.805-.805v-6.832h-2.215z" fill="#D9D9D9"/><path d="M28.312 25.934v20.82c0 .445-.36.806-.806.806H1.538a.805.805 0 01-.806-.806v-20.82c0-.445.36-.805.806-.805h25.968c.445 0 .806.36.806.805z" fill="#9E9E9E"/><path d="M11.4 25.128v8.788c0 .445.36.805.805.805h4.634c.444 0 .805-.36.805-.805V25.13H11.4zm16.91.806v20.82c0 .445-.36.805-.806.805h-2.762c.445 0 .805-.36.805-.805v-20.82a.805.805 0 00-.805-.805h2.762c.445 0 .805.36.805.805z" fill="#D9D9D9"/><path d="M23.706 47.56h-5.427V37.527c0-.223.18-.403.403-.403h4.622c.222 0 .402.18.402.403v10.031z" fill="#E30613"/><path d="M23.706 37.528v10.031h-2.145V37.528a.403.403 0 00-.403-.403h2.146c.222 0 .402.18.402.403z" fill="#E30613"/><path d="M11.4 25.128v6.833c0 .444.36.805.805.805h4.634c.444 0 .805-.36.805-.805v-6.832H11.4z" fill="#D9D9D9"/><path d="M15.43 25.128v6.833c0 .444-.36.805-.805.805h2.215a.806.806 0 00.805-.805v-6.832H15.43z" fill="#D9D9D9"/><path d="M27.874 19.912a.732.732 0 00-.732-.733h-.304a.732.732 0 000 1.465h.303a.732.732 0 00.733-.732zm-1.036-1.715h4.764a.732.732 0 000-1.465h-4.764a.732.732 0 100 1.465zm4.762.983h-2.17a.732.732 0 000 1.464h2.17a.732.732 0 100-1.465z" fill="#000"/><path d="M48.463 24.396H41.48l.002-.072V3.504a1.54 1.54 0 00-1.537-1.538H30.4a1.13 1.13 0 00-.72-.258h-5.438a1.13 1.13 0 00-.72.258h-9.545a1.54 1.54 0 00-1.538 1.538v8.82a.732.732 0 101.465 0v-8.82c0-.04.033-.073.073-.073h9.13v6.1c0 .847.69 1.537 1.537 1.537h4.634a1.54 1.54 0 001.537-1.538v-6.1h9.13c.04 0 .073.033.073.074v20.82a.072.072 0 01-.034.061l-.015.011h-4.577v-9.3c0-.625-.51-1.134-1.135-1.134H19.87c-.626 0-1.135.509-1.135 1.135v9.3h-4.782l-.015-.012a.073.073 0 01-.034-.061v-8.543a.732.732 0 10-1.465 0v8.543l.002.072H1.537A1.54 1.54 0 000 25.934v20.82c0 .848.69 1.538 1.537 1.538h29.91a.732.732 0 000-1.465H29.04c.002-.024.004-.048.004-.073v-9.88a.732.732 0 10-1.465 0v9.88c0 .04-.032.073-.073.073H24.44v-9.3c0-.625-.51-1.135-1.135-1.135h-4.622c-.626 0-1.135.51-1.135 1.135v9.3H1.537a.073.073 0 01-.072-.073v-20.82c0-.04.032-.073.072-.073h9.13v6.1c0 .848.69 1.537 1.538 1.537h4.634a1.54 1.54 0 001.537-1.537v-6.1h9.13c.04 0 .073.033.073.073v7.484a.732.732 0 101.465 0v-7.484c0-.024-.003-.048-.004-.073h2.584v6.1c0 .848.69 1.537 1.537 1.537h4.634a1.54 1.54 0 001.537-1.537v-6.1h9.13c.04 0 .073.033.073.073v20.82c0 .04-.033.073-.073.073h-3.068v-9.3c0-.625-.509-1.135-1.134-1.135h-4.622c-.626 0-1.135.51-1.135 1.135v9.3h-3.599a.732.732 0 100 1.465h13.559A1.54 1.54 0 0050 46.754v-20.82a1.54 1.54 0 00-1.537-1.538zM29.35 9.53c0 .04-.032.073-.072.073h-4.634a.073.073 0 01-.072-.073V3.173h4.779V9.53zM19.012 37.857h3.962v8.97h-3.962v-8.97zm1.188-22.43h13.727v8.969H20.2v-8.97zM16.91 31.96c0 .04-.032.072-.072.072h-4.634a.073.073 0 01-.072-.072v-6.1h4.778v6.1zm20.956 0c0 .04-.032.072-.072.072H33.16a.073.073 0 01-.072-.072v-6.1h4.779v6.1zm2.101 5.896h3.962v8.97h-3.962v-8.97z" fill="#000"/><path d="M41.613 40.86h.671a.732.732 0 000-1.466h-.67a.732.732 0 100 1.465zm.671.75h-.67a.732.732 0 100 1.465h.67a.732.732 0 000-1.465zm0 2.215h-.67a.732.732 0 100 1.465h.67a.732.732 0 000-1.465zm-38.786.461a.732.732 0 100 1.465h.304a.732.732 0 100-1.465h-.304zm4.764-2.447H3.498a.732.732 0 100 1.465h4.764a.732.732 0 100-1.465zm.001 2.447H6.092a.732.732 0 100 1.465h2.17a.732.732 0 100-1.465zm0-5.97H6.006a.732.732 0 100 1.465h2.257a.732.732 0 100-1.465zm12.393 2.544h.671a.732.732 0 100-1.466h-.67a.732.732 0 100 1.465zm.671.75h-.67a.732.732 0 100 1.465h.67a.732.732 0 100-1.465zm0 2.215h-.67a.732.732 0 100 1.465h.67a.732.732 0 100-1.465z" fill="#000"/></g><path d="M90.8 16.666h-5.6L89.4 9.2h4.2l-2.8 7.466zm11.2.001h-5.6L97.8 9.2h4.2v7.467zm11.201 0h-5.6l-1.4-7.467h4.2l2.8 7.467zm11.199 0h-5.6L114.6 9.2h4.2l5.6 7.467z" fill="#D9D9D9"/><path d="M85.2 16.667h33.6v29.867H85.2V16.667z" fill="#9E9E9E"/><path d="M88 22.267a2.8 2.8 0 01-2.8-2.8v-2.8h5.6v2.8a2.8 2.8 0 01-2.8 2.8zm22.4 0a2.8 2.8 0 01-2.8-2.8v-2.8h5.6v2.8a2.8 2.8 0 01-2.8 2.8zm-11.2 0a2.8 2.8 0 01-2.8-2.8v-2.8h5.6v2.8a2.799 2.799 0 01-2.8 2.8z" fill="#D9D9D9"/><path d="M85.2 16.666h-5.6L85.2 9.2h4.2l-4.2 7.466zm11.199.001h-5.6l2.8-7.467h4.2l-1.4 7.467zm11.201 0H102V9.2h4.2l1.4 7.467zm11.2 0h-5.6L110.4 9.2h4.2l4.2 7.467zm-36.4 5.6a2.8 2.8 0 01-2.8-2.8v-2.8h5.6v2.8a2.8 2.8 0 01-2.8 2.8z" fill="#1D327B"/><path d="M93.599 22.267a2.8 2.8 0 01-2.8-2.8v-2.8h5.6v2.8a2.8 2.8 0 01-2.8 2.8zm11.201 0a2.8 2.8 0 01-2.8-2.8v-2.8h5.6v2.8a2.8 2.8 0 01-2.8 2.8zm11.201 0a2.8 2.8 0 01-2.8-2.8v-2.8h5.6v2.8a2.8 2.8 0 01-2.8 2.8z" fill="#1D327B"/><path d="M121.603 22.267a2.8 2.8 0 01-2.8-2.8v-2.8h5.6v2.8a2.8 2.8 0 01-2.8 2.8zm-32.669 3.906h11.2v20.361h-11.2V26.173zm14.933 0h11.2v9.29h-11.2v-9.29z" fill="#D9D9D9"/><path d="M125.131 16.613a.748.748 0 00-.144-.386l-5.453-7.27V1.731a.733.733 0 00-.733-.732h-7.505a.732.732 0 000 1.465h6.773v6.002H85.932V2.465h22.173a.732.732 0 000-1.465H85.199a.732.732 0 00-.732.732v7.224l-5.453 7.271a.744.744 0 00-.147.44v2.8c0 2.76 3.292 4.534 5.6 2.86v23.475h-3a.732.732 0 00-.733.732v3.733c0 .405.328.733.732.733h41.068a.733.733 0 00.733-.733v-3.733a.733.733 0 00-.733-.732h-3V36.93a.733.733 0 00-1.465 0v8.872h-17.203V26.173a.732.732 0 00-.732-.732h-5.7a.732.732 0 100 1.465h4.968v18.896h-9.737V26.906h1.576a.732.732 0 000-1.465h-2.308a.732.732 0 00-.733.732v19.629h-2.268V22.327c1.502 1.09 3.757.733 4.868-.71 1.396 1.814 4.204 1.814 5.6 0 1.396 1.814 4.204 1.814 5.6 0 1.396 1.814 4.204 1.814 5.6 0 1.397 1.814 4.204 1.814 5.601 0 1.11 1.443 3.366 1.8 4.868.71v11.41a.732.732 0 101.465 0v-11.41c2.283 1.657 5.599-.1 5.599-2.86v-2.8a.963.963 0 00-.002-.054zm-3.329 32.922H82.199v-2.268h39.603v2.268zm-13.594-33.601l-1.125-6.002h2.81l2.251 6.002h-3.936zm-16.351 0l2.25-6.002h2.81l-1.125 6.002h-3.935zm5.426 0l1.125-6.002h2.86v6.002h-3.985zm5.45 0V9.932h2.859l1.126 6.002h-3.985zm-10.19-6.002l-2.25 6.002h-3.84l3.375-6.002h2.715zm21.165 6.002l-2.251-6.002h2.715l3.376 6.002h-3.84zm5.521 0l-3.376-6.002h2.582l4.501 6.002h-3.707zM85.566 9.932h2.582l-3.376 6.002h-3.708l4.502-6.002zM82.4 21.534a2.07 2.07 0 01-2.068-2.067v-2.068h4.135v2.077a2.07 2.07 0 01-2.067 2.058zm7.667-2.067A2.07 2.07 0 0188 21.534a2.07 2.07 0 01-2.068-2.067v-2.068h4.135v2.068zm5.6 0a2.07 2.07 0 01-2.067 2.067 2.07 2.07 0 01-2.068-2.067v-2.068h4.136v2.068zm5.601 0a2.07 2.07 0 01-2.068 2.067 2.07 2.07 0 01-2.067-2.067v-2.068h4.135v2.068zm3.532 2.067a2.07 2.07 0 01-2.067-2.067v-2.068h4.135v2.068a2.07 2.07 0 01-2.068 2.067zm7.668-2.067a2.07 2.07 0 01-2.068 2.067 2.07 2.07 0 01-2.067-2.066v-2.069h4.135v2.068zm5.6 0a2.07 2.07 0 01-2.067 2.067 2.07 2.07 0 01-2.068-2.067v-2.068h4.135v2.068zm5.601 0a2.07 2.07 0 01-2.068 2.067 2.07 2.07 0 01-2.067-2.058V17.4h4.135v2.068z" fill="#000"/><path d="M103.867 25.44a.732.732 0 00-.732.733v12.894c0 .405.328.733.732.733h11.2a.733.733 0 00.733-.733V26.173a.733.733 0 00-.733-.732h-11.2zm.733 1.465h9.735v7.826H104.6v-7.826zm9.735 11.43H104.6v-2.14h9.735v2.14zM91.936 37.2v3.734a.732.732 0 001.464 0V37.2a.732.732 0 10-1.465 0z" fill="#000"/><g clip-path="url(#clip1)" fill="#000"><path d="M78.12 38.857a.366.366 0 00-.366.366v.41a.366.366 0 10.732 0v-.41a.366.366 0 00-.366-.366zm-2.16 0a.366.366 0 00-.366.366v.41a.366.366 0 10.732 0v-.41a.366.366 0 00-.366-.366zm-2.16 0a.366.366 0 00-.366.366v.41a.366.366 0 10.732 0v-.41a.366.366 0 00-.366-.366zM59.2 16.143a.366.366 0 00.366-.366v-.41a.366.366 0 00-.732 0v.41c0 .202.164.366.366.366zm-1.794-.366v-.41a.366.366 0 00-.732 0v.41a.366.366 0 00.732 0zM54.88 15a.366.366 0 00-.366.366v.411a.366.366 0 10.732 0v-.41A.366.366 0 0054.88 15zm20.389 11.297L70.972 22l-3.57-3.57a1.025 1.025 0 00-.72-.299h-8.427c-.42 0-.78.242-.94.63a1 1 0 00.22 1.108c2.08 2.082 6.511 6.514 7.628 7.63l-7.627 7.632a1.001 1.001 0 00-.222 1.109c.16.387.521.628.941.628h8.426c.268 0 .53-.108.72-.298l7.868-7.868a1.704 1.704 0 000-2.405zm-.519 1.887l-7.867 7.868a.288.288 0 01-.202.084h-3.756a233.564 233.564 0 007.5-7.6c.553-.556.559-1.543.012-2.158a1068.493 1068.493 0 01-.541.494c.25.289.308.85.008 1.15a.465.465 0 00-.007.007c-2.895 3.056-5.416 5.604-7.936 8.018a.367.367 0 00-.068.089h-3.638a.28.28 0 01-.264-.177.28.28 0 01.062-.31c2.406-2.409 7.887-7.89 7.887-7.89a.366.366 0 000-.519c-.055-.055-5.509-5.508-7.887-7.89a.28.28 0 01-.062-.31.28.28 0 01.264-.176h3.638a.363.363 0 00.074.094c.386.356.762.75 1.125 1.13.398.417.81.848 1.24 1.234a.365.365 0 00.516-.027.366.366 0 00-.027-.518c-.409-.367-.793-.769-1.199-1.194a46.44 46.44 0 00-.697-.72h3.756c.075 0 .149.031.202.085l3.57 3.57 4.297 4.296a.97.97 0 010 1.37z"/></g><defs><clipPath id="clip0"><path fill="#fff" d="M0 0h50v50H0z"/></clipPath><clipPath id="clip1"><path fill="#fff" transform="translate(54 15)" d="M0 0h25v25H0z"/></clipPath></defs></svg>