<svg width="127" height="50" fill="none" xmlns="http://www.w3.org/2000/svg"><g clip-path="url(#clip0)"><path d="M109.523 30.194l-8.69-2.973h-8.56l-8.69 2.973a4.026 4.026 0 00-2.724 3.809v15.265h31.387V34.003a4.025 4.025 0 00-2.723-3.809z" fill="#D9D9D9"/><path d="M95.2 27.221l-8.69 2.973a4.026 4.026 0 00-2.723 3.808v15.266H80.86V34.002a4.026 4.026 0 012.723-3.808l8.69-2.973h2.929z" fill="#D9D9D9"/><path d="M100.835 19.269v7.958l-4.283 3.225-4.283-3.225V19.27h8.566z" fill="#D9D9D9"/><path d="M98.016 29.35l-1.464 1.102-4.283-3.225V19.27h2.928v7.958l2.82 2.123z" fill="#9E9E9E"/><path d="M100.835 19.269v6.357a8.661 8.661 0 01-3.723.834h-1.121a8.676 8.676 0 01-3.722-.833v-6.358h8.566z" fill="#9E9E9E"/><path d="M89.209 8.813v8.911a6.784 6.784 0 006.784 6.784h1.12a6.783 6.783 0 006.784-6.784V8.813c0-1.148-.93-2.078-2.077-2.078H91.286c-1.147 0-2.077.93-2.077 2.078z" fill="#D9D9D9"/><path d="M97.53 24.495a6.514 6.514 0 01-.416.013h-1.122a6.784 6.784 0 01-6.783-6.783V8.812c0-1.147.93-2.077 2.077-2.077h1.952c-1.147 0-2.077.93-2.077 2.077v8.913a6.784 6.784 0 006.368 6.77zm6.366-13.865h1.47a2.04 2.04 0 012.04 2.04v1.528a2.04 2.04 0 01-2.04 2.04h-1.47V10.63z" fill="#D9D9D9"/><path d="M96.553 30.452l-3.031 1.852 1.515 2.695h3.032l1.516-2.695-3.032-1.852z" fill="#E30613"/><path d="M95.472 32.303L96.988 35h-1.952l-1.517-2.696 3.033-1.851.976.596-2.056 1.255z" fill="#E30613"/><path d="M95.037 35l-1.516 14.268h6.064l-1.516-14.269h-3.032z" fill="#E30613"/><path d="M96.988 34.999l-1.516 14.269h-1.953l1.517-14.269h1.952z" fill="#E30613"/><path d="M89.209 10.63h-1.47a2.04 2.04 0 00-2.04 2.04v1.528a2.04 2.04 0 002.04 2.04h1.47V10.63z" fill="#D9D9D9"/><path d="M92.269 27.227l4.282 3.224-6.063 3.705v-6.325l1.78-.604zm8.566 0l-4.282 3.224 6.063 3.705v-6.325l-1.781-.604z" fill="#9E9E9E"/><path d="M114.208 49.244a9.072 9.072 0 100-18.144 9.072 9.072 0 000 18.144z" fill="#E30613"/><path d="M107.089 40.173a9.072 9.072 0 018.095-9.02 9.071 9.071 0 00-10.047 9.02 9.071 9.071 0 0010.047 9.02 9.072 9.072 0 01-8.095-9.02z" fill="#E30613"/><path d="M113.449 44.732c-.403 0-.792-.16-1.079-.447l-3.032-3.032a1.528 1.528 0 012.16-2.16l1.786 1.786 3.491-4.654a1.528 1.528 0 012.444 1.833l-4.547 6.063a1.529 1.529 0 01-1.223.611z" fill="#D9D9D9"/><path d="M105.764 10.63l-2.287-1.928a3.484 3.484 0 00-4.51.014 3.484 3.484 0 01-4.5.02c-1.312-1.105-3.217-1.187-4.555-.065l-2.338 1.96V6.783A6.051 6.051 0 0193.625.732h6.088a6.051 6.051 0 016.051 6.05v3.849z" fill="#9E9E9E"/><path d="M96.553.732a6.05 6.05 0 00-6.05 6.051v1.49a3.352 3.352 0 00-.591.399l-2.338 1.958V6.784A6.05 6.05 0 0193.625.732h2.928z" fill="#9E9E9E"/><path d="M93.392 15.103a.732.732 0 00.732-.732v-.961a.732.732 0 00-1.464 0v.96c0 .405.328.733.732.733zm6.307 0a.732.732 0 00.732-.732v-.961a.732.732 0 00-1.464 0v.96c0 .405.328.733.732.733zm-3.147 5.816a2.57 2.57 0 002.568-2.568.732.732 0 10-1.464 0 1.105 1.105 0 01-2.207 0 .732.732 0 00-1.465 0 2.57 2.57 0 002.568 2.568z" fill="#000"/><path d="M123.267 41.043a.732.732 0 00-.848.593 8.322 8.322 0 01-8.211 6.877c-4.599 0-8.34-3.742-8.34-8.34 0-4.599 3.741-8.34 8.34-8.34a8.326 8.326 0 018.21 6.868.732.732 0 001.442-.256 9.79 9.79 0 00-9.652-8.076c-.884 0-1.741.118-2.556.338a4.747 4.747 0 00-1.892-1.205l-8.193-2.803v-2.926c2.113-1.56 3.088-4.26 3.061-6.803h.739a2.774 2.774 0 002.771-2.772V12.67a2.774 2.774 0 00-1.642-2.53V6.783A6.79 6.79 0 0099.713 0h-6.087a6.79 6.79 0 00-6.783 6.783v3.265a2.776 2.776 0 00-1.876 2.622v1.528a2.775 2.775 0 002.772 2.772h.738c-.027 2.544.949 5.244 3.061 6.804v2.925l-8.193 2.803a4.758 4.758 0 00-3.218 4.5v2.286a.732.732 0 101.464 0v-2.285c0-1.408.895-2.66 2.228-3.116l5.938-2.032v5.301c0 .595.67.896 1.114.625l2.384-1.457 1.03 1.83-1.42 13.382h-6.191V37.429a.732.732 0 00-1.464 0v11.107h-3.62v-9.057a.732.732 0 00-1.463 0v9.789c0 .404.328.732.732.732h33.348a9.806 9.806 0 009.654-8.109.733.733 0 00-.594-.848zM97.853 30.388l3.113-2.344.918.312v4.495l-4.03-2.463zm-3.348 2.172l2.048-1.25 2.047 1.25-.96 1.707h-2.175l-.96-1.707zm-1.5-5.697V24.62c1.96.853 5.135.853 7.096 0v2.245l-3.548 2.671-3.549-2.672zm13.669-12.665c0 .721-.586 1.308-1.307 1.308h-.738v-4.143h.738c.721 0 1.307.586 1.307 1.307v1.528zm-18.197 1.308h-.738a1.309 1.309 0 01-1.308-1.308V12.67c0-.72.587-1.307 1.308-1.307h.738v4.143zm1.463 2.219V9.603c1.87-1.524 2.956-.778 4.793.19.357.189.8.052.989-.305.188-.358.02-.75-.306-.99-2.583-1.905-5.005-1.62-7.11.564V6.783a5.325 5.325 0 015.32-5.319h6.087a5.325 5.325 0 015.319 5.32v2.272c-2.301-2.232-4.46-2.376-7.093-.53-.41.287-.51.618-.33.98a.73.73 0 00.981.33c1.791-.888 2.589-1.78 4.574-.44v8.329c0 8.035-13.224 8.035-13.224 0zm1.281 10.63l.918-.31 3.113 2.343-4.03 2.463v-4.495zm4.474 7.376h1.715l1.357 12.805h-4.43l1.358-12.805zm4.545 12.805l-1.419-13.381 1.03-1.83 2.383 1.456c.445.271 1.114-.03 1.114-.625v-5.3l5.938 2.03c.282.097.547.232.79.398-3.347 1.562-5.672 4.959-5.672 8.889a9.806 9.806 0 004.693 8.363h-8.857z" fill="#000"/><path d="M119.351 35.334a2.262 2.262 0 00-3.163.452l-2.984 3.979-1.19-1.19a2.262 2.262 0 00-3.195 0 2.262 2.262 0 000 3.196l3.032 3.031a2.26 2.26 0 003.405-.242l4.547-6.063a2.261 2.261 0 00-.452-3.163zm-.719 2.285l-4.548 6.063c-.373.393-.878.438-1.198.085l-3.032-3.032a.797.797 0 010-1.124c.375-.31.75-.31 1.125 0l1.786 1.786c.392.31.76.283 1.103-.078l3.491-4.655a.797.797 0 011.273.955z" fill="#000"/></g><path d="M13.8 15.666H8.2L12.4 8.2h4.2l-2.8 7.466zm11.2.001h-5.6L20.8 8.2H25v7.467zm11.201 0h-5.6l-1.4-7.467h4.2l2.8 7.467zm11.199 0h-5.6L37.6 8.2h4.2l5.6 7.467z" fill="#D9D9D9"/><path d="M8.2 15.667h33.6v29.867H8.2V15.667z" fill="#9E9E9E"/><path d="M11 21.267a2.8 2.8 0 01-2.8-2.8v-2.8h5.6v2.8a2.8 2.8 0 01-2.8 2.8zm22.4 0a2.8 2.8 0 01-2.8-2.8v-2.8h5.6v2.8a2.8 2.8 0 01-2.8 2.8zm-11.2 0a2.8 2.8 0 01-2.8-2.8v-2.8H25v2.8a2.8 2.8 0 01-2.8 2.8z" fill="#D9D9D9"/><path d="M8.2 15.666H2.6L8.2 8.2h4.2l-4.2 7.466zm11.199.001h-5.6l2.8-7.467h4.2l-1.4 7.467zm11.201 0H25V8.2h4.2l1.4 7.467zm11.2 0h-5.6L33.4 8.2h4.2l4.2 7.467zm-36.4 5.6a2.8 2.8 0 01-2.8-2.8v-2.8h5.6v2.8a2.8 2.8 0 01-2.8 2.8z" fill="#1D327B"/><path d="M16.599 21.267a2.8 2.8 0 01-2.8-2.8v-2.8h5.6v2.8a2.8 2.8 0 01-2.8 2.8zm11.201 0a2.8 2.8 0 01-2.8-2.8v-2.8h5.6v2.8a2.8 2.8 0 01-2.8 2.8zm11.201 0a2.8 2.8 0 01-2.8-2.8v-2.8h5.6v2.8a2.8 2.8 0 01-2.8 2.8z" fill="#1D327B"/><path d="M44.603 21.267a2.8 2.8 0 01-2.8-2.8v-2.8h5.6v2.8a2.8 2.8 0 01-2.8 2.8zm-32.669 3.906h11.2v20.361h-11.2V25.173zm14.933 0h11.2v9.29h-11.2v-9.29z" fill="#D9D9D9"/><path d="M48.13 15.613a.742.742 0 00-.143-.386l-5.453-7.27V.731A.732.732 0 0041.8 0h-7.505a.732.732 0 000 1.465h6.773v6.002H8.932V1.465h22.173a.732.732 0 100-1.465H8.199a.732.732 0 00-.732.732v7.224l-5.453 7.271a.744.744 0 00-.147.44v2.8c0 2.76 3.292 4.534 5.6 2.86v23.475h-3a.732.732 0 00-.733.732v3.733c0 .405.328.733.732.733h41.068a.732.732 0 00.733-.733v-3.733a.732.732 0 00-.733-.732h-3V35.93a.732.732 0 10-1.465 0v8.872H23.866V25.173a.732.732 0 00-.732-.732h-5.7a.732.732 0 100 1.465H22.4v18.896h-9.736V25.906h1.576a.732.732 0 000-1.465h-2.308a.732.732 0 00-.733.732v19.629H8.932V21.327c1.502 1.09 3.757.733 4.868-.71 1.396 1.814 4.204 1.814 5.6 0 1.396 1.814 4.204 1.814 5.6 0 1.396 1.814 4.204 1.814 5.6 0 1.397 1.814 4.204 1.814 5.6 0 1.111 1.443 3.367 1.8 4.869.71v11.41a.732.732 0 101.465 0v-11.41c2.283 1.657 5.6-.1 5.6-2.86v-2.8c0-.019-.002-.037-.003-.054zm-3.328 32.922H5.199v-2.268h39.603v2.268zM31.208 14.934l-1.125-6.002h2.81l2.25 6.002h-3.935zm-16.351 0l2.25-6.002h2.81l-1.125 6.002h-3.935zm5.426 0l1.125-6.002h2.86v6.002h-3.985zm5.45 0V8.932h2.86l1.125 6.002h-3.985zm-10.19-6.002l-2.25 6.002h-3.84l3.375-6.002h2.715zm21.165 6.002l-2.25-6.002h2.714l3.376 6.002h-3.84zm5.521 0l-3.376-6.002h2.582l4.501 6.002H42.23zM8.566 8.932h2.582l-3.376 6.002H4.064l4.502-6.002zM5.4 20.534a2.07 2.07 0 01-2.068-2.067v-2.068h4.135v2.077A2.07 2.07 0 015.4 20.534zm7.668-2.067A2.07 2.07 0 0111 20.534a2.07 2.07 0 01-2.068-2.067v-2.068h4.136v2.068zm5.6 0a2.07 2.07 0 01-2.068 2.067 2.07 2.07 0 01-2.068-2.067v-2.068h4.136v2.068zm5.6 0a2.07 2.07 0 01-2.068 2.067 2.07 2.07 0 01-2.067-2.067v-2.068h4.135v2.068zm3.532 2.067a2.07 2.07 0 01-2.067-2.067v-2.068h4.135v2.068a2.07 2.07 0 01-2.068 2.067zm7.668-2.067a2.07 2.07 0 01-2.068 2.067 2.07 2.07 0 01-2.067-2.066v-2.069h4.135v2.068zm5.6 0a2.07 2.07 0 01-2.067 2.067 2.07 2.07 0 01-2.068-2.067v-2.068h4.135v2.068zm5.6 0a2.07 2.07 0 01-2.067 2.067 2.07 2.07 0 01-2.067-2.058V16.4h4.135v2.068z" fill="#000"/><path d="M26.867 24.44a.732.732 0 00-.732.733v12.894c0 .405.328.733.732.733h11.2a.732.732 0 00.733-.733V25.173a.732.732 0 00-.732-.732h-11.2zm.733 1.465h9.735v7.826H27.6v-7.826zm9.735 11.43H27.6v-2.14h9.735v2.14zm-22.4-1.135v3.734a.732.732 0 001.465 0V36.2a.732.732 0 10-1.464 0z" fill="#000"/><g clip-path="url(#clip1)" fill="#000"><path d="M75.12 37.857a.366.366 0 00-.366.366v.41a.366.366 0 10.732 0v-.41a.366.366 0 00-.366-.366zm-2.16 0a.366.366 0 00-.366.366v.41a.366.366 0 10.732 0v-.41a.366.366 0 00-.366-.366zm-2.16 0a.366.366 0 00-.366.366v.41a.366.366 0 10.732 0v-.41a.366.366 0 00-.366-.366zM56.2 15.143a.366.366 0 00.366-.366v-.41a.366.366 0 00-.732 0v.41c0 .202.164.366.366.366zm-1.794-.366v-.41a.366.366 0 00-.732 0v.41a.366.366 0 00.732 0zM51.88 14a.366.366 0 00-.366.366v.411a.366.366 0 10.732 0v-.41A.366.366 0 0051.88 14zm20.389 11.297L67.972 21l-3.57-3.57a1.025 1.025 0 00-.72-.299h-8.427c-.42 0-.78.242-.94.63a1 1 0 00.22 1.108c2.08 2.082 6.512 6.514 7.628 7.63l-7.627 7.632a1.001 1.001 0 00-.222 1.109c.16.387.521.628.941.628h8.426c.268 0 .53-.108.72-.298l7.868-7.868a1.704 1.704 0 000-2.405zm-.519 1.887l-7.867 7.868a.288.288 0 01-.202.084h-3.756a233.564 233.564 0 007.5-7.6c.553-.556.559-1.543.012-2.158a1068.493 1068.493 0 01-.541.494c.25.289.308.85.008 1.15a.465.465 0 00-.007.007c-2.895 3.056-5.416 5.604-7.936 8.018a.367.367 0 00-.068.089h-3.638a.28.28 0 01-.264-.177.28.28 0 01.062-.31c2.406-2.409 7.887-7.89 7.887-7.89a.366.366 0 000-.519c-.055-.055-5.509-5.508-7.887-7.89a.28.28 0 01-.062-.31.28.28 0 01.264-.176h3.638a.363.363 0 00.074.094c.386.356.762.75 1.125 1.13.398.417.81.848 1.24 1.234a.365.365 0 00.516-.027.366.366 0 00-.027-.518c-.409-.367-.793-.769-1.199-1.194a46.44 46.44 0 00-.697-.72h3.756c.075 0 .149.031.202.085l3.57 3.57 4.297 4.296a.97.97 0 010 1.37z"/></g><defs><clipPath id="clip0"><path fill="#fff" transform="translate(77)" d="M0 0h50v50H0z"/></clipPath><clipPath id="clip1"><path fill="#fff" transform="translate(51 14)" d="M0 0h25v25H0z"/></clipPath></defs></svg>