<svg width="46" height="50" fill="none" xmlns="http://www.w3.org/2000/svg"><path d="M40.286 18.419L27.3 37.389a1.367 1.367 0 01-1.9.355L10.665 27.658a1.367 1.367 0 01-.356-1.9l12.985-18.97a1.367 1.367 0 011.9-.356L39.93 16.518c.623.427.782 1.278.356 1.9z" fill="#D9D9D9"/><path d="M39.928 16.519L25.193 6.432a1.367 1.367 0 00-1.9.356l-.506.738 12.995 8.895c.623.426.782 1.277.356 1.9l-12.48 18.232 1.741 1.191a1.367 1.367 0 001.9-.356L40.285 18.42a1.367 1.367 0 00-.356-1.9z" fill="#D9D9D9"/><path d="M44.072 18.93L31.445 6.303a1.367 1.367 0 00-1.934 0L8.256 27.558h29.12l6.696-6.695c.533-.534.533-1.4 0-1.933z" fill="#D9D9D9"/><path d="M44.071 18.93L31.445 6.303a1.367 1.367 0 00-1.934 0l-.626.626 12 12c.534.535.534 1.4 0 1.934l-6.695 6.695h3.186l6.695-6.695c.534-.534.534-1.4 0-1.933z" fill="#D9D9D9"/><path d="M32.639 27.558c-.036-.34-.08-.68-.08-1.011 0-.776.245-1.597.043-2.351-.198-.744-.817-1.334-1.211-2.016-.381-.659-.577-1.492-1.141-2.055-.564-.564-1.397-.76-2.056-1.141-.682-.395-1.271-1.013-2.015-1.212-.755-.201-1.576.044-2.351.044-.432 0-.878-.076-1.318-.108a.192.192 0 01-.125-.328l5.163-5.162a.479.479 0 01.5-.114 7.19 7.19 0 007.514-1.684l-4.117-4.117a1.367 1.367 0 00-1.934 0L8.256 27.558h24.383zm11.435-8.628l-4.117-4.117a7.19 7.19 0 00-1.69 7.499.48.48 0 01-.113.499l-4.748 4.747h3.973l6.695-6.695c.534-.534.534-1.4 0-1.933z" fill="#D9D9D9"/><path d="M33.714 11.758a7.181 7.181 0 001.848-1.338l-4.117-4.117a1.367 1.367 0 00-1.934 0l-.626.626 4.829 4.829zm10.358 7.172l-4.117-4.117a7.176 7.176 0 00-1.337 1.848l2.268 2.269c.534.534.534 1.4 0 1.933l-6.695 6.695h3.186l6.696-6.695c.533-.534.533-1.4 0-1.933z" fill="#D9D9D9"/><path d="M14.713 27.558a5.152 5.152 0 100-10.304 5.152 5.152 0 000 10.304zm-6.78-11.06a5.152 5.152 0 100-10.304 5.152 5.152 0 000 10.304z" fill="#E30613"/><path d="M16.91 17.746a5.152 5.152 0 01-6.859 6.859 5.152 5.152 0 106.858-6.859zm-6.778-11.06a5.152 5.152 0 01-6.859 6.859 5.152 5.152 0 106.86-6.859zm7.546.339a3.151 3.151 0 100-6.302 3.151 3.151 0 000 6.302z" fill="#E30613"/><path d="M18.709.897a3.151 3.151 0 01-4.01 4.01 3.152 3.152 0 104.01-4.01z" fill="#E30613"/><path d="M38.086 49.277H4.416a2.894 2.894 0 01-2.895-2.894V25.889a2.894 2.894 0 012.895-2.895h33.67a2.894 2.894 0 012.895 2.895v20.494a2.894 2.894 0 01-2.895 2.894z" fill="#D9D9D9"/><path d="M38.086 22.994H35.55v17.958a2.894 2.894 0 01-2.895 2.894H1.521v2.537a2.894 2.894 0 002.895 2.894h33.67a2.894 2.894 0 002.895-2.894V25.889a2.894 2.894 0 00-2.895-2.895z" fill="#9E9E9E"/><path d="M41.692 39.723H31.648a1.27 1.27 0 01-1.27-1.27v-4.808c0-.701.57-1.27 1.27-1.27h10.044c.7 0 1.27.569 1.27 1.27v4.808a1.27 1.27 0 01-1.27 1.27z" fill="#9E9E9E"/><path d="M41.692 32.376h-2.407v2.4a1.27 1.27 0 01-1.27 1.27H30.38v2.407c0 .701.568 1.27 1.27 1.27h10.043a1.27 1.27 0 001.27-1.27v-4.808a1.27 1.27 0 00-1.27-1.27z" fill="#9E9E9E"/><path d="M45.203 19.896c0-.553-.216-1.073-.607-1.465L31.944 5.78a2.059 2.059 0 00-1.466-.607 2.06 2.06 0 00-1.465.607l-1.42 1.42-2.007-1.373a2.059 2.059 0 00-1.552-.327 2.059 2.059 0 00-1.329.866l-7.015 10.25a5.88 5.88 0 00-6.85 5.657H4.378a3.584 3.584 0 00-3.58 3.58v10.57a.723.723 0 001.447 0v-10.57c0-1.178.957-2.135 2.133-2.135h33.746c1.176 0 2.134.957 2.134 2.134v5.802h-2.41v-.317a.723.723 0 10-1.446 0v.317h-4.77c-1.09 0-1.976.886-1.976 1.976v4.84c0 1.09.886 1.976 1.976 1.976h4.77v.49a.723.723 0 001.446 0v-.49h3.86c1.09 0 1.976-.886 1.976-1.975V33.63c0-1.09-.887-1.976-1.976-1.976h-.005V25.85a3.56 3.56 0 00-.26-1.337l3.153-3.152c.391-.392.607-.912.607-1.465zM42.237 33.63v4.84a.53.53 0 01-.53.53H31.632a.53.53 0 01-.53-.53v-4.84a.53.53 0 01.53-.53h10.076a.53.53 0 01.53.53zM37.49 22.273h-5.177a5.208 5.208 0 01-.616-1.119c-.222-.505-.474-1.077-.936-1.54-.463-.462-1.035-.714-1.54-.936a5.339 5.339 0 01-1.302-.752c-.844-.77-2.225-1.135-3.336-.889-.32.035-.594.066-.886.055l4.254-4.255a7.958 7.958 0 007.586-1.418l3.419 3.42a7.962 7.962 0 00-1.466 7.434zm-7.456-15.47a.622.622 0 01.886 0l3.59 3.589a6.504 6.504 0 01-6.22 1.033 1.206 1.206 0 00-1.254.283l-5.162 5.162a.916.916 0 00-.211.965c.182.543.75.616 1.251.64.586.082 1.24.082 1.826 0 .968-.166 1.569-.009 2.327.62a6.834 6.834 0 001.572.907c.924.337 1.397.81 1.734 1.734.078.177.158.358.247.537H20.583a5.858 5.858 0 00-1.863-4.155L30.035 6.802zm-6.137.38a.623.623 0 01.871-.163l1.784 1.22-9.017 9.017a5.888 5.888 0 00-.398-.198l6.76-9.876zm-9.186 10.795a4.434 4.434 0 014.426 4.295H17.56a2.855 2.855 0 00-2.848-2.717 2.855 2.855 0 00-2.848 2.717h-1.578a4.433 4.433 0 014.426-4.295zm-1.4 4.294a1.407 1.407 0 011.4-1.27c.73 0 1.33.558 1.399 1.27h-2.798zm30.261-1.931l-2.95 2.95a3.578 3.578 0 00-1.612-.907 1.19 1.19 0 00-.065-.316 6.507 6.507 0 011.038-6.203l3.59 3.59a.623.623 0 010 .886z" fill="#000"/><path d="M7.934 17.221a5.882 5.882 0 005.875-5.875 5.882 5.882 0 00-7.965-5.492.723.723 0 10.514 1.351 4.434 4.434 0 016.005 4.141 4.434 4.434 0 01-4.43 4.43 4.434 4.434 0 01-3.87-6.587.723.723 0 00-1.261-.705 5.881 5.881 0 00-.743 2.862 5.882 5.882 0 005.875 5.875zm9.745-9.473a3.878 3.878 0 003.874-3.874A3.879 3.879 0 0017.679 0a3.879 3.879 0 00-3.874 3.874 3.879 3.879 0 003.874 3.874zm0-6.302a2.431 2.431 0 012.428 2.428 2.431 2.431 0 01-2.428 2.428 2.431 2.431 0 01-2.428-2.428 2.431 2.431 0 012.428-2.428z" fill="#000"/><path d="M10.785 11.346a2.855 2.855 0 00-2.851-2.852 2.855 2.855 0 00-2.852 2.852 2.855 2.855 0 002.852 2.851 2.855 2.855 0 002.851-2.851zm-4.257 0a1.406 1.406 0 112.81 0 1.406 1.406 0 01-2.81 0zM40.98 42.82a.722.722 0 00-.722.722v2.878a2.136 2.136 0 01-2.134 2.134H4.378a2.136 2.136 0 01-2.133-2.134v-6.184a.723.723 0 00-1.446 0v6.184A3.584 3.584 0 004.379 50h33.745a3.584 3.584 0 003.58-3.58v-2.878c0-.4-.324-.723-.723-.723zm-3.853-13.464c.4 0 .723-.324.723-.723v-.048a2.46 2.46 0 00-2.458-2.458h-.048a.723.723 0 100 1.446h.048c.558 0 1.012.454 1.012 1.012v.048c0 .4.324.723.723.723z" fill="#000"/><path d="M35.39 46.145a2.46 2.46 0 002.458-2.458v-.048a.723.723 0 10-1.446 0v.048c0 .558-.454 1.012-1.012 1.012h-.048a.723.723 0 100 1.445h.048zm-12.743-1.446a.723.723 0 100 1.445h3.559a.723.723 0 100-1.445h-3.56zm-12.696 0a.723.723 0 100 1.445h3.56a.723.723 0 100-1.445H9.95zm18.322.723c0 .399.324.723.723.723h3.56a.723.723 0 000-1.446h-3.56a.723.723 0 00-.723.723zm-11.974-.723a.723.723 0 000 1.445h3.559a.723.723 0 100-1.445h-3.559zM4.654 43.687a2.46 2.46 0 002.458 2.458h.048a.723.723 0 100-1.446h-.048A1.013 1.013 0 016.1 43.687v-.048a.723.723 0 00-1.446 0v.048zm0-8.903a.723.723 0 001.446 0v-3.448a.723.723 0 00-1.446 0v3.448zm0 6.152a.723.723 0 101.446 0v-3.449a.723.723 0 00-1.446 0v3.449zm.726-11.58a.723.723 0 00.722-.723v-.048c0-.558.454-1.012 1.012-1.012h.048a.723.723 0 100-1.446h-.048a2.46 2.46 0 00-2.458 2.458v.048c0 .4.324.723.723.723zm14.476-3.229h-3.559a.723.723 0 100 1.446h3.559a.723.723 0 000-1.446zm-6.346 0H9.951a.723.723 0 100 1.446h3.56a.723.723 0 100-1.446zm19.766.723c0-.4-.324-.723-.723-.723h-3.559a.723.723 0 100 1.446h3.56a.723.723 0 00.722-.723zm-7.07-.723h-3.56a.723.723 0 100 1.446h3.56a.723.723 0 000-1.446zm7.448 10.893a.97.97 0 100-1.941.97.97 0 000 1.94z" fill="#000"/></svg>