<svg width="50" height="50" fill="none" xmlns="http://www.w3.org/2000/svg"><g clip-path="url(#clip0)"><path d="M24.947 4.524h4.55v4.55h-4.55v-4.55z" fill="#1D327B"/><path d="M24.947 4.524H26.9v4.55h-1.953v-4.55z" fill="#A09A9A"/><path d="M43.828 14.042l3.217 3.217-3.217 3.217-3.217-3.217 3.217-3.217z" fill="#1D327B"/><path d="M42.566 17.265l2.241-2.24-.976-.977-3.218 3.217 3.218 3.218.976-.977-2.24-2.24zm-28.625.001l-3.216 3.217-3.217-3.217 3.217-3.217 3.216 3.217z" fill="#1D327B"/><path d="M9.457 17.265l2.24-2.24-.976-.977-3.217 3.217 3.217 3.218.977-.977-2.241-2.24z" fill="#A09A9A"/><path d="M25.705 9.075h3.034V15.9h-3.034V9.075z" fill="#1D327B"/><path d="M25.705 9.075h1.465V15.9h-1.465V9.075zm15.442 8.721l2.144 2.144-4.825 4.825-2.145-2.144 4.826-4.825z" fill="#1D327B"/><path d="M38.275 22.628l3.85-3.85-.977-.976-4.826 4.826 2.145 2.145.977-.977-1.169-1.168zm-20.041 0l-2.144 2.145-4.826-4.826 2.145-2.144 4.825 4.825z" fill="#1D327B"/><path d="M13.21 19.947l1.17-1.169-.977-.976-2.145 2.145 4.826 4.826.976-.977-3.85-3.85z" fill="#1D327B"/><path d="M27.223 49.267c9.205 0 16.667-7.462 16.667-16.666 0-9.205-7.462-16.667-16.667-16.667-9.204 0-16.666 7.462-16.666 16.667 0 9.204 7.462 16.666 16.666 16.666z" fill="#9F9D9D"/><path d="M12.02 32.6c0-8.959 7.07-16.267 15.934-16.65-.243-.01-.487-.016-.733-.016-9.204 0-16.666 7.462-16.666 16.667 0 9.204 7.462 16.666 16.666 16.666.246 0 .49-.005.733-.016-8.865-.383-15.934-7.691-15.934-16.65z" fill="#A09A9A"/><path d="M27.223 46.234c7.539 0 13.65-6.111 13.65-13.65 0-7.54-6.111-13.65-13.65-13.65-7.54 0-13.65 6.11-13.65 13.65 0 7.538 6.11 13.65 13.65 13.65z" fill="#D9D9D9"/><path d="M15.525 32.584c0-7.21 5.591-13.116 12.674-13.616a13.787 13.787 0 00-.976-.035c-7.54 0-13.65 6.112-13.65 13.65 0 7.54 6.11 13.651 13.65 13.651.328 0 .654-.012.977-.035-7.083-.5-12.675-6.405-12.675-13.615z" fill="#D9D9D9"/><path d="M27.224 34.1a1.523 1.523 0 100-3.045 1.523 1.523 0 000 3.045z" fill="#1D327B"/><path d="M43.312 21c.345.287.69.287 1.036 0l3.217-3.217a.732.732 0 000-1.036l-3.217-3.217a.732.732 0 00-1.036 0l-3.217 3.217c-.244.455-.238.807.018 1.055l-1.58 1.579a17.339 17.339 0 00-9.061-4.034v-2.133a6.808 6.808 0 004.311-4.626.732.732 0 10-1.413-.385 5.335 5.335 0 01-2.898 3.43V9.808c.38-.048.758-.288.758-.732v-4.55a.732.732 0 00-.733-.733h-4.55a.732.732 0 00-.732.732v4.55c0 .445.377.685.758.733v1.828A5.34 5.34 0 0121.888 6.8a5.34 5.34 0 015.334-5.335 5.343 5.343 0 015.148 3.93.732.732 0 101.413-.384A6.81 6.81 0 0027.222 0a6.807 6.807 0 00-6.799 6.8c0 2.96 1.904 5.484 4.55 6.415v2.131a17.33 17.33 0 00-8.998 3.991l-1.535-1.535c.256-.248.458-.537.018-1.055l-3.217-3.217a.732.732 0 00-1.036 0l-3.218 3.217c-.394.518-.286.69 0 1.036l3.218 3.218c.314.314.75.217 1.054-.019l1.686 1.686a17.348 17.348 0 00-2.293 4.627H5.988a.732.732 0 100 1.465h4.263a17.345 17.345 0 00-.411 3.108H2.955a.732.732 0 100 1.465H9.84c.043 1.037.178 2.05.395 3.034h-2.73a.732.732 0 100 1.464h3.122C12.853 44.877 19.45 50 27.222 50c4.361 0 8.533-1.62 11.747-4.564a17.346 17.346 0 005.575-11.194.733.733 0 00-1.459-.136c-.769 8.226-7.589 14.43-15.863 14.43-8.786 0-15.934-7.15-15.934-15.935 0-8.787 7.148-15.935 15.934-15.935 8.163 0 15.079 6.275 15.86 14.386a.732.732 0 101.458-.14 17.315 17.315 0 00-2.99-8.186l1.744-1.744.018.019zm.518-5.916l2.182 2.181-2.182 2.182-.011-.012-.007-.007-2.164-2.163 2.182-2.181zM25.68 5.257h3.085v3.085H25.68V5.257zm.758 4.55h1.569v2.268a5.277 5.277 0 01-1.569 0V9.808zm1.569 3.745v1.615h-1.569v-1.615c.484.12 1.184.12 1.569 0zM8.54 17.265l2.182-2.181 2.181 2.181-2.181 2.182-2.182-2.182zm3.754 2.681l1.109-1.109 1.494 1.494c-.37.371-.722.759-1.057 1.162l-1.546-1.547zm28.364 1.6a17.477 17.477 0 00-1.053-1.166l1.543-1.543 1.11 1.11-1.6 1.599z" fill="#000"/><path d="M37.402 41.707a.732.732 0 001.03-.11c2.017-2.505 3.233-5.809 3.173-9.029-.008-7.824-6.546-14.36-14.37-14.367-7.825-.12-14.395 6.643-14.395 14.383 0 7.835 6.548 14.383 14.383 14.383 3.223 0 6.27-1.042 8.811-3.014a.733.733 0 00-.898-1.158c-.27.21-.547.407-.83.593l-1.14-1.976a.732.732 0 10-1.269.732l1.142 1.978a12.758 12.758 0 01-5.083 1.357v-2.278a.732.732 0 00-1.465 0v2.28a12.824 12.824 0 01-5.081-1.363l1.139-1.974a.732.732 0 10-1.269-.732l-1.138 1.971a13.022 13.022 0 01-3.719-3.718l1.972-1.139a.732.732 0 00-.733-1.268l-1.973 1.14a12.823 12.823 0 01-1.363-5.082h2.28a.732.732 0 100-1.465h-2.28a12.824 12.824 0 011.363-5.08l1.973 1.139c.37.192.704.102 1-.268a.732.732 0 00-.267-1.001l-1.971-1.138a13.022 13.022 0 013.719-3.718l1.137 1.97c.297.371.63.46 1 .268a.732.732 0 00.269-1l-1.14-1.973a12.825 12.825 0 015.082-1.363v2.28a.732.732 0 101.465 0v-2.28c1.818.103 3.538.583 5.08 1.363l-1.139 1.973a.732.732 0 00.268 1c.37.192.704.103 1-.268l1.138-1.97a13.023 13.023 0 013.719 3.718l-1.97 1.138a.732.732 0 00-.269 1c.297.37.63.46 1 .268l1.973-1.139a12.823 12.823 0 011.363 5.081H37.84a.732.732 0 100 1.465h2.28a12.736 12.736 0 01-1.356 5.085l-1.98-1.143a.732.732 0 10-.733 1.268l1.977 1.141c-.228.346-.474.683-.737 1.01a.733.733 0 00.11 1.03z" fill="#000"/><path d="M33.085 26.697a.733.733 0 00-1.036 0l-3.849 3.85a2.257 2.257 0 00-3.233 2.031 2.257 2.257 0 002.255 2.255 2.258 2.258 0 002.02-3.256l3.843-3.844a.733.733 0 000-1.036zm-5.863 6.67a.791.791 0 010-1.58.79.79 0 010 1.58zm-22.75 3.034H2.955a.732.732 0 000 1.465h1.517a.732.732 0 100-1.465z" fill="#000"/></g><defs><clipPath id="clip0"><path fill="#fff" d="M0 0h50v50H0z"/></clipPath></defs></svg>