<svg width="50" height="50" fill="none" xmlns="http://www.w3.org/2000/svg"><g clip-path="url(#clip0)"><path d="M32.523 30.194l-8.69-2.973h-8.56l-8.69 2.973a4.026 4.026 0 00-2.724 3.809v15.265h31.387V34.003a4.025 4.025 0 00-2.723-3.809z" fill="#D9D9D9"/><path d="M18.2 27.221l-8.69 2.973a4.026 4.026 0 00-2.723 3.808v15.266H3.86V34.002a4.026 4.026 0 012.723-3.808l8.69-2.973h2.929z" fill="#D9D9D9"/><path d="M23.835 19.269v7.958l-4.283 3.225-4.282-3.225V19.27h8.565z" fill="#D9D9D9"/><path d="M21.016 29.35l-1.464 1.102-4.282-3.225V19.27h2.928v7.958l2.818 2.123z" fill="#9E9E9E"/><path d="M23.835 19.269v6.357a8.66 8.66 0 01-3.723.834h-1.121a8.676 8.676 0 01-3.721-.833v-6.358h8.565z" fill="#9E9E9E"/><path d="M12.209 8.813v8.911a6.784 6.784 0 006.784 6.784h1.12a6.784 6.784 0 006.784-6.784V8.813c0-1.148-.93-2.078-2.077-2.078H14.286c-1.147 0-2.077.93-2.077 2.078z" fill="#D9D9D9"/><path d="M20.53 24.495a6.514 6.514 0 01-.417.013h-1.12a6.784 6.784 0 01-6.784-6.783V8.812c0-1.147.93-2.077 2.077-2.077h1.952c-1.147 0-2.077.93-2.077 2.077v8.913a6.784 6.784 0 006.368 6.77zm6.366-13.865h1.47a2.04 2.04 0 012.04 2.04v1.528a2.04 2.04 0 01-2.04 2.04h-1.47v-5.607z" fill="#D9D9D9"/><path d="M19.553 30.452l-3.032 1.852 1.516 2.695h3.032l1.516-2.695-3.032-1.852z" fill="#F25A74"/><path d="M18.471 32.303L19.988 35h-1.952l-1.517-2.696 3.033-1.851.976.596-2.056 1.255z" fill="#E83D5A"/><path d="M18.037 35l-1.515 14.268h6.063l-1.516-14.269h-3.032z" fill="#F25A74"/><path d="M19.988 34.999l-1.517 14.269H16.52l1.516-14.269h1.952z" fill="#E83D5A"/><path d="M12.209 10.63h-1.47a2.04 2.04 0 00-2.04 2.04v1.528a2.04 2.04 0 002.04 2.04h1.47v-5.607z" fill="#D9D9D9"/><path d="M15.269 27.227l4.283 3.224-6.064 3.705v-6.325l1.78-.604zm8.566 0l-4.282 3.224 6.063 3.705v-6.325l-1.78-.604z" fill="#9E9E9E"/><path d="M37.208 49.244a9.072 9.072 0 100-18.143 9.072 9.072 0 000 18.143z" fill="#E30613"/><path d="M30.089 40.173a9.073 9.073 0 018.095-9.02 9.072 9.072 0 100 18.04 9.073 9.073 0 01-8.095-9.02z" fill="#E30613"/><path d="M36.45 44.732c-.404 0-.793-.16-1.08-.447l-3.032-3.032a1.528 1.528 0 012.16-2.16l1.786 1.786 3.491-4.654a1.527 1.527 0 112.444 1.833l-4.547 6.063a1.528 1.528 0 01-1.222.611z" fill="#D9D9D9"/><path d="M28.764 10.63l-2.287-1.928a3.484 3.484 0 00-4.51.014 3.484 3.484 0 01-4.5.02c-1.312-1.105-3.217-1.187-4.555-.065l-2.338 1.96V6.783A6.051 6.051 0 0116.625.732h6.088a6.051 6.051 0 016.051 6.05v3.849z" fill="#9E9E9E"/><path d="M19.553.732a6.05 6.05 0 00-6.05 6.051v1.49a3.352 3.352 0 00-.591.399l-2.338 1.958V6.784A6.05 6.05 0 0116.625.732h2.928z" fill="#9E9E9E"/><path d="M16.392 15.103a.732.732 0 00.732-.732v-.961a.732.732 0 00-1.464 0v.96c0 .405.328.733.732.733zm6.307 0a.732.732 0 00.732-.732v-.961a.732.732 0 00-1.464 0v.96c0 .405.328.733.732.733zm-3.147 5.816a2.57 2.57 0 002.568-2.568.732.732 0 00-1.464 0 1.105 1.105 0 01-2.207 0 .732.732 0 00-1.465 0 2.57 2.57 0 002.568 2.568z" fill="#000"/><path d="M46.267 41.043a.732.732 0 00-.848.593 8.322 8.322 0 01-8.211 6.877c-4.599 0-8.34-3.742-8.34-8.34 0-4.599 3.741-8.34 8.34-8.34a8.326 8.326 0 018.21 6.868.732.732 0 101.441-.256 9.788 9.788 0 00-9.651-8.076c-.884 0-1.74.118-2.556.338a4.742 4.742 0 00-1.892-1.205l-8.193-2.803v-2.926c2.113-1.56 3.088-4.26 3.061-6.803h.739a2.775 2.775 0 002.771-2.772V12.67a2.775 2.775 0 00-1.642-2.53V6.783A6.79 6.79 0 0022.713 0h-6.087a6.79 6.79 0 00-6.783 6.783v3.265a2.776 2.776 0 00-1.876 2.622v1.528a2.775 2.775 0 002.772 2.772h.738c-.027 2.544.949 5.244 3.061 6.804v2.925l-8.193 2.803a4.758 4.758 0 00-3.218 4.5v2.286a.732.732 0 101.464 0v-2.285c0-1.408.895-2.66 2.228-3.116l5.938-2.032v5.301c0 .595.67.896 1.114.625l2.384-1.457 1.03 1.83-1.42 13.382h-6.19V37.429a.732.732 0 00-1.464 0v11.107H4.59v-9.057a.732.732 0 00-1.463 0v9.789c0 .404.328.732.732.732h33.349a9.805 9.805 0 009.653-8.109.732.732 0 00-.594-.848zM20.853 30.388l3.113-2.344.918.312v4.495l-4.03-2.463zm-3.348 2.172l2.048-1.25 2.047 1.25-.96 1.707h-2.175l-.96-1.707zm-1.5-5.697V24.62c1.96.853 5.135.853 7.096 0v2.245l-3.548 2.671-3.549-2.672zm13.67-12.665a1.31 1.31 0 01-1.308 1.308h-.738v-4.143h.738c.72 0 1.307.586 1.307 1.307v1.528zm-18.198 1.308h-.738a1.309 1.309 0 01-1.308-1.308V12.67c0-.72.587-1.307 1.308-1.307h.738v4.143zm1.463 2.219V9.603c1.87-1.524 2.956-.778 4.793.19.357.189.8.052.989-.305.188-.358.02-.75-.306-.99-2.583-1.905-5.005-1.62-7.11.564V6.783a5.325 5.325 0 015.32-5.319h6.087a5.325 5.325 0 015.32 5.32v2.272c-2.302-2.232-4.46-2.376-7.094-.53-.41.287-.51.618-.33.98a.73.73 0 00.981.33c1.79-.888 2.589-1.78 4.574-.44v8.329c0 8.035-13.224 8.035-13.224 0zm1.281 10.63l.918-.31 3.113 2.343-4.03 2.463v-4.495zm4.474 7.376h1.715l1.357 12.805h-4.43l1.358-12.805zm4.545 12.805l-1.42-13.381 1.03-1.83 2.383 1.456c.445.271 1.114-.03 1.114-.625v-5.3l5.938 2.03c.282.097.547.232.79.398-3.347 1.562-5.672 4.959-5.672 8.889a9.807 9.807 0 004.693 8.363H23.24z" fill="#000"/><path d="M42.351 35.334a2.262 2.262 0 00-3.163.452l-2.984 3.979-1.19-1.19a2.262 2.262 0 00-3.195 0 2.263 2.263 0 000 3.196l3.031 3.031a2.26 2.26 0 003.406-.242l4.547-6.063a2.262 2.262 0 00-.452-3.163zm-.72 2.285l-4.547 6.063c-.373.393-.878.438-1.198.085l-3.032-3.032a.796.796 0 010-1.124c.375-.31.75-.31 1.125 0l1.786 1.786c.392.31.76.283 1.103-.078l3.491-4.655a.796.796 0 011.273.955z" fill="#000"/></g><defs><clipPath id="clip0"><path fill="#fff" d="M0 0h50v50H0z"/></clipPath></defs></svg>