<svg width="50" height="50" fill="none" xmlns="http://www.w3.org/2000/svg"><g clip-path="url(#clip0)"><path fill-rule="evenodd" clip-rule="evenodd" d="M7.807 9.81a2.869 2.869 0 100-5.737 2.869 2.869 0 000 5.737zM37.25 4.074a2.869 2.869 0 10.002 5.738 2.869 2.869 0 00-.001-5.738zM26.495 43.058a2.87 2.87 0 10-5.733-.003 2.87 2.87 0 005.733.003z" fill="#1D327B"/><path fill-rule="evenodd" clip-rule="evenodd" d="M7.808 9.81a2.869 2.869 0 10-.972-5.567 2.867 2.867 0 01-.086 5.368c.327.13.684.2 1.058.2zM36.28 4.243a2.867 2.867 0 01-.087 5.368c.33.13.684.2 1.058.2a2.867 2.867 0 002.868-2.869 2.867 2.867 0 00-3.84-2.699zm-9.784 38.815a2.87 2.87 0 00-3.84-2.702 2.871 2.871 0 01-.086 5.37 2.869 2.869 0 003.925-2.669z" fill="#1D327B"/><path fill-rule="evenodd" clip-rule="evenodd" d="M20.827 25.612l-5.877-9.36H.732l5.875 9.36-5.875 9.362H14.95l5.877-9.362z" fill="#9E9E9E"/><path fill-rule="evenodd" clip-rule="evenodd" d="M14.95 16.252l5.876 9.36-5.877 9.362h14.22l5.878-9.362-5.877-9.36H14.95z" fill="#9E9E9E"/><path fill-rule="evenodd" clip-rule="evenodd" d="M29.17 16.252l5.877 9.36-5.877 9.362h14.22l5.877-9.362-5.877-9.36H29.17z" fill="#D9D9D9"/><path fill-rule="evenodd" clip-rule="evenodd" d="M10.475 16.252l5.874 9.36-5.874 9.362h4.476l5.877-9.362-5.877-9.36h-4.476zm14.218 0l5.874 9.36-5.874 9.362h4.476l5.878-9.362-5.877-9.36h-4.477z" fill="#9E9E9E"/><path fill-rule="evenodd" clip-rule="evenodd" d="M38.912 16.252l5.877 9.36-5.877 9.362h4.479l5.877-9.362-5.877-9.36h-4.479z" fill="#D9D9D9"/><path d="M49.888 25.222l-5.877-9.36a.732.732 0 00-.62-.342h-5.408v-5.052a3.607 3.607 0 002.87-3.526c0-1.985-1.616-3.6-3.602-3.6a3.604 3.604 0 00-3.6 3.6 3.606 3.606 0 002.867 3.526v5.052H23.634a.732.732 0 100 1.465h5.131l5.418 8.627-5.418 8.63h-4.404v-3.885a.732.732 0 10-1.465 0v3.885h-6.621l5.172-8.24a.732.732 0 000-.78l-5.172-8.237h3.979a.732.732 0 000-1.465H8.54v-5.052a3.607 3.607 0 002.868-3.526c0-1.985-1.615-3.6-3.6-3.6a3.604 3.604 0 00-3.6 3.6 3.606 3.606 0 002.868 3.526v5.052H.733a.732.732 0 00-.62 1.122l5.629 8.97-5.63 8.973a.732.732 0 00.62 1.122h4.061a.732.732 0 100-1.465H2.057l5.17-8.24a.733.733 0 000-.78l-5.17-8.237h5.019v2.658a.733.733 0 001.465 0v-2.658h6.004l5.417 8.627-5.417 8.63H8.173a.732.732 0 100 1.465h14.723v3.823a3.609 3.609 0 00-2.868 3.528c0 1.985 1.615 3.6 3.6 3.6 1.986 0 3.6-1.615 3.6-3.6a3.609 3.609 0 00-2.867-3.528v-3.823h19.03c.252 0 .486-.13.62-.343L49.888 26a.732.732 0 000-.779zM35.115 6.942a2.138 2.138 0 014.274 0 2.138 2.138 0 01-4.274 0zm-29.442 0c0-1.177.958-2.135 2.135-2.135 1.178 0 2.136.958 2.136 2.135a2.138 2.138 0 01-2.136 2.136 2.138 2.138 0 01-2.135-2.136zm20.09 36.116a2.138 2.138 0 01-2.135 2.135 2.138 2.138 0 010-4.274 2.14 2.14 0 012.136 2.139zm17.223-8.816H30.495l5.173-8.24a.732.732 0 000-.78l-5.173-8.237h6.024v2.658a.732.732 0 101.464 0v-2.658h5.003l5.417 8.627-5.417 8.63z" fill="#000"/></g><defs><clipPath id="clip0"><path fill="#fff" d="M0 0h50v50H0z"/></clipPath></defs></svg>