<svg width="50" height="50" fill="none" xmlns="http://www.w3.org/2000/svg"><g clip-path="url(#clip0)"><path d="M40.75 3.503v20.82a.805.805 0 01-.806.805H13.975a.805.805 0 01-.805-.804V3.504c0-.445.36-.805.805-.805h25.969c.445 0 .805.36.805.804z" fill="#9E9E9E"/><path d="M29.276 12.29h-4.633a.805.805 0 01-.805-.804V2.699h6.243v8.787c0 .444-.36.805-.805.805zm11.473-8.787v20.82c0 .445-.36.806-.805.806h-2.762c.445 0 .805-.36.805-.805V3.504a.805.805 0 00-.805-.806h2.762c.445 0 .805.361.805.805z" fill="#D9D9D9"/><path d="M34.657 25.129H19.465V15.097c0-.222.18-.403.402-.403h14.388c.222 0 .402.18.402.403v10.032z" fill="#E30613"/><path d="M34.658 15.097v10.031h-2.146v-10.03a.403.403 0 00-.403-.404h2.146c.222 0 .403.18.403.403z" fill="#E30613"/><path d="M29.276 10.335h-4.633a.805.805 0 01-.805-.805V2.843c0-.222.18-.402.402-.402h5.439c.222 0 .402.18.402.402V9.53c0 .445-.36.805-.805.805z" fill="#D9D9D9"/><path d="M30.08 2.843V9.53c0 .445-.36.805-.805.805h-2.214c.445 0 .805-.36.805-.805V2.843a.403.403 0 00-.403-.402h2.215c.222 0 .402.18.402.402z" fill="#D9D9D9"/><path d="M49.269 25.934v20.82c0 .445-.36.805-.806.805H22.495a.805.805 0 01-.806-.805v-20.82c0-.445.36-.805.806-.805h25.968c.446 0 .806.36.806.805z" fill="#9E9E9E"/><path d="M32.357 25.128v8.788c0 .445.36.805.805.805h4.634c.444 0 .805-.36.805-.805v-8.788h-6.244zm16.909.806v20.82c0 .445-.36.805-.805.805H45.7c.445 0 .805-.36.805-.805v-20.82a.805.805 0 00-.805-.805h2.762c.445 0 .805.36.805.805z" fill="#9E9E9E"/><path d="M44.661 47.56h-5.427V37.526c0-.222.18-.402.403-.402h4.621c.223 0 .403.18.403.402V47.56z" fill="#E30613"/><path d="M44.663 37.528v10.031h-2.145V37.528a.403.403 0 00-.403-.403h2.146c.222 0 .402.18.402.403z" fill="#E30613"/><path d="M32.357 25.128v6.833c0 .444.36.805.805.805h4.634c.444 0 .805-.36.805-.805v-6.833h-6.244z" fill="#D9D9D9"/><path d="M36.385 25.128v6.833c0 .444-.36.805-.805.805h2.215a.806.806 0 00.805-.805v-6.833h-2.215z" fill="#D9D9D9"/><path d="M28.312 25.934v20.82c0 .445-.36.805-.806.805H1.538a.805.805 0 01-.806-.805v-20.82c0-.445.36-.805.806-.805h25.968c.445 0 .806.36.806.805z" fill="#9E9E9E"/><path d="M11.4 25.128v8.788c0 .445.36.805.805.805h4.634c.444 0 .805-.36.805-.805v-8.788H11.4zm16.91.806v20.82c0 .445-.36.805-.806.805h-2.762c.445 0 .805-.36.805-.805v-20.82a.805.805 0 00-.805-.805h2.762c.445 0 .805.36.805.805z" fill="#D9D9D9"/><path d="M23.706 47.56h-5.427V37.526c0-.222.18-.402.403-.402h4.622c.222 0 .402.18.402.402V47.56z" fill="#E30613"/><path d="M23.706 37.528v10.031h-2.145V37.528a.403.403 0 00-.403-.403h2.146c.222 0 .402.18.402.403z" fill="#E30613"/><path d="M11.4 25.128v6.833c0 .444.36.805.805.805h4.634c.444 0 .805-.36.805-.805v-6.833H11.4z" fill="#D9D9D9"/><path d="M15.43 25.128v6.833c0 .444-.36.805-.805.805h2.215a.806.806 0 00.805-.805v-6.833H15.43z" fill="#D9D9D9"/><path d="M27.874 19.912a.732.732 0 00-.732-.733h-.304a.732.732 0 100 1.465h.303a.732.732 0 00.733-.732zm-1.036-1.715h4.764a.732.732 0 000-1.465h-4.764a.732.732 0 100 1.465zm4.762.983h-2.17a.732.732 0 100 1.464h2.17a.732.732 0 100-1.465z" fill="#000"/><path d="M48.463 24.396H41.48l.002-.072V3.504a1.54 1.54 0 00-1.537-1.538H30.4a1.13 1.13 0 00-.72-.258h-5.438a1.13 1.13 0 00-.72.258h-9.545a1.54 1.54 0 00-1.538 1.538v8.82a.732.732 0 101.465 0v-8.82c0-.04.033-.073.073-.073h9.13v6.1c0 .847.69 1.537 1.537 1.537h4.634a1.54 1.54 0 001.537-1.538v-6.1h9.13c.04 0 .073.033.073.074v20.82a.072.072 0 01-.034.061l-.015.011h-4.577v-9.3c0-.625-.51-1.134-1.135-1.134H19.87c-.626 0-1.135.509-1.135 1.135v9.3h-4.782l-.015-.012a.073.073 0 01-.034-.061V15.78a.732.732 0 10-1.465 0v8.543l.002.072H1.537A1.54 1.54 0 000 25.933v20.82c0 .848.69 1.538 1.537 1.538h29.91a.732.732 0 000-1.465H29.04c.002-.024.004-.048.004-.073v-9.88a.732.732 0 10-1.465 0v9.88c0 .04-.032.073-.073.073H24.44v-9.3c0-.625-.51-1.135-1.135-1.135h-4.622c-.626 0-1.135.51-1.135 1.135v9.3H1.537a.073.073 0 01-.072-.073v-20.82c0-.04.032-.073.072-.073h9.13v6.1c0 .848.69 1.537 1.538 1.537h4.634a1.54 1.54 0 001.537-1.537v-6.1h9.13c.04 0 .073.033.073.073v7.484a.732.732 0 101.465 0v-7.484c0-.024-.003-.048-.004-.073h2.584v6.1c0 .848.69 1.537 1.537 1.537h4.634a1.54 1.54 0 001.537-1.537v-6.1h9.13c.04 0 .073.033.073.073v20.82c0 .04-.033.073-.073.073h-3.068v-9.3c0-.625-.509-1.135-1.134-1.135h-4.622c-.626 0-1.135.51-1.135 1.135v9.3h-3.599a.732.732 0 100 1.465h13.559A1.54 1.54 0 0050 46.754v-20.82a1.54 1.54 0 00-1.537-1.538zM29.35 9.53c0 .04-.032.073-.072.073h-4.634a.073.073 0 01-.072-.073V3.173h4.779V9.53zM19.012 37.857h3.962v8.97h-3.962v-8.97zm1.188-22.43h13.727v8.969H20.2v-8.97zM16.91 31.96c0 .04-.032.072-.072.072h-4.634a.073.073 0 01-.072-.072v-6.1h4.778v6.1zm20.956 0c0 .04-.032.072-.072.072H33.16a.073.073 0 01-.072-.072v-6.1h4.779v6.1zm2.101 5.896h3.962v8.97h-3.962v-8.97z" fill="#000"/><path d="M41.613 40.859h.671a.732.732 0 100-1.465h-.67a.732.732 0 100 1.465zm.671.751h-.67a.732.732 0 100 1.465h.67a.732.732 0 000-1.465zm0 2.215h-.67a.732.732 0 100 1.465h.67a.732.732 0 000-1.465zm-38.786.461a.732.732 0 000 1.465h.304a.732.732 0 100-1.465h-.304zm4.764-2.447H3.498a.732.732 0 000 1.465h4.764a.732.732 0 100-1.465zm.001 2.447H6.092a.732.732 0 000 1.465h2.17a.732.732 0 100-1.465zm0-5.97H6.006a.732.732 0 000 1.465h2.257a.732.732 0 100-1.465zm12.393 2.543h.671a.732.732 0 100-1.465h-.67a.732.732 0 100 1.465zm.671.751h-.67a.732.732 0 100 1.465h.67a.732.732 0 100-1.465zm0 2.215h-.67a.732.732 0 100 1.465h.67a.732.732 0 100-1.465z" fill="#000"/></g><defs><clipPath id="clip0"><path fill="#fff" d="M0 0h50v50H0z"/></clipPath></defs></svg>