<svg width="50" height="50" fill="none" xmlns="http://www.w3.org/2000/svg"><g clip-path="url(#clip0)"><path d="M18.739 20.303h-6.262v25.05h6.262v-25.05z" fill="#1D327B"/><path d="M14.825 20.303h-2.348v25.05h2.348v-25.05z" fill="#1D327B"/><path d="M15.605 22.652c6.053 0 10.96-4.907 10.96-10.96 0-6.052-4.907-10.958-10.96-10.958C9.553.734 4.646 5.64 4.646 11.693c0 6.052 4.907 10.959 10.96 10.959z" fill="#9E9E9E"/><path d="M15.607 20.303a8.61 8.61 0 100-17.22 8.61 8.61 0 000 17.22z" fill="#F6F6F7"/><path d="M17.955 19.52a8.61 8.61 0 01-3.87-16.304 8.61 8.61 0 105.39 16.17 8.67 8.67 0 01-1.52.134z" fill="#D9DADE"/><path d="M6.215 49.266h2.348l.783-2.348H6.215v2.348zm37.572 0H41.44l-.783-2.348h3.131v2.348z" fill="#7A7F8D"/><path d="M49.265 44.57H.732v2.348h48.533v-2.349z" fill="#ECEDEF"/><path d="M41.438 28.914H24.217v15.655h17.22V28.914z" fill="#D9D9D9"/><path d="M26.565 28.914h-2.348v15.655h2.348V28.914z" fill="#9E9E9E"/><path d="M34.393 28.914h-3.131v3.914h3.13v-3.914z" fill="#D9D9D9"/><path d="M34.393 38.307H24.217v3.131h10.176v-3.13z" fill="#F6F6F7"/><path d="M26.565 38.307h-2.348v3.131h2.348v-3.13z" fill="#D9DADE"/><path d="M24.95 11.693c0-5.153-4.191-9.345-9.344-9.345-5.152 0-9.344 4.192-9.344 9.345 0 5.152 4.192 9.344 9.344 9.344 5.153 0 9.345-4.192 9.345-9.344zm-17.22 0c0-4.343 3.533-7.877 7.876-7.877 4.344 0 7.877 3.534 7.877 7.877s-3.534 7.877-7.877 7.877-7.877-3.534-7.877-7.877z" fill="#000"/><path d="M15.453 8.967a.734.734 0 00-1.007-.252l-2.802 1.682V9.344a.734.734 0 00-1.468 0v4.697a.734.734 0 001.468 0V12.99l2.802 1.681a.741.741 0 001.045-.324.741.741 0 00-.29-.934l-2.865-1.72 2.865-1.718a.734.734 0 00.252-1.007zm1.72 5.808h3.914a.734.734 0 00.734-.734v-2.348a.734.734 0 00-.734-.734h-1.565a.734.734 0 100 1.468h.831v.88h-2.446v-3.229h3.18a.734.734 0 100-1.467h-3.914a.734.734 0 00-.733.733v4.697c0 .405.328.734.733.734z" fill="#000"/><path d="M49.266 43.836h-7.094V28.914a.734.734 0 00-.734-.734h-17.22a.734.734 0 00-.735.734v14.922h-4.011V22.728c4.553-1.6 7.827-5.942 7.827-11.035C27.3 5.245 22.054 0 15.607 0 9.159 0 3.914 5.245 3.914 11.693c0 5.093 3.274 9.436 7.828 11.035v21.108H.734a.734.734 0 00-.734.733v2.349c0 .405.329.734.734.734h4.745v1.614c0 .406.329.734.734.734h2.349a.734.734 0 00.696-.502l.615-1.846h30.254l.615 1.846c.1.3.38.502.696.502h2.349a.734.734 0 00.734-.734v-1.614h4.745a.734.734 0 00.734-.734v-2.349a.734.734 0 00-.734-.733zM33.66 29.648v2.446h-1.664v-2.446h1.664zm-8.71 9.392h8.709v1.664H24.95V39.04zm0 3.131h9.442a.734.734 0 00.734-.734v-3.13a.734.734 0 00-.734-.735H24.95v-7.925h5.577v3.18c0 .405.329.733.734.733h3.132a.734.734 0 00.733-.733v-3.18h5.578v14.187H24.95v-1.663zM5.38 11.691c0-5.637 4.588-10.224 10.226-10.224 5.638 0 10.225 4.587 10.225 10.225s-4.587 10.225-10.225 10.225S5.382 17.33 5.382 11.693zm7.828 11.446a11.7 11.7 0 004.795 0v20.698h-4.795V23.138zM8.033 48.532H6.947v-.88h1.38l-.294.88zm35.02 0h-1.086l-.293-.88h1.379v.88zm5.48-2.348H1.467v-.88h47.064v.88z" fill="#000"/><path d="M29.697 35.225h-3.131a.734.734 0 100 1.468h3.131a.734.734 0 000-1.468zm4.696 0h-1.565a.734.734 0 000 1.468h1.565a.734.734 0 000-1.468z" fill="#000"/></g><defs><clipPath id="clip0"><path fill="#fff" d="M0 0h50v50H0z"/></clipPath></defs></svg>