<svg width="45" height="45" fill="none" xmlns="http://www.w3.org/2000/svg"><circle cx="22.5" cy="22.5" r="21.5" fill="#fff" stroke="#E30613" stroke-width="2"/><circle cx="22.5" cy="22.5" r="13.5" fill="#E30613"/><path d="M25.744 25.416V27h-6.348v-1.26l3.24-3.06c.344-.328.576-.608.696-.84.12-.24.18-.476.18-.708 0-.336-.116-.592-.348-.768-.224-.184-.556-.276-.996-.276-.368 0-.7.072-.996.216a1.859 1.859 0 00-.744.624l-1.416-.912c.328-.488.78-.868 1.356-1.14.576-.28 1.236-.42 1.98-.42.624 0 1.168.104 1.632.312.472.2.836.488 1.092.864.264.368.396.804.396 1.308 0 .456-.096.884-.288 1.284-.192.4-.564.856-1.116 1.368l-1.932 1.824h3.612z" fill="#fff"/></svg>