<svg width="45" height="45" fill="none" xmlns="http://www.w3.org/2000/svg"><circle cx="22.5" cy="22.5" r="21.5" fill="#fff" stroke="#E30613" stroke-width="2"/><circle cx="22.5" cy="22.5" r="13.5" fill="#E30613"/><path d="M23.392 22.02c.736.12 1.3.396 1.692.828.392.424.588.952.588 1.584 0 .488-.128.94-.384 1.356-.256.408-.648.736-1.176.984-.52.248-1.16.372-1.92.372a6.838 6.838 0 01-1.752-.228c-.568-.16-1.052-.384-1.452-.672l.756-1.488c.32.24.688.428 1.104.564a4.46 4.46 0 001.296.192c.488 0 .872-.092 1.152-.276a.92.92 0 00.42-.804c0-.688-.524-1.032-1.572-1.032h-.888v-1.284l1.728-1.956h-3.576V18.6h5.88v1.26l-1.896 2.16z" fill="#fff"/></svg>