<svg width="20" height="20" fill="none" xmlns="http://www.w3.org/2000/svg"><path d="M4.815.797a.667.667 0 00-.36.103A10.702 10.702 0 00.9 4.454a.667.667 0 001.138.696A9.37 9.37 0 015.15 2.038.667.667 0 004.815.797zM10 2a8 8 0 100 16 8 8 0 000-16zm-.004 1.333h.008c.366 0 .663.296.663.663v6.67H5.329a.662.662 0 01-.662-.662v-.008c0-.366.296-.663.662-.663h4.004V3.996c0-.367.296-.663.663-.663zm8.563 11.19a.666.666 0 00-.597.327 9.37 9.37 0 01-3.112 3.112.666.666 0 10.696 1.138 10.702 10.702 0 003.554-3.554.666.666 0 00-.541-1.022z" fill="#1D327B"/></svg>