<svg width="31" height="46" fill="none" xmlns="http://www.w3.org/2000/svg"><g filter="url(#filter0_d)"><path fill-rule="evenodd" clip-rule="evenodd" d="M16.831 20.89A9.491 9.491 0 1115.491 2a9.49 9.49 0 019.491 9.364c.465 8.378-8.251 18.557-11.68 21.057l3.53-11.532z" fill="#E30613"/><path d="M5 11.492c0 5.78 4.675 10.469 10.45 10.49L12.346 32.13l-.878 2.867 2.423-1.767c1.84-1.341 4.955-4.613 7.55-8.586 2.58-3.951 4.784-8.805 4.542-13.314C25.895 5.61 21.232 1 15.492 1 9.697 1 5 5.697 5 11.492z" stroke="#fff" stroke-width="2"/></g><path d="M22.062 11.491a6.571 6.571 0 11-13.142 0 6.571 6.571 0 0113.142 0z" fill="#fff"/><defs><filter id="filter0_d" x="0" y="0" width="31" height="45.571" filterUnits="userSpaceOnUse" color-interpolation-filters="sRGB"><feFlood flood-opacity="0" result="BackgroundImageFix"/><feColorMatrix in="SourceAlpha" values="0 0 0 0 0 0 0 0 0 0 0 0 0 0 0 0 0 0 127 0"/><feOffset dy="4"/><feGaussianBlur stdDeviation="2"/><feColorMatrix values="0 0 0 0 0 0 0 0 0 0 0 0 0 0 0 0 0 0 0.25 0"/><feBlend in2="BackgroundImageFix" result="effect1_dropShadow"/><feBlend in="SourceGraphic" in2="effect1_dropShadow" result="shape"/></filter></defs></svg>