<svg width="44" height="50" fill="none" xmlns="http://www.w3.org/2000/svg"><path d="M25.925 2.524h-.027a3.25 3.25 0 01-1.608-.419C20.458-.075 14.8.18 12.233 4.038c-1.065 1.6-1.17 4.041.06 5.473.217.255.33.582.338.917l.121 5.458h18.481l.173-7.758a5.483 5.483 0 00-5.481-5.604z" fill="#9E9E9E"/><path d="M25.924 2.524h-.026a3.25 3.25 0 01-1.608-.419C21.902.747 18.804.335 16.188 1.15c2.015-.108 4.108.365 5.831 1.32a3.32 3.32 0 001.608.407h.027c3.075 0 5.55 2.462 5.48 5.456l-.172 7.553h2.271l.172-7.758a5.482 5.482 0 00-5.48-5.604z" fill="#9E9E9E"/><path d="M26.854 18.417a3.894 3.894 0 00-3.848-3.299H20.99a3.895 3.895 0 00-3.849 3.3 6.205 6.205 0 01-2.948 4.36 7.83 7.83 0 00-3.8 6.716v18.168h23.208V29.494a7.83 7.83 0 00-3.8-6.716 6.205 6.205 0 01-2.948-4.36z" fill="#D9D9D9"/><path d="M29.805 22.777a6.205 6.205 0 01-2.948-4.36 3.894 3.894 0 00-3.848-3.299h-2.015c-.216 0-.428.02-.635.053a3.894 3.894 0 013.214 3.246 6.205 6.205 0 002.949 4.36 7.83 7.83 0 013.8 6.717v18.168h3.283V29.494a7.83 7.83 0 00-3.8-6.716z" fill="#9E9E9E"/><path d="M36.751 40.216L32.28 29.207a4.924 4.924 0 00-4.563-3.07H16.284a4.924 4.924 0 00-4.562 3.07L7.25 40.216l3.303 1.341 3.526-4.602v9.79h15.843v-9.79l3.527 4.602 3.302-1.341z" fill="#1D327B"/><path d="M32.279 29.207a4.924 4.924 0 00-4.562-3.07H25.3a4.925 4.925 0 014.562 3.07l4.472 11.008-1.46.594.573.748 3.303-1.342-4.472-11.008z" fill="#1D327B"/><path d="M27.86 38.848l6.416 3.2a1.783 1.783 0 001.591-3.19l-6.417-3.2-1.59 3.19zm-11.72 0l-6.417 3.2a1.783 1.783 0 01-1.59-3.19l6.416-3.2 1.591 3.19z" fill="#1D327B"/><path d="M21.998 32.288a8.538 8.538 0 00-7.076 13.317h4.098a5.634 5.634 0 01-2.654-4.78 5.638 5.638 0 015.632-5.631 5.639 5.639 0 015.633 5.632 5.634 5.634 0 01-2.655 4.779h4.099a8.501 8.501 0 001.46-4.78 8.538 8.538 0 00-8.537-8.537z" fill="#E30613"/><path d="M19.004 16.768v8.988c0 .626.274 1.22.75 1.627l.562.48a2.587 2.587 0 003.36 0l.563-.48c.476-.407.75-1 .75-1.627v-8.988h-5.985z" fill="#D9D9D9"/><path d="M24.989 24.548v-7.78h-5.985v7.78c1.87.629 4.114.629 5.985 0z" fill="#D9D9D9"/><path d="M30.465 17.939H13.518a1.889 1.889 0 110-3.778h16.947a1.889 1.889 0 110 3.778z" fill="#D9D9D9"/><path d="M28.29 19.61c-1.994 4.247-10.6 4.247-12.593 0-.743-1.583-.715-5.25-.076-8.31a1.533 1.533 0 011.324-1.22 16.772 16.772 0 008.25-3.295.933.933 0 011.211.06c2.239 1.902 3.107 10.158 1.883 12.766z" fill="#D9D9D9"/><path d="M32.664 44.547a3.776 3.776 0 01-2.198-.695 10.244 10.244 0 00-5.957-1.91h-5.024c-2.158 0-4.237.68-5.958 1.91a3.776 3.776 0 01-2.198.695H5.05A3.353 3.353 0 001.694 47.9v.849a.52.52 0 00.52.519h39.564a.519.519 0 00.52-.52V47.9a3.353 3.353 0 00-3.354-3.353h-6.28z" fill="#9E9E9E"/><path d="M41.783 46.936H2.218a.514.514 0 01-.336-.127 3.345 3.345 0 00-.183 1.091v.849a.52.52 0 00.52.519h39.564a.519.519 0 00.52-.52V47.9c0-.382-.066-.749-.183-1.09a.515.515 0 01-.337.126z" fill="#9E9E9E"/><path d="M30.695 36.987l-2.685-3.035a.885.885 0 00-1.25-.076l-.457.405a2.322 2.322 0 00-.2 3.277l.78.883c.85.96 2.317 1.05 3.278.2l.457-.404a.885.885 0 00.077-1.25zm-17.391 0l2.685-3.035a.885.885 0 011.25-.076l.457.405c.96.85 1.05 2.317.201 3.277l-.78.883a2.322 2.322 0 01-3.278.2l-.458-.404a.885.885 0 01-.077-1.25z" fill="#D9D9D9"/><path d="M19.139 15.785a.732.732 0 00.732-.733v-.198a.732.732 0 10-1.465 0v.198c0 .405.328.733.733.733zm5.711 0a.732.732 0 00.732-.733v-.198a.732.732 0 10-1.465 0v.198c0 .405.328.733.733.733zm-4.478 3.482a3.57 3.57 0 001.622.37 3.57 3.57 0 001.622-.37.732.732 0 10-.674-1.301c-.54.28-1.356.28-1.896 0a.732.732 0 10-.674 1.3z" fill="#000"/><path d="M38.947 43.815h-4.612v-.958a2.52 2.52 0 002.986-1.282 2.518 2.518 0 00-.356-2.776l-.812-1.999a.732.732 0 10-1.357.552l.078.192-4.843-2.414-1.47-1.663a1.608 1.608 0 00-1.63-.49 9.213 9.213 0 00-4.932-1.421c-1.759 0-3.455.49-4.931 1.42a1.607 1.607 0 00-1.63.49l-1.472 1.664-4.843 2.414 3.275-8.061a4.177 4.177 0 013.884-2.615h2.216c.172.409.437.777.782 1.072.345.226 1.129 1.28 2.719 1.28.765 0 1.53-.266 2.155-.8.358-.349.975-.67 1.345-1.552h2.216a4.177 4.177 0 013.884 2.615l1.892 4.658a.733.733 0 101.357-.552l-.513-1.264v-2.831a8.508 8.508 0 00-4.154-7.345 5.564 5.564 0 01-1.642-1.513c.391-.57.627-1.098.803-1.965h1.125a2.62 2.62 0 001.543-4.738l.128-5.79a6.168 6.168 0 00-1.77-4.483 6.166 6.166 0 00-4.442-1.87h-.027c-.445 0-.876-.11-1.246-.322A11.505 11.505 0 0017.68.083a.733.733 0 00.182 1.453 10.01 10.01 0 016.066 1.206 3.99 3.99 0 001.971.514h.026c1.289 0 2.494.507 3.395 1.428a4.714 4.714 0 011.354 3.428l-.118 5.319-.09-.002H29.44c-.297-2.758-1.1-5.903-2.56-7.144l-.057-.047-.01-.007a1.663 1.663 0 00-2.06-.029 15.93 15.93 0 01-7.888 3.15 2.248 2.248 0 00-1.955 1.775c-.154.73-.276 1.515-.361 2.302 0 0-1.088 0-1.117.002l-.067-3.02a2.191 2.191 0 00-.516-1.376c-.95-1.107-.952-3.167-.006-4.591a6.251 6.251 0 012.064-1.94.732.732 0 00-.74-1.263 7.7 7.7 0 00-2.543 2.391c-1.308 1.967-1.258 4.759.113 6.356.101.118.159.28.163.456l.078 3.489a2.62 2.62 0 001.543 4.738h1.124c.155.762.369 1.34.807 1.975a5.574 5.574 0 01-1.635 1.504 8.508 8.508 0 00-4.154 7.344v2.83l-2.63 6.475a2.518 2.518 0 00-.356 2.776 2.519 2.519 0 002.986 1.282v.957H5.05A4.09 4.09 0 00.965 47.9v.849c0 .69.561 1.25 1.251 1.25h29.225a.732.732 0 100-1.464H2.43V47.9a2.624 2.624 0 012.62-2.62h6.281c.956 0 1.863-.288 2.624-.832a9.481 9.481 0 015.531-1.774h5.025c2.063 0 3.973.66 5.532 1.774.76.544 1.668.831 2.623.831h6.281a2.624 2.624 0 012.62 2.621v.635H34.86a.732.732 0 100 1.465h6.922c.69 0 1.252-.561 1.252-1.251V47.9a4.09 4.09 0 00-4.086-4.085zM36.01 40.92c-.258.518-.89.73-1.409.471l-4.129-2.059c.166-.126.204-.17.633-.548a1.61 1.61 0 00.543-1.212l3.891 1.94c.251.125.438.34.527.607.09.266.07.55-.056.801zm-6.207-.096c0 .56-.059 1.112-.175 1.651-.438-.232-.89-.434-1.352-.603a6.376 6.376 0 00.026-1.934c.041.005.083.008.125.011l1.373.685.003.19zm-.793-4.64a.31.31 0 00.029.033l1.109 1.254c.056.063.05.16-.013.216l-.458.405a1.592 1.592 0 01-2.244-.137l-.78-.883a1.58 1.58 0 01-.397-1.15c.026-.424.215-.812.534-1.094l.457-.405a.152.152 0 01.216.014l1.547 1.748zm-3.38-2.27a3.015 3.015 0 00-.72 1.253 6.365 6.365 0 00-2.911-.707 6.364 6.364 0 00-2.91.707 3.025 3.025 0 00-.72-1.252 7.76 7.76 0 013.63-.896c1.278 0 2.516.308 3.63.896zm-9.096.522a.15.15 0 01.106-.05.149.149 0 01.11.037l.458.405c.318.282.507.67.533 1.094.026.423-.114.832-.396 1.15l-.78.883a1.591 1.591 0 01-2.244.137l-.458-.405a.153.153 0 01-.013-.216l2.684-3.035zm-2.165 8.04a7.739 7.739 0 01-.171-1.842l1.373-.685.125-.01a6.385 6.385 0 00.026 1.933c-.463.169-.914.371-1.353.603zm9.398-15.652l-.564.481a1.845 1.845 0 01-2.409 0l-.563-.48a1.404 1.404 0 01-.492-1.07v-2.474c.714.16 1.472.245 2.254.245h.009c.782 0 1.542-.086 2.257-.248v2.478c0 .412-.18.801-.492 1.068zm5.659-3.42a7.047 7.047 0 013.39 5.21 5.633 5.633 0 00-5.1-3.212h-1.993v-2.589a7.09 7.09 0 001.81-1.078 7.04 7.04 0 001.893 1.669zm2.197-7.355c0 .637-.519 1.156-1.157 1.156h-.931c.051-.71.058-1.49.019-2.313h.913c.637 0 1.156.519 1.156 1.157zm-14.597-5.242a17.396 17.396 0 008.613-3.44.21.21 0 01.127-.043c.045 0 .089.015.126.045l.04.033c.989.84 1.857 3.643 2.111 6.817.107 1.337.091 2.622-.044 3.62-.127.928-.316 1.593-.912 2.29-1.204 1.399-3.282 1.93-5.087 1.932h-.007c-1.82 0-3.915-.569-5.087-1.926-.598-.694-.79-1.36-.918-2.296-.136-1-.151-2.285-.043-3.62a22.53 22.53 0 01.398-2.792.785.785 0 01.683-.62zm-4.662 5.242c0-.638.519-1.157 1.156-1.157h.914c-.04.823-.033 1.603.018 2.313h-.932a1.157 1.157 0 01-1.156-1.156zm2.208 7.354a7.056 7.056 0 001.89-1.662c.52.432 1.132.794 1.812 1.077v2.584h-1.992a5.633 5.633 0 00-5.1 3.213 7.047 7.047 0 013.39-5.212zM7.987 40.921a1.043 1.043 0 01-.056-.801 1.04 1.04 0 01.527-.607l3.89-1.94c.001.447.183.894.544 1.212.44.387.47.423.633.548l-4.128 2.06a1.052 1.052 0 01-1.41-.472zm3.14 2.894v-1.649l1.62-.807c.036.654.142 1.299.314 1.925a3.028 3.028 0 01-1.73.53h-.204zm8.36-2.605c-.797 0-1.582.086-2.346.252a4.883 4.883 0 01.232-2.25 3.09 3.09 0 00.288-.286l.781-.883c.3-.338.516-.73.641-1.152A4.896 4.896 0 0122 35.926c1.05 0 2.076.341 2.915.965.125.421.341.814.64 1.152l.782.883c.09.102.187.197.288.285a4.865 4.865 0 01.232 2.251 11.016 11.016 0 00-2.345-.253h-5.025zm11.45 2.074a9.22 9.22 0 00.314-1.925l1.619.807v1.649h-.204c-.63 0-1.227-.184-1.73-.53z" fill="#000"/></svg>