<svg width="50" height="50" fill="none" xmlns="http://www.w3.org/2000/svg"><g clip-path="url(#clip0)"><path fill-rule="evenodd" clip-rule="evenodd" d="M14.696 30.62c-4.434.89-9.516 4.556-9.516 9.475v8.277c0 1.02.467.892 1.245.892h37.158c.778 0 1.245.127 1.245-.892v-8.277c0-4.866-4.977-8.506-9.378-9.448L25 28.125 14.696 30.62z" fill="#D9D9D9"/><path fill-rule="evenodd" clip-rule="evenodd" d="M29.71 45.197l-2.724-9.083-1.984-1.06-1.986 1.06-2.725 9.083c-.022.08-.041.086-.005.155l2.063 3.912h5.303l2.064-3.912c.04-.07.017-.075-.005-.155z" fill="#E30613"/><path fill-rule="evenodd" clip-rule="evenodd" d="M27.829 32.806l-.357-1.835-2.47-.7-2.64.742-.163 1.899.816 3.203h3.97l.844-3.309z" fill="#E30613"/><path fill-rule="evenodd" clip-rule="evenodd" d="M29.709 45.197l-2.725-9.083h-1.726l2.039 9.083c.024.08.044.086.008.155l-2.067 3.912h2.413l2.063-3.912c.039-.069.017-.075-.005-.155z" fill="#E30613"/><path fill-rule="evenodd" clip-rule="evenodd" d="M27.83 32.806l-2.827-2.535-1.14 1.093 2.02 1.885c.108.103.088.07.052.216l-.675 2.65h1.727l.843-3.309z" fill="#E30613"/><path fill-rule="evenodd" clip-rule="evenodd" d="M28.713 33.604c1.587 1.373.865 1.284 1.9.64l4.833-3.597.044-.033c-.523-.38-2.71-1.97-4.15-3.062-1.814-1.328-5.845 1.094-6.34 2.719l2.827 2.536.886.797z" fill="#D9D9D9"/><path fill-rule="evenodd" clip-rule="evenodd" d="M18.661 27.552c-.016-.005-3.538 2.746-3.97 3.062l.006.006 4.872 3.623c1.034.645.312.734 1.9-.64l3.536-3.332c-.686-1.83-2.54-3.785-6.344-2.719zm-7.298-10.627v1.09c0 1.393 1.56 2.813 2.938 2.794l1.718-2.492-1.911-2.494h-1.644c-.606 0-1.1.496-1.1 1.102z" fill="#D9D9D9"/><path fill-rule="evenodd" clip-rule="evenodd" d="M16.325 10.08l-2.216 3.789v5.304c0 .531.067 1.08.194 1.636.542 2.378 2.174 4.897 4.354 6.743 1.09.925 2.319 1.68 3.616 2.162.99.371 1.86.557 2.728.557h.088c.839-.014 1.683-.2 2.64-.557 1.444-.54 2.808-1.417 3.989-2.491a14.62 14.62 0 001.532-1.625c1.207-1.492 2.078-3.172 2.446-4.79a7.346 7.346 0 00.194-1.635v-5.304c-4.17-8.911-8.596-2.447-15.174-5.89-1.682-.878-3.16-.004-4.39 2.1z" fill="#D9D9D9"/><path fill-rule="evenodd" clip-rule="evenodd" d="M35.89 15.823l-1.062 2.021.869 2.965c1.377.02 2.94-1.4 2.94-2.793v-1.091c0-.606-.497-1.102-1.103-1.102H35.89z" fill="#D9D9D9"/><path fill-rule="evenodd" clip-rule="evenodd" d="M18.56 3.153c-4.813.795-4.448 7.444-4.448 8.34v4.33l2.216-3.792c1.23-2.101 2.708-2.979 4.39-2.098 6.579 3.443 11.005-3.023 15.174 5.89V9.85c0-5.507-6.1-9.114-11.218-9.116h-.02c-2.149.002-4.121.64-5.394 2.04-.36.393-.171.29-.7.38z" fill="#9E9E9E"/><path fill-rule="evenodd" clip-rule="evenodd" d="M32.236 15.267c.11.504.03 1.816-.157 3.922v1.083c0 .529-.07 1.08-.194 1.636-.368 1.614-1.242 3.297-2.446 4.786a14.957 14.957 0 01-1.535 1.628 13.31 13.31 0 01-2.77 1.946c.825-.017 1.655-.202 2.596-.554 1.444-.54 2.808-1.417 3.989-2.491a14.621 14.621 0 001.532-1.625c1.207-1.492 2.078-3.172 2.446-4.789a7.353 7.353 0 00.194-1.636v-3.35c-4.17-8.913-8.596-2.447-15.174-5.89-1.394-.731-2.65-.252-3.74 1.135 3.684 1.904 7.558 2.037 10.219 2.211 3.123.202 4.5-.434 5.04 1.988z" fill="#D9D9D9"/><path fill-rule="evenodd" clip-rule="evenodd" d="M17.313 15.682v3.095c0 .227.185.412.412.412H23a.413.413 0 00.413-.412v-3.095a.414.414 0 00-.413-.415h-5.275a.414.414 0 00-.413.415zm9.233 1.548l-.003 1.547c0 .227.188.412.415.412h5.276a.413.413 0 00.412-.412v-3.095a.414.414 0 00-.413-.415h-5.275a.416.416 0 00-.415.415l.003 1.548z" fill="#1D327B"/><path fill-rule="evenodd" clip-rule="evenodd" d="M17.725 19.19H23a.413.413 0 00.413-.413v-1.345h-6.1v1.345c0 .227.185.413.412.413zm9.233 0h5.276a.413.413 0 00.412-.413v-1.345l-6.1.002-.003 1.343c0 .227.188.413.415.413z" fill="#1D327B"/><path fill-rule="evenodd" clip-rule="evenodd" d="M31.34 27.552a12.968 12.968 0 01-2.273 1.556c-.435.232-.883.437-1.34.606-.94.352-1.77.537-2.594.554-.017 0-.03 0-.044.003H25l2.456 2.206a12.252 12.252 0 00.894-.302c1.414-.526 2.758-1.315 3.981-2.278a18.982 18.982 0 001.004-.858c-.678-.501-1.4-1.036-1.994-1.487z" fill="#D9D9D9"/><path fill-rule="evenodd" clip-rule="evenodd" d="M25.003 30.27c-.869 0-1.737-.185-2.728-.556a10.97 10.97 0 01-1.341-.606 13.034 13.034 0 01-2.274-1.556c-.009-.003-.98.75-1.965 1.515.17.154.34.304.515.45.152.13.307.258.462.38 1.223.963 2.567 1.752 3.978 2.278.202.078.401.147.595.208.133.044.263.083.39.119l2.368-2.231z" fill="#D9D9D9"/><path fill-rule="evenodd" clip-rule="evenodd" d="M35.892 9.85c0-5.507-6.1-9.114-11.218-9.116h-.054c4 1.21 7.616 4.32 7.616 8.559v2.079c1.267.631 2.47 1.921 3.655 4.451V9.85z" fill="#9E9E9E"/><path fill-rule="evenodd" clip-rule="evenodd" d="M44.825 40.095c0-4.866-4.977-8.507-9.379-9.448l-3.239 2.409c3.995 1.334 7.978 4.708 7.978 9.063v7.145h3.394c.778 0 1.246.127 1.246-.892v-8.277z" fill="#D9D9D9"/><path d="M22.898 25.336c.672.36 1.533.54 2.395.54.861 0 1.723-.18 2.394-.54a.732.732 0 10-.692-1.291c-.923.494-2.482.494-3.405 0a.732.732 0 00-.692 1.29z" fill="#000"/><path d="M42.22 33.302c-1.744-1.57-4.03-2.76-6.33-3.304a350.44 350.44 0 01-3.394-2.495c1.782-1.699 3.163-3.84 3.782-6.018.7-.136 1.413-.52 1.989-1.087.701-.692 1.103-1.56 1.103-2.382v-1.09a1.837 1.837 0 00-1.836-1.835h-.911v-5.24c0-4.543-3.678-7.583-7.12-8.913C25.27-.698 20.935-.158 18.718 2.28a6.48 6.48 0 00-.111.126 6.556 6.556 0 00-.167.025c-2.199.363-3.764 1.868-4.527 4.352-.579 1.883-.548 3.814-.537 4.541l.002.17v3.597h-.91a1.836 1.836 0 00-1.834 1.834v1.091c0 .823.402 1.692 1.104 2.384.574.566 1.285.949 1.985 1.085.62 2.18 2.003 4.323 3.788 6.023l-1.101.853c-.804.624-1.702 1.32-2.046 1.581-2.384.516-4.773 1.733-6.58 3.36-2.185 1.966-3.339 4.314-3.339 6.793v2.38a.733.733 0 001.465 0v-2.38c0-4.255 4.326-7.707 8.615-8.69l4.604 3.425a.729.729 0 00.05.034c.173.109.287.198.378.269.27.211.5.295.704.295.335 0 .599-.228.856-.49.144-.147.351-.358.678-.649l.46 1.81-2.666 8.887-.006.02a.83.83 0 00.054.687l1.497 2.837h-8.319v-5.116a.732.732 0 10-1.465 0v5.116H6.423c-.086 0-.169.002-.247.003-.081.002-.18.004-.26.002a1.827 1.827 0 01-.006-.164v-2.563a.732.732 0 00-1.465 0v2.563c0 .366.043.894.416 1.26.334.328.751.37 1.144.37.067 0 .133-.002.197-.003.07-.002.144-.003.22-.003h37.159c.077 0 .15.002.22.003L44 50c.392 0 .81-.04 1.144-.37.373-.365.416-.893.416-1.259v-8.276c0-2.479-1.155-4.828-3.338-6.793zm-5.597-14.129v-2.617h.91c.202 0 .372.17.372.37v1.09c0 .426-.25.927-.667 1.339a2.822 2.822 0 01-.645.477c.02-.223.03-.443.03-.659zm-23.857.183c-.418-.412-.667-.913-.667-1.34v-1.09c0-.2.169-.37.368-.37h.911v2.617c0 .216.01.436.03.659a2.81 2.81 0 01-.642-.476zm21.49 11.264l-4.055 3.018c-.082.052-.154.1-.218.145a13.784 13.784 0 00-.784-.73l-.783-.701a.73.73 0 00-.21-.189l-1.52-1.365a10.6 10.6 0 001.3-.398c1.182-.44 2.325-1.102 3.374-1.918.973.73 2.132 1.58 2.897 2.138zm-7.247 2.436l-.593 2.326h-2.831l-.569-2.233 1.998-1.883 1.995 1.79zM18.68 3.876c.087-.014.152-.023.203-.03.375-.05.536-.138.782-.425.033-.039.076-.088.136-.154 1.072-1.18 2.86-1.793 4.901-1.793 1.358 0 2.828.272 4.273.83 2.99 1.155 6.183 3.744 6.183 7.546v3.215c-2.355-3.307-4.903-3.09-7.574-2.863-2.02.171-4.108.349-6.528-.918-1.134-.594-3.34-1.074-5.362 2.378l-.851 1.456v-1.624l-.002-.193c-.049-3.09.578-6.886 3.839-7.425zm13.556 10.659h-5.275a1.15 1.15 0 00-1.148 1.147v.593a4.94 4.94 0 00-1.666.002v-.595c0-.632-.514-1.147-1.145-1.147h-5.276c-.63 0-1.144.515-1.144 1.147v.426l-1.424-.625 1.8-3.082c1.619-2.761 2.927-2.077 3.42-1.82 2.797 1.465 5.205 1.26 7.33 1.08 2.884-.245 5.006-.425 7.187 3.796l-1.514.657v-.432c0-.632-.514-1.147-1.145-1.147zM31.916 16v2.457h-4.638V16h4.638zm-9.234 0v2.457h-4.635V16h4.635zm-7.664 4.646a6.633 6.633 0 01-.175-1.473v-2.228l1.739.763v1.07c0 .63.513 1.144 1.144 1.144h5.276c.631 0 1.145-.514 1.145-1.145V17.77a3.488 3.488 0 011.666-.002v1.01c0 .63.515 1.144 1.148 1.144h5.275c.631 0 1.145-.514 1.145-1.145V17.71l1.777-.77v2.233c0 .469-.059.964-.175 1.473-.793 3.479-4.021 7.082-7.51 8.382-.931.348-1.717.51-2.471.51-.757 0-1.542-.162-2.472-.51-3.49-1.3-6.72-4.904-7.512-8.382zm6.694 11.719a.71.71 0 00-.023.022l-.714.673c-.357.31-.602.547-.777.723a5.298 5.298 0 00-.218-.145l-4.075-3.032 1.403-1.088 1.335-1.035.038.029c1.038.802 2.168 1.453 3.336 1.888.463.173.898.305 1.318.403l.026.008-1.649 1.554zm22.382 16.006c0 .069-.003.122-.007.163-.08.002-.178 0-.26 0a9.469 9.469 0 00-.246-.004H38.04v-5.116a.732.732 0 00-1.465 0v5.116h-7.707l1.492-2.83a.822.822 0 00.05-.713l-.898-2.995a.732.732 0 00-1.403.42l.844 2.814-1.744 3.305h-4.418l-1.744-3.305 2.514-8.379h2.88l.736 2.457a.733.733 0 001.404-.42l-.835-2.785.493-1.938c.413.358.66.61.825.778.257.262.52.49.856.49.203 0 .433-.084.704-.295a3.95 3.95 0 01.379-.269.727.727 0 00.05-.034l4.56-3.393c4.245 1.023 8.48 4.448 8.48 8.657v8.277z" fill="#000"/></g><defs><clipPath id="clip0"><path fill="#fff" d="M0 0h50v50H0z"/></clipPath></defs></svg>