<svg width="50" height="50" fill="none" xmlns="http://www.w3.org/2000/svg"><g clip-path="url(#clip0)"><path d="M4.796 13.086a.716.716 0 01-.482-.185l-3.127-2.83a2.938 2.938 0 01-.964-2.174V3.384A2.936 2.936 0 013.155.45h3.28a2.936 2.936 0 012.933 2.933v4.513c0 .827-.351 1.62-.965 2.174L5.276 12.9a.715.715 0 01-.48.185zM3.156 1.885a1.5 1.5 0 00-1.5 1.499v4.513c0 .422.18.828.494 1.111l2.645 2.395 2.646-2.395a1.5 1.5 0 00.494-1.111V3.384a1.5 1.5 0 00-1.5-1.5h-3.28zM7.921 9.54h.001z" fill="#9E9E9E"/><path d="M40.174 22.404H16.14a.977.977 0 01-.977-.977v-13.1c0-.54.437-.977.977-.977h24.033c.54 0 .976.437.976.977v13.1c0 .54-.437.977-.976.977z" fill="#D9D9D9"/><path d="M40.174 7.35h-1.956v11.166a.956.956 0 01-.955.956H15.164v1.955c0 .54.437.977.977.977h24.033c.54 0 .976-.437.976-.977v-13.1a.977.977 0 00-.976-.977zm3.848 33.943H21.047a.977.977 0 01-.977-.977V23.381c0-.54.438-.977.977-.977h22.975c.54 0 .977.437.977.977v16.935c0 .54-.438.977-.977.977z" fill="#D9D9D9"/><path d="M44.022 22.404h-1.955v15.001a.956.956 0 01-.956.956H20.07v1.955c0 .54.436.977.976.977h22.975c.54 0 .977-.437.977-.977V23.381a.977.977 0 00-.977-.977z" fill="#D9D9D9"/><path d="M42.338 48.832a2.595 2.595 0 100-5.19 2.595 2.595 0 000 5.19z" fill="#9E9E9E"/><path d="M37.146 48.832a2.596 2.596 0 100-5.191 2.596 2.596 0 000 5.191zm6.018-5.057a2.596 2.596 0 01-3.285 3.285 2.596 2.596 0 103.285-3.285z" fill="#9E9E9E"/><path d="M37.973 43.775a2.596 2.596 0 01-3.285 3.285 2.596 2.596 0 103.285-3.285zm-24.784-5.397h-6.71a.717.717 0 110-1.434h6.71a.717.717 0 110 1.434zm-6.723-4.233H3.121V9.168c0-.37.3-.669.67-.669h2.006c.37 0 .67.3.67.67v24.976z" fill="#9E9E9E"/><path d="M5.798 8.5H4.125c.37 0 .669.299.669.668v24.977h1.673V9.168a.67.67 0 00-.67-.669z" fill="#9E9E9E"/><path d="M7.947 45.266l-5.839-6.354a2.736 2.736 0 01-.721-1.851v-3.898c0-.37.3-.67.669-.67h5.222c.37 0 .669.3.669.67v12.103z" fill="#9E9E9E"/><path d="M7.277 32.494H5.109c.37 0 .67.3.67.669v9.744l2.167 2.359V33.163c0-.37-.3-.67-.669-.67z" fill="#9E9E9E"/><path d="M5.074 48.832a4.343 4.343 0 100-8.686 4.343 4.343 0 000 8.686z" fill="#9E9E9E"/><path d="M7.363 40.799a4.343 4.343 0 01-5.98 5.98 4.343 4.343 0 105.98-5.98z" fill="#9E9E9E"/><path d="M5.071 46.197a1.708 1.708 0 100-3.417 1.708 1.708 0 000 3.417z" fill="#D9D9D9"/><path d="M5.623 42.873a1.704 1.704 0 01-2.166 2.166 1.708 1.708 0 102.166-2.166z" fill="#D9D9D9"/><path d="M20.072 42.252l-4.99-14.894a1.051 1.051 0 00-.996-.717H6.35a.573.573 0 00-.574.573v3.664c0 .317.257.573.574.573h3.294a.48.48 0 01.468.381l2.168 10.42h7.79z" fill="#E30613"/><path d="M15.082 27.358a1.051 1.051 0 00-.997-.717h-2.413c.452 0 .853.289.997.717l4.989 14.894h2.414l-4.99-14.894z" fill="#E30613"/><path d="M40.171 7.35h-7.034v15.054h7.034c.54 0 .977-.437.977-.977v-13.1a.977.977 0 00-.977-.977z" fill="#1D327B"/><path d="M44.023 22.404h-6.98v18.889h6.98c.54 0 .977-.437.977-.977V23.381a.977.977 0 00-.977-.977z" fill="#D9D9D9"/><path d="M40.171 7.35h-1.956v11.166a.956.956 0 01-.955.956h-4.123v2.932h7.034c.54 0 .977-.437.977-.977v-13.1a.977.977 0 00-.977-.977z" fill="#1D327B"/><path d="M44.023 22.404h-1.955v15.001a.956.956 0 01-.956.956h-4.069v2.932h6.98c.54 0 .977-.437.977-.977V23.381a.977.977 0 00-.977-.977zM26.73 16.651H15.164V11.33H26.73c.378 0 .684.306.684.683v3.956a.684.684 0 01-.684.683z" fill="#D9D9D9"/><path d="M22.085 14.707H18.08a.717.717 0 110-1.434h4.006a.717.717 0 110 1.434zm7.499 19.438h-6.088a.684.684 0 01-.683-.684v-6.088c0-.377.306-.683.683-.683h6.088c.378 0 .684.306.684.683v6.088a.684.684 0 01-.684.684z" fill="#D9D9D9"/><path d="M27.738 29.88h-2.392a.717.717 0 110-1.434h2.392a.717.717 0 110 1.434zm0 2.336h-2.392a.717.717 0 110-1.434h2.392a.717.717 0 110 1.434z" fill="#D9D9D9"/><path d="M48.404 45.316H12.133a.879.879 0 01-.88-.879v-2.265a.88.88 0 01.88-.88h36.271a.88.88 0 01.879.88v2.266a.879.879 0 01-.879.878z" fill="#E30613"/><path d="M48.404 41.293h-1.157v1.109a.879.879 0 01-.879.879H11.254v1.157c0 .485.393.878.879.878h36.271a.879.879 0 00.879-.879v-2.265a.879.879 0 00-.879-.88z" fill="#E30613"/><path d="M14.601 38.5a.84.84 0 100-1.678.84.84 0 000 1.679z" fill="#9E9E9E"/><path d="M5.07 42.064a2.428 2.428 0 00-2.425 2.425 2.428 2.428 0 002.425 2.425 2.428 2.428 0 002.425-2.425 2.428 2.428 0 00-2.425-2.425zm0 3.416a.992.992 0 010-1.983.992.992 0 010 1.983zm17.015-32.207H18.08a.717.717 0 100 1.434h4.006a.717.717 0 100-1.434zm7.512 12.7H23.48c-.765 0-1.386.622-1.386 1.386v6.117c0 .764.621 1.386 1.386 1.386h6.117c.764 0 1.386-.622 1.386-1.386v-6.117c0-.764-.622-1.386-1.386-1.386zm-.048 7.455h-6.022v-6.021h6.022v6.021z" fill="#000"/><path d="M25.346 29.88h2.392a.717.717 0 100-1.434h-2.392a.717.717 0 100 1.434zm0 2.336h2.392a.717.717 0 100-1.434h-2.392a.717.717 0 100 1.434z" fill="#000"/><path d="M48.423 40.576h-2.725c.01-.078.019-.157.019-.239V23.36c0-.922-.75-1.673-1.673-1.673h-2.2c.012-.078.02-.157.02-.239V8.306c0-.922-.75-1.673-1.673-1.673H16.116c-.922 0-1.672.75-1.672 1.673v13.142c0 .922.75 1.673 1.672 1.673h3.258a1.68 1.68 0 00-.02.239v14.495l-3.592-10.724a1.767 1.767 0 00-1.677-1.207H7.184v-14.75l1.218-1.103a2.938 2.938 0 00.965-2.174V3.384A2.936 2.936 0 006.434.45h-3.28A2.936 2.936 0 00.221 3.384v4.513c0 .827.352 1.62.965 2.174l1.219 1.103v2.816a.717.717 0 101.433 0V9.216H5.75v16.857c-.41.217-.69.647-.69 1.141v3.664c0 .35.14.666.367.899H3.838V17.216a.717.717 0 10-1.434 0v14.56h-.35c-.765 0-1.387.623-1.387 1.387v3.898c0 .867.324 1.697.91 2.336l.762.829A5.06 5.06 0 000 44.489c0 2.79 2.27 5.06 5.06 5.06 2.79 0 5.06-2.27 5.06-5.06a5.043 5.043 0 00-1.458-3.55v-2.56h2.08l.511 2.455c-.43.281-.716.767-.716 1.319v2.303c0 .87.708 1.577 1.577 1.577h16.04a.717.717 0 100-1.434h-16.04a.144.144 0 01-.143-.143v-2.303c0-.08.064-.143.143-.143h36.309c.08 0 .143.064.143.143v2.303c0 .08-.064.143-.143.143H31.466a.717.717 0 100 1.434h2.378a3.316 3.316 0 003.304 3.516c1.05 0 1.988-.493 2.595-1.258a3.307 3.307 0 002.596 1.258 3.316 3.316 0 003.305-3.516h2.779c.87 0 1.577-.707 1.577-1.577v-2.303c0-.87-.708-1.577-1.577-1.577zM40.191 8.067a.24.24 0 01.239.239v13.142a.24.24 0 01-.239.24h-6.338V8.066h6.338zm-24.314 3.979h10.816v3.889H15.877v-3.89zm0 9.402v-4.08h10.864c.764 0 1.386-.622 1.386-1.386v-3.984c0-.764-.622-1.386-1.386-1.386H15.877V8.306a.24.24 0 01.24-.239h16.302v13.62H16.116a.24.24 0 01-.239-.239zm-1.475 6.138l4.352 12.99h-6.09l-1.85-8.89a1.2 1.2 0 00-1.17-.951h-3.15v-3.377h7.591c.144 0 .272.091.317.228zM3.791 7.782A1.392 1.392 0 002.405 9.24l-.257-.232a1.502 1.502 0 01-.493-1.111V3.384a1.5 1.5 0 011.5-1.5h3.28a1.5 1.5 0 011.498 1.5v4.513c.017.554-.331 1.016-.75 1.343v-.072c0-.764-.621-1.386-1.385-1.386H3.79zM2.634 38.427a2.015 2.015 0 01-.533-1.366v-3.85h5.127v6.706a5.03 5.03 0 00-3.507-.307l-1.087-1.183zm2.426 9.688a3.63 3.63 0 01-3.626-3.626c0-2 1.626-3.627 3.626-3.627s3.626 1.627 3.626 3.627c0 2-1.626 3.626-3.626 3.626zm3.602-11.17v-3.782c0-.39-.163-.742-.423-.994H9.45l.994 4.776H8.662zm12.126 3.392V23.36a.24.24 0 01.24-.24h15.298v3.158a.717.717 0 101.434 0v-3.157h6.284a.24.24 0 01.239.239v16.977a.24.24 0 01-.239.239H37.76V29.515a.717.717 0 10-1.434 0v11.06H21.027a.239.239 0 01-.239-.238zm16.36 7.778a1.88 1.88 0 01-1.867-2.082h3.733a1.88 1.88 0 01-1.867 2.082zm7.07-1.879a1.88 1.88 0 01-1.88 1.88 1.88 1.88 0 01-1.866-2.083h3.733c.008.068.013.135.013.203z" fill="#000"/><path d="M14.601 38.5a.84.84 0 100-1.678.84.84 0 000 1.679z" fill="#000"/></g><defs><clipPath id="clip0"><path fill="#fff" d="M0 0h50v50H0z"/></clipPath></defs></svg>