<svg width="50" height="50" fill="none" xmlns="http://www.w3.org/2000/svg"><g clip-path="url(#clip0)"><path d="M36.393 44.04a5.207 5.207 0 01-1.532 3.696 5.209 5.209 0 01-3.696 1.532H18.083a5.227 5.227 0 01-5.227-5.206v-.022a5.21 5.21 0 011.53-3.696 5.212 5.212 0 013.697-1.53h13.082a5.227 5.227 0 015.228 5.226z" fill="#1D327B"/><path d="M25.007 38.813v5.248H12.855v-.021a5.21 5.21 0 011.532-3.696 5.212 5.212 0 013.696-1.53h6.924z" fill="#1D327B"/><path d="M41.909 17.638C41.909 8.301 34.34.732 25.003.732A16.87 16.87 0 008.098 17.478c-.059 6.418 3.458 12.018 8.679 14.932a9.242 9.242 0 014.747 8.068v.105a3.479 3.479 0 106.958 0v-.105c0-3.368 1.85-6.44 4.787-8.09 5.156-2.895 8.64-8.416 8.64-14.75z" fill="#D9D9D9"/><path d="M26.48 43.734a3.479 3.479 0 01-4.954-3.15v-.106a9.242 9.242 0 00-4.749-8.068c-5.22-2.913-8.737-8.514-8.679-14.931A16.87 16.87 0 0125.004.733c.495 0 .984.021 1.468.063A16.866 16.866 0 0011.05 17.48c-.058 6.417 3.458 12.018 8.68 14.931a9.241 9.241 0 014.746 8.068v.105c0 1.394.82 2.596 2.003 3.15z" fill="#D9D9D9"/><path d="M25.004 29.404c6.498 0 11.766-5.268 11.766-11.766S31.502 5.872 25.004 5.872 13.238 11.14 13.238 17.638s5.268 11.766 11.766 11.766z" fill="#9E9E9E"/><path d="M27.18 29.203c-.704.132-1.432.202-2.175.202-6.498 0-11.767-5.268-11.767-11.767 0-6.498 5.269-11.766 11.767-11.766.743 0 1.47.07 2.176.202-5.46 1.02-9.591 5.81-9.591 11.564 0 5.756 4.132 10.545 9.59 11.565z" fill="#9E9E9E"/><path d="M31.68 13.046a1.287 1.287 0 00-.581-1.725l-1.993-.987a1.286 1.286 0 00-1.725.581l-3.942 7.956-1.92-3.211a1.286 1.286 0 00-1.765-.445l-1.909 1.14a1.287 1.287 0 00-.444 1.766l3.784 6.328c.242.404.685.645 1.154.626l2.682-.105c.47-.019.893-.293 1.102-.714l5.556-11.21z" fill="#E30613"/><path d="M33.626 33.026a17.674 17.674 0 009.013-15.388C42.64 7.912 34.727 0 25.001 0c-3.589 0-7.04 1.063-9.978 3.075a.733.733 0 00.827 1.21A16.129 16.129 0 0125 1.464c8.919 0 16.175 7.255 16.175 16.173 0 5.84-3.168 11.247-8.266 14.111-3.184 1.787-5.161 5.132-5.161 8.73v.104a2.73 2.73 0 01-.804 1.942 2.75 2.75 0 01-4.69-1.942v-.105a9.983 9.983 0 00-5.122-8.708A16.182 16.182 0 018.83 17.485c.04-4.344 1.764-8.401 4.857-11.423a.732.732 0 10-1.024-1.048c-3.373 3.297-5.255 7.72-5.298 12.458a17.646 17.646 0 009.054 15.578 8.53 8.53 0 014.024 5.031h-2.364a5.92 5.92 0 00-4.214 1.745 5.92 5.92 0 00-1.746 4.214 5.967 5.967 0 005.96 5.96h11.617a.732.732 0 100-1.465H18.078a4.5 4.5 0 01-4.495-4.495c0-1.2.468-2.33 1.317-3.178a4.465 4.465 0 013.178-1.316h2.66c.034.307.052.618.052.932v.105A4.215 4.215 0 0025 44.794a4.188 4.188 0 002.98-1.233 4.187 4.187 0 001.233-2.978v-.104c0-.314.018-.625.053-.933h1.894a4.5 4.5 0 014.495 4.494 4.46 4.46 0 01-1.317 3.179 4.491 4.491 0 01-1.93 1.14.732.732 0 10.405 1.408 5.96 5.96 0 002.561-1.512 5.917 5.917 0 001.746-4.215 5.966 5.966 0 00-5.96-5.959h-1.595a8.65 8.65 0 014.061-5.055z" fill="#000"/><path d="M24.998 30.137c6.892 0 12.499-5.607 12.499-12.499S31.89 5.14 24.998 5.14c-6.891 0-12.498 5.606-12.498 12.498 0 6.892 5.607 12.499 12.498 12.499zm0-23.533c6.084 0 11.034 4.95 11.034 11.034 0 6.084-4.95 11.034-11.034 11.034-6.084 0-11.033-4.95-11.033-11.034 0-6.084 4.95-11.034 11.033-11.034z" fill="#000"/><path d="M16.77 18.496l3.784 6.33a2.018 2.018 0 001.811.981l2.682-.105a2.015 2.015 0 001.73-1.121l5.556-11.21c.24-.483.277-1.03.105-1.542a2.007 2.007 0 00-1.017-1.164l-1.992-.987a2.022 2.022 0 00-2.706.912l-3.347 6.753-1.232-2.06a2.006 2.006 0 00-1.24-.922 2.006 2.006 0 00-1.529.226l-1.909 1.14a2.022 2.022 0 00-.696 2.77zm1.448-1.511l1.909-1.141a.552.552 0 01.76.191l1.92 3.212a.732.732 0 001.285-.051l3.943-7.955a.555.555 0 01.743-.25l1.992.986c.274.136.386.47.25.743l-5.557 11.21a.552.552 0 01-.474.308l-2.682.105a.554.554 0 01-.496-.27l-3.784-6.329a.555.555 0 01.191-.76z" fill="#000"/></g><defs><clipPath id="clip0"><path fill="#fff" d="M0 0h50v50H0z"/></clipPath></defs></svg>