<svg width="50" height="50" fill="none" xmlns="http://www.w3.org/2000/svg"><g clip-path="url(#clip0)"><path d="M44.451 8.017L26.324.885a3.56 3.56 0 00-2.608 0L5.589 8.017A3.56 3.56 0 003.338 11.1c-.405 6.354.36 30.113 20.421 37.832.81.312 1.712.312 2.522 0 20.061-7.72 20.827-31.478 20.422-37.832a3.56 3.56 0 00-2.252-3.084z" fill="#D9D9D9"/><path d="M26.28 48.933a3.522 3.522 0 01-2.522 0 27.564 27.564 0 01-.668-.266c.09-.027.181-.057.27-.091 20.577-7.918 21.36-32.288 20.946-38.804a3.639 3.639 0 00-.888-2.16l1.031.405A3.556 3.556 0 0146.7 11.1c.406 6.354-.36 30.113-20.42 37.832z" fill="#D9D9D9"/><path d="M40.23 11.567L26.042 5.985a2.792 2.792 0 00-2.042 0L9.812 11.567a2.784 2.784 0 00-1.762 2.414c-.317 4.973.281 23.807 15.984 29.85.634.243 1.34.243 1.974 0C41.71 37.787 42.31 18.953 41.993 13.98a2.785 2.785 0 00-1.763-2.414z" fill="#9E9E9E"/><path d="M26.007 43.83a2.75 2.75 0 01-1.974 0 23.9 23.9 0 01-.85-.346c.117-.028.233-.063.345-.107 16.08-6.187 16.693-25.471 16.368-30.563a2.836 2.836 0 00-.646-1.632l.98.385a2.784 2.784 0 011.762 2.414c.317 4.974-.282 23.807-15.985 29.85z" fill="#9E9E9E"/><path d="M35.212 24.902c0 5.629-4.563 10.192-10.192 10.192-5.629 0-10.192-4.563-10.192-10.192 0-5.629 4.563-10.192 10.192-10.192 5.63 0 10.192 4.563 10.192 10.192z" fill="#1D327B"/><path d="M35.212 24.903c0 5.628-4.564 10.191-10.192 10.191-2.605 0-4.985-.977-6.786-2.588a10.13 10.13 0 004.733 1.165c5.629 0 10.192-4.563 10.192-10.191 0-3.024-1.317-5.74-3.408-7.606a10.19 10.19 0 015.46 9.029z" fill="#1D327B"/><path d="M19.273 24.038a1.888 1.888 0 00.18 2.707l2.962 2.512c.747.633 1.853.59 2.549-.098l5.736-5.674a1.888 1.888 0 00-.091-2.77l-.179-.154a1.888 1.888 0 00-2.6.121l-3.98 4.157a.601.601 0 01-.837.031l-1.077-.969a1.888 1.888 0 00-2.663.137z" fill="#E30613"/><path d="M30.696 23.485L24.96 29.16a1.89 1.89 0 01-2.549.097l-2.962-2.512a1.887 1.887 0 01.196-3.026 1.556 1.556 0 00.526 1.46l2.448 2.076c.617.523 1.53.488 2.104-.082l4.739-4.686a1.56 1.56 0 00-.076-2.288l-.111-.097c.411.017.819.17 1.151.459l.179.155c.831.72.873 1.995.091 2.769z" fill="#E30613"/><path d="M47.436 11.054a4.31 4.31 0 00-2.716-3.721L26.593.202a4.284 4.284 0 00-3.146 0L5.32 7.333a4.31 4.31 0 00-2.715 3.721c-.101 1.579-.45 9.9 2.574 18.69 1.512 4.397 3.635 8.229 6.308 11.39 3.217 3.801 7.257 6.656 12.008 8.485a4.243 4.243 0 003.05 0c4.751-1.829 8.792-4.684 12.008-8.486 2.674-3.16 4.796-6.992 6.309-11.389 3.023-8.79 2.674-17.111 2.574-18.69zm-3.964 18.212c-1.454 4.224-3.486 7.898-6.04 10.918-3.056 3.611-6.896 6.324-11.415 8.063a2.774 2.774 0 01-1.994 0c-4.518-1.739-8.359-4.452-11.414-8.063-2.555-3.02-4.588-6.694-6.04-10.918C3.634 20.74 3.972 12.677 4.07 11.148A2.835 2.835 0 015.858 8.7l18.126-7.132a2.83 2.83 0 012.071 0L44.182 8.7a2.836 2.836 0 011.787 2.447c.098 1.53.436 9.592-2.497 18.118z" fill="#000"/><path d="M40.5 10.883L26.31 5.3a3.511 3.511 0 00-2.58 0L9.544 10.883a3.534 3.534 0 00-2.226 3.051c-.063.975-.16 3.619.279 7.108a.735.735 0 001.458-.184c-.423-3.364-.33-5.898-.271-6.83a2.06 2.06 0 011.298-1.777L24.27 6.668a2.048 2.048 0 011.504 0l14.189 5.583a2.06 2.06 0 011.298 1.777c.1 1.573.728 15.619-7.995 24.282a.734.734 0 101.036 1.043c9.182-9.12 8.53-23.778 8.425-25.419a3.535 3.535 0 00-2.226-3.051zm-9.76 29.572a22.055 22.055 0 01-4.996 2.69c-.466.179-.98.179-1.446 0C14.704 39.453 11.018 30.8 9.614 24.19a.735.735 0 00-1.438.306c1.48 6.964 5.386 16.09 15.594 20.019a3.478 3.478 0 002.502 0 23.515 23.515 0 005.329-2.87.735.735 0 00-.861-1.191z" fill="#000"/><path d="M25.02 13.976c-6.024 0-10.926 4.901-10.926 10.926s4.902 10.927 10.927 10.927c6.024 0 10.926-4.902 10.926-10.927 0-6.025-4.902-10.927-10.926-10.927zm0 20.383c-5.214 0-9.457-4.242-9.457-9.457 0-5.214 4.243-9.457 9.458-9.457 5.214 0 9.457 4.243 9.457 9.457 0 5.215-4.243 9.457-9.457 9.457z" fill="#000"/><path d="M31.99 22.056a2.63 2.63 0 00-.903-1.896l-.179-.154a2.62 2.62 0 00-3.612.168l-3.892 4.063-.98-.882a2.628 2.628 0 00-3.7.19 2.601 2.601 0 00-.671 1.933 2.6 2.6 0 00.92 1.827l2.964 2.512c.495.42 1.097.627 1.697.627.666 0 1.33-.256 1.843-.763l5.736-5.674c.518-.512.8-1.223.777-1.95zm-1.81.906l-5.736 5.675a1.147 1.147 0 01-1.557.06l-2.963-2.512a1.145 1.145 0 01-.405-.804 1.151 1.151 0 011.922-.933l1.077.969a1.33 1.33 0 001.858-.07l3.982-4.157a1.152 1.152 0 011.588-.074l.178.155c.246.213.387.509.397.834.011.324-.11.629-.341.857z" fill="#000"/></g><defs><clipPath id="clip0"><path fill="#fff" d="M0 0h50v50H0z"/></clipPath></defs></svg>