<svg width="50" height="50" fill="none" xmlns="http://www.w3.org/2000/svg"><path fill-rule="evenodd" clip-rule="evenodd" d="M27.151 42.093v-4.726a.484.484 0 00-.481-.484H.734v5.694H26.67a.484.484 0 00.481-.484z" fill="#1D327B"/><path fill-rule="evenodd" clip-rule="evenodd" d="M.734 32.478h33.404c.28 0 .51-.23.51-.506V27.29a.51.51 0 00-.51-.507H.734v5.694z" fill="#D9D9D9"/><path fill-rule="evenodd" clip-rule="evenodd" d="M.734 22.377h20.992c.257 0 .468-.21.468-.465v-4.761a.468.468 0 00-.468-.465H.734v5.691z" fill="#9E9E9E"/><path fill-rule="evenodd" clip-rule="evenodd" d="M.734 12.278h12.457a.487.487 0 00.487-.484V7.07a.488.488 0 00-.487-.487H.734v5.694z" fill="#E30613"/><path fill-rule="evenodd" clip-rule="evenodd" d="M21.726 20.218H.734v2.159h20.992c.257 0 .468-.21.468-.465V19.75a.47.47 0 01-.468.468z" fill="#9E9E9E"/><path fill-rule="evenodd" clip-rule="evenodd" d="M34.139 30.317H.733v2.161h33.404c.28 0 .51-.23.51-.506V29.81c0 .277-.23.507-.51.507z" fill="#D9D9D9"/><path fill-rule="evenodd" clip-rule="evenodd" d="M26.67 40.415H.734v2.162H26.67a.484.484 0 00.481-.484v-2.16a.482.482 0 01-.481.482z" fill="#1D327B"/><path fill-rule="evenodd" clip-rule="evenodd" d="M.734 12.278h12.457a.487.487 0 00.487-.484V9.632a.487.487 0 01-.487.484H.734v2.162z" fill="#E30613"/><path d="M49.268 47.04H1.465v-3.73h25.203c.67 0 1.214-.546 1.214-1.217v-4.726c0-.67-.545-1.217-1.214-1.217H1.465v-2.94h13.38a.732.732 0 100-1.464H1.465v-4.23h32.448v4.23H18.225a.732.732 0 100 1.465h15.911c.685 0 1.242-.556 1.242-1.24v-4.68c0-.683-.557-1.24-1.242-1.24H1.465V23.11h6.382a.732.732 0 100-1.465H1.465v-4.226h19.994v4.227H11.227a.732.732 0 100 1.464h10.497a1.2 1.2 0 001.2-1.197V17.15a1.2 1.2 0 00-1.2-1.197H1.464V13.01H13.19a1.22 1.22 0 001.22-1.217V7.07c0-.672-.548-1.22-1.22-1.22H1.465V2.228a.732.732 0 00-1.465 0v45.547c0 .404.328.732.732.732h48.536a.732.732 0 100-1.465zm-22.85-9.425v4.23H1.464v-4.23h24.952zM12.943 7.316v4.23H1.464v-4.23h11.48z" fill="#000"/><path d="M30.791 37.183a.732.732 0 100 1.465h4.294a.732.732 0 100-1.465H30.79zm-.732 4.223c0 .405.328.733.732.733h6.195a.732.732 0 100-1.465h-6.195a.732.732 0 00-.732.732zm8.224-12.856h4.294a.732.732 0 000-1.466h-4.294a.732.732 0 000 1.465zm0 3.487h6.195a.732.732 0 000-1.465h-6.195a.732.732 0 000 1.465zM25.83 18.45h4.294a.732.732 0 100-1.464H25.83a.732.732 0 100 1.464zm0 3.488h6.195a.732.732 0 100-1.464H25.83a.732.732 0 100 1.464zM17.314 8.352h4.294a.732.732 0 000-1.465h-4.294a.733.733 0 000 1.465zm0 3.488h6.196a.732.732 0 100-1.465h-6.196a.732.732 0 100 1.465z" fill="#000"/></svg>