<svg width="50" height="50" fill="none" xmlns="http://www.w3.org/2000/svg"><g clip-path="url(#clip0)"><path d="M42.616 19.709v-2.716c0-.622-.414-1.168-1.013-1.336l-3.03-.851a1.384 1.384 0 01-.934-.876 13.29 13.29 0 00-.576-1.39 1.386 1.386 0 01.04-1.281l1.541-2.745a1.387 1.387 0 00-.228-1.66l-1.921-1.922a1.387 1.387 0 00-1.66-.228l-2.746 1.541a1.385 1.385 0 01-1.28.04 13.25 13.25 0 00-1.391-.576 1.384 1.384 0 01-.876-.933l-.85-3.031A1.388 1.388 0 0026.354.732H23.64c-.622 0-1.168.414-1.336 1.013l-.85 3.03a1.384 1.384 0 01-.876.934c-.477.166-.941.359-1.391.576a1.385 1.385 0 01-1.28-.04L15.16 4.704a1.388 1.388 0 00-1.66.228l-1.921 1.921a1.388 1.388 0 00-.229 1.66l1.542 2.746c.222.395.236.873.04 1.28-.217.45-.41.915-.577 1.391a1.384 1.384 0 01-.933.876l-3.03.85a1.388 1.388 0 00-1.013 1.337v2.716c0 .622.414 1.168 1.012 1.336l3.031.85c.435.123.784.45.933.876.167.477.36.941.577 1.391.196.408.181.886-.04 1.28l-1.542 2.746a1.388 1.388 0 00.229 1.66l1.92 1.921c.44.44 1.119.533 1.661.229l2.745-1.542a1.385 1.385 0 011.28-.04c.451.218.915.41 1.392.577.426.15.753.498.875.933l.851 3.03a1.388 1.388 0 001.336 1.013h2.716c.622 0 1.168-.413 1.336-1.012l.851-3.031c.123-.435.45-.784.876-.933.476-.167.94-.36 1.39-.577a1.386 1.386 0 011.281.04l2.745 1.542a1.389 1.389 0 001.661-.229l1.92-1.92c.44-.44.534-1.119.23-1.661l-1.542-2.745a1.386 1.386 0 01-.04-1.28c.217-.45.41-.915.576-1.392.15-.426.498-.753.933-.875l3.031-.851a1.387 1.387 0 001.013-1.336z" fill="#D9D9D9"/><path d="M18.994 30.34a1.384 1.384 0 00-1.087.116l-2.745 1.542a1.388 1.388 0 01-1.661-.228l-.169-.17 2.036-1.144c.383-.215 1.612-.873 3.626-.115zm.048-23.994c-1.925.774-3.29.115-3.674-.1l-2.036-1.144.169-.17a1.387 1.387 0 011.661-.228l2.745 1.541c.349.195.763.23 1.135.1zm13.051 24.11a1.386 1.386 0 00-1.28-.04c-.45.218-.915.41-1.391.577-.427.15-.754.498-.876.933l-.85 3.031a1.387 1.387 0 01-1.337 1.012H23.82c.622 0 1.168-.413 1.336-1.012l.85-3.031a1.39 1.39 0 01.877-.933c.476-.167.94-.36 1.39-.577.408-.196 2.438-1.095 3.82.04zm0-24.211c-1.167.95-3.412.236-3.82.04-.45-.217-.914-.41-1.39-.576a1.386 1.386 0 01-.876-.934l-.85-3.03A1.387 1.387 0 0023.82.732h2.54c.621 0 1.167.414 1.335 1.013l.85 3.03c.123.436.45.785.877.934.476.166.94.36 1.39.576.408.196.886.182 1.28-.04zm10.522 10.748v2.716c0 .622-.413 1.168-1.013 1.336l-3.03.85c-.435.123-.784.45-.932.877-.167.476-.36.94-.578 1.39-.196.408-.181.886.04 1.28l1.543 2.747a1.39 1.39 0 01-.23 1.66l-1.92 1.92c-.44.44-1.118.534-1.661.229l-.709-.398 1.751-1.751a1.39 1.39 0 00.23-1.66l-1.543-2.747a1.386 1.386 0 01-.04-1.28c.218-.45.41-.914.578-1.39.148-.427.497-.753.932-.877l3.03-.85a1.387 1.387 0 001.013-1.336v-2.716c0-.622-.413-1.168-1.013-1.336l-3.03-.851a1.38 1.38 0 01-.932-.875 13.19 13.19 0 00-.578-1.392 1.386 1.386 0 01.04-1.28l1.542-2.745a1.387 1.387 0 00-.229-1.66l-1.751-1.752.709-.398a1.387 1.387 0 011.661.229l1.92 1.92c.44.44.533 1.119.23 1.66l-1.543 2.746a1.386 1.386 0 00-.04 1.28c.218.45.41.915.578 1.392.148.426.497.753.932.875l3.03.851c.6.168 1.013.714 1.013 1.336z" fill="#9E9E9E"/><path d="M18.992 30.34c.066.02.131.046.194.076a7.12 7.12 0 00-.194-.075z" fill="#9E9E9E"/><path d="M24.997 28.067c5.367 0 9.717-4.35 9.717-9.716s-4.35-9.716-9.716-9.716c-5.367 0-9.717 4.35-9.717 9.716s4.35 9.716 9.716 9.716z" fill="#1D327B"/><path d="M34.71 18.35c0 5.367-4.349 9.717-9.715 9.717-.444 0-.883-.03-1.311-.088 4.745-.64 8.403-4.707 8.403-9.628s-3.658-8.988-8.403-9.627A9.715 9.715 0 0134.71 18.35z" fill="#1D327B"/><path d="M24.998 21.923a3.572 3.572 0 100-7.144 3.572 3.572 0 000 7.144z" fill="#9E9E9E"/><path d="M28.57 18.35a3.573 3.573 0 01-4.765 3.369 3.573 3.573 0 000-6.736 3.572 3.572 0 014.765 3.367z" fill="#9E9E9E"/><path d="M34.225 49.268a1.287 1.287 0 100-2.575 1.287 1.287 0 000 2.575zm3.878-4.853a1.287 1.287 0 100-2.574 1.287 1.287 0 000 2.574zm-22.332.975a1.287 1.287 0 100-2.575 1.287 1.287 0 000 2.575zm-3.878-4.853a1.287 1.287 0 100-2.574 1.287 1.287 0 000 2.574z" fill="#E30613"/><path d="M29.304 18.35A4.31 4.31 0 0025 14.047a4.31 4.31 0 00-4.305 4.305A4.31 4.31 0 0025 22.655a4.31 4.31 0 004.304-4.304zm-7.144 0A2.843 2.843 0 0125 15.512a2.843 2.843 0 012.84 2.84A2.843 2.843 0 0125 21.19a2.843 2.843 0 01-2.84-2.84z" fill="#000"/><path d="M41.803 14.952l-1.457-.41a.732.732 0 10-.396 1.41l1.457.41a.656.656 0 01.478.63v2.717a.657.657 0 01-.478.63l-3.03.852a2.118 2.118 0 00-1.427 1.339c-.156.446-.34.888-.545 1.314a2.12 2.12 0 00.061 1.957l1.542 2.746a.658.658 0 01-.108.784l-1.92 1.92a.657.657 0 01-.785.108l-2.745-1.541c-.585-.329-1.726-.443-2.254.077-.98.441-2.028.662-2.357 1.833l-.85 3.03a.658.658 0 01-.631.479H23.64a.658.658 0 01-.63-.478l-.851-3.031c-.304-1.082-1.217-1.344-2.138-1.738v-2.67a.732.732 0 00.237-1.338 8.94 8.94 0 01-4.243-7.632c0-4.954 4.03-8.984 8.983-8.984 4.954 0 8.984 4.03 8.984 8.984 0 4.953-4.03 8.983-8.984 8.983a8.99 8.99 0 01-1.696-.16.732.732 0 10-.275 1.44c.646.123 1.309.185 1.971.185 5.762 0 10.45-4.687 10.45-10.448 0-5.762-4.688-10.449-10.45-10.449-5.761 0-10.448 4.687-10.448 10.449 0 3.254 1.48 6.254 4.006 8.226v2.97a2.116 2.116 0 00-1.008.27l-2.745 1.542a.657.657 0 01-.784-.108l-1.921-1.92a.657.657 0 01-.108-.784l1.542-2.746a2.12 2.12 0 00.06-1.957 12.619 12.619 0 01-.544-1.314 2.118 2.118 0 00-1.427-1.34l-3.03-.85a.657.657 0 01-.479-.63v-2.717c0-.292.197-.552.479-.63l3.03-.852a2.119 2.119 0 001.427-1.339c.156-.446.339-.888.545-1.314a2.12 2.12 0 00-.061-1.957L11.99 8.155a.658.658 0 01.108-.784l1.92-1.92a.658.658 0 01.785-.108l2.745 1.541a2.12 2.12 0 001.957.061c.426-.205.868-.388 1.314-.545a2.118 2.118 0 001.34-1.426l.85-3.03a.658.658 0 01.631-.479h2.716c.293 0 .552.197.631.478l.851 3.031a2.118 2.118 0 001.34 1.426c.447.157.889.34 1.314.545a2.12 2.12 0 001.958-.06l2.745-1.542a.658.658 0 01.784.108l1.92 1.92a.657.657 0 01.108.784l-1.541 2.746a2.12 2.12 0 00-.061 1.957c.152.315.292.64.417.966a.732.732 0 101.368-.524 14.09 14.09 0 00-.466-1.079.654.654 0 01.02-.603l1.54-2.746a2.127 2.127 0 00-.349-2.537l-1.92-1.92a2.127 2.127 0 00-2.537-.35l-2.745 1.542a.654.654 0 01-.604.019 14.09 14.09 0 00-1.468-.609.653.653 0 01-.412-.44l-.85-3.03A2.127 2.127 0 0026.356 0H23.64c-.946 0-1.785.636-2.041 1.547l-.851 3.03a.652.652 0 01-.412.44c-.499.174-.992.38-1.468.608a.654.654 0 01-.603-.018L15.52 4.065a2.127 2.127 0 00-2.537.35l-1.921 1.92a2.127 2.127 0 00-.35 2.537l1.542 2.745a.653.653 0 01.019.604c-.23.476-.434.97-.608 1.467a.652.652 0 01-.44.412l-3.03.851a2.127 2.127 0 00-1.548 2.041v2.717c0 .946.637 1.785 1.547 2.04l3.031.852a.65.65 0 01.44.412c.174.498.378.991.608 1.467a.654.654 0 01-.019.604l-1.541 2.745a2.127 2.127 0 00.35 2.537l1.92 1.92a2.128 2.128 0 002.537.35l2.745-1.541a.654.654 0 01.29-.083v7.505h-4.782a2.021 2.021 0 00-1.88-1.287 2.022 2.022 0 00-2.019 2.02c0 1.113.906 2.02 2.02 2.02.855 0 1.585-.536 1.88-1.288h5.514a.732.732 0 00.733-.732v-7.681c.307.116.627.198.727.555l.851 3.03c.136.485.439.89.833 1.165v7.05H17.65a2.021 2.021 0 00-1.88-1.287c-1.114 0-2.02.906-2.02 2.02 0 1.113.907 2.02 2.02 2.02.855 0 1.586-.536 1.88-1.288h5.515a.732.732 0 00.732-.732v-7.4H26.1V47.98c0 .404.328.732.732.732h5.515A2.021 2.021 0 0034.228 50c1.113 0 2.02-.906 2.02-2.02 0-1.113-.907-2.02-2.02-2.02-.855 0-1.586.536-1.88 1.288h-4.782V36.32c.394-.275.697-.68.833-1.165l.85-3.031c.1-.357.42-.439.728-.555v11.56c0 .404.328.732.733.732h5.514a2.021 2.021 0 001.88 1.287c1.114 0 2.02-.906 2.02-2.02 0-1.113-.906-2.02-2.02-2.02-.855 0-1.586.536-1.88 1.288h-4.782V31.012c.1.005.2.032.29.083l2.746 1.542c.825.463 1.868.32 2.537-.35l1.92-1.92a2.127 2.127 0 00.35-2.538l-1.542-2.745a.653.653 0 01-.019-.603c.23-.476.435-.97.609-1.468.07-.2.234-.354.44-.412l3.03-.85a2.127 2.127 0 001.547-2.042v-2.716c0-.946-.636-1.786-1.547-2.041zM11.894 39.805a.555.555 0 11.002-1.11.555.555 0 01-.002 1.11zm3.877 4.852a.555.555 0 11.001-1.11.555.555 0 01-.001 1.11zm18.456 2.769a.555.555 0 110 1.11.555.555 0 010-1.11zm3.877-4.852a.555.555 0 11-.001 1.11.555.555 0 01.001-1.11z" fill="#000"/></g><defs><clipPath id="clip0"><path fill="#fff" d="M0 0h50v50H0z"/></clipPath></defs></svg>