<svg width="50" height="50" fill="none" xmlns="http://www.w3.org/2000/svg"><g clip-path="url(#clip0)"><path fill-rule="evenodd" clip-rule="evenodd" d="M49.268 32.752H29.34V13.256h12.462c.482 0 .83.221.997.72l.806 2.446.468 5.152 2.12 2.683 2.356.797c.47.158.72.482.72 1v6.698z" fill="#9E9E9E"/><path fill-rule="evenodd" clip-rule="evenodd" d="M49.27 32.752H46.9v-6.699c0-.517-.25-.841-.72-.999l-2.356-.797h2.37l2.355.797c.47.158.72.482.72 1v6.698zm-8.034-16.33l-.809-2.447c-.163-.498-.514-.72-.993-.72h2.37c.48 0 .83.222.996.72l.805 2.447h-2.37z" fill="#9E9E9E"/><path fill-rule="evenodd" clip-rule="evenodd" d="M.734 8.641v25.944h29.554V8.64a1.52 1.52 0 00-1.517-1.517H2.251A1.52 1.52 0 00.734 8.641z" fill="#D9D9D9"/><path fill-rule="evenodd" clip-rule="evenodd" d="M27.92 34.585h2.369V8.64a1.52 1.52 0 00-1.517-1.517h-2.37a1.52 1.52 0 011.517 1.517v25.944z" fill="#D9D9D9"/><path fill-rule="evenodd" clip-rule="evenodd" d="M19.712 30.942v1.81h-8.4v-1.81c0-.833.684-1.517 1.518-1.517h5.365c.833 0 1.517.684 1.517 1.517zm-8.4-23.818h8.4v5.913c0 .833-.684 1.517-1.518 1.517H12.83a1.523 1.523 0 01-1.518-1.517V7.124z" fill="#E30613"/><path fill-rule="evenodd" clip-rule="evenodd" d="M19.71 30.942v1.81h-2.369v-1.81c0-.833-.683-1.517-1.517-1.517h2.37c.833 0 1.517.684 1.517 1.517zM17.342 7.124h2.37v5.913c0 .833-.684 1.517-1.517 1.517h-2.37c.833 0 1.517-.684 1.517-1.517V7.124z" fill="#E30613"/><path fill-rule="evenodd" clip-rule="evenodd" d="M.734 32.752H49.27v5.102c0 .833-.684 1.517-1.517 1.517H2.25a1.521 1.521 0 01-1.517-1.517v-5.102z" fill="#D9D9D9"/><path fill-rule="evenodd" clip-rule="evenodd" d="M46.904 32.752h2.37v5.102c0 .833-.684 1.517-1.518 1.517h-2.37c.834 0 1.518-.684 1.518-1.517v-5.102z" fill="#D9D9D9"/><path fill-rule="evenodd" clip-rule="evenodd" d="M42.65 35.867a3.505 3.505 0 11-.001 7.01 3.505 3.505 0 01.001-7.01zm-35.298 0a3.505 3.505 0 11-.001 7.01 3.505 3.505 0 01.001-7.01z" fill="#9E9E9E"/><path fill-rule="evenodd" clip-rule="evenodd" d="M42.65 35.867a3.505 3.505 0 11-1.184 6.804 3.51 3.51 0 002.32-3.3 3.51 3.51 0 00-2.32-3.3c.368-.132.77-.204 1.185-.204zm-35.297 0a3.505 3.505 0 11-1.185 6.804 3.51 3.51 0 002.32-3.3 3.51 3.51 0 00-2.32-3.3 3.484 3.484 0 011.185-.204z" fill="#9E9E9E"/><path fill-rule="evenodd" clip-rule="evenodd" d="M43.605 16.422l2.588 7.835h-6.527a1.521 1.521 0 01-1.518-1.517v-4.803a1.52 1.52 0 011.517-1.514h3.94z" fill="#1D327B"/><path fill-rule="evenodd" clip-rule="evenodd" d="M43.608 16.422l2.588 7.835h-2.37l-2.588-7.835h2.37z" fill="#1D327B"/><path d="M17.506 18.922a.733.733 0 010 1.036.734.734 0 01-1.035 0l-.227-.227v6.142a.735.735 0 01-1.467 0v-6.142l-.227.227a.734.734 0 01-1.035 0 .733.733 0 010-1.036l1.478-1.478a.734.734 0 011.035 0l1.478 1.478zm22.72 9.183a.733.733 0 110-1.465h1.738a.733.733 0 110 1.465h-1.739zm-1.343-9.424a.733.733 0 01-1.465 0v-2.259a.73.73 0 01.731-.733h4.443l-.559-1.7H31.021v18.03h17.515v-6.201l-2.456-.828h-7.93a.732.732 0 01-.732-.733v-2.26a.732.732 0 011.464 0v1.529h6.299l-2.104-6.373h-4.194v1.528zm7.892 5.003l2.724.919c.332.11.501.404.501.739v14.03a.73.73 0 01-.73.73h-2.445a4.222 4.222 0 01-1.18 2.265 4.227 4.227 0 01-2.995 1.242 4.238 4.238 0 01-4.175-3.507H11.528a4.242 4.242 0 01-1.18 2.265 4.227 4.227 0 01-2.995 1.242 4.228 4.228 0 01-2.998-1.242 4.219 4.219 0 01-1.176-2.265H.734a.732.732 0 01-.734-.73V21.595a.733.733 0 111.464 0V32.02h9.116v-2.594a.73.73 0 01.73-.73h8.4a.73.73 0 01.73.73v2.594h9.116V7.855H20.44v6.7a.73.73 0 01-.73.73h-2.541a.733.733 0 010-1.464h1.807V7.854h-6.931v5.965h1.807a.733.733 0 010 1.465h-2.541a.73.73 0 01-.73-.73v-6.7H1.463V18.28a.732.732 0 01-1.464 0V7.124c0-.404.33-.733.734-.733h29.553c.405 0 .734.329.734.733v5.398h11.54c.336 0 .618.227.704.534l3.51 10.628zm-4.125 11.45c1.169 0 2.229.475 2.995 1.242a4.215 4.215 0 011.18 2.262h1.71v-5.152H1.466v5.152h1.713a4.212 4.212 0 011.176-2.262 4.229 4.229 0 012.999-1.243c1.168 0 2.228.476 2.995 1.243a4.234 4.234 0 011.18 2.262h26.948a4.23 4.23 0 011.176-2.262 4.229 4.229 0 012.998-1.243zm1.96 2.277a2.757 2.757 0 00-1.96-.813c-.767 0-1.459.31-1.96.813a2.752 2.752 0 00-.813 1.96c0 .764.31 1.46.813 1.96a2.761 2.761 0 001.96.811 2.766 2.766 0 002.771-2.77c0-.767-.31-1.46-.81-1.96zm-35.298 0a2.757 2.757 0 00-1.96-.813c-.766 0-1.458.31-1.962.813a2.761 2.761 0 00-.811 1.96 2.766 2.766 0 002.774 2.771 2.766 2.766 0 002.77-2.77c0-.767-.31-1.46-.81-1.96zm13.991-26.386a.733.733 0 110-1.465h3.391a.733.733 0 110 1.464h-3.391zm0 3.272a.733.733 0 110-1.465h2.104a.733.733 0 110 1.465h-2.104zm-4.327 15.862h-6.931v1.86h6.931v-1.86z" fill="#000"/></g><defs><clipPath id="clip0"><path fill="#fff" d="M0 0h50v50H0z"/></clipPath></defs></svg>