<svg width="314" height="104" fill="none" xmlns="http://www.w3.org/2000/svg"><path d="M108.513 97.953c-.242-.242-.242-.484-.242-.97.242-.969.966-1.453 2.174-1.453h1.691l-.967 2.423h-1.69c-.242.242-.725 0-.966 0zm-1.691 4.847l2.898-3.15h1.208l-.966 3.15h2.174l2.898-8.966h-4.106c-1.208 0-2.415.242-3.14.727-.724.484-1.207 1.211-1.449 2.423-.242 1.211.242 1.938 1.208 2.423l-3.382 3.393h2.657zm-10.868 0l5.796-6.058-1.932 6.058h2.174l2.898-8.966h-2.415l-5.797 6.058 1.932-6.058h-2.173l-2.899 8.966h2.416zm-11.11 0l1.207-3.878h3.623l-1.208 3.878h2.174l2.898-8.966h-2.173l-1.208 3.392h-3.864l1.207-3.392h-2.173l-2.899 8.966h2.416zm-9.903-2.424c.242-.969 1.45-1.454 4.106-1.454h.242l-.242.485c-.242.727-.483 1.212-1.208 1.454-.483.485-1.207.485-1.69.485-.725.242-1.208-.243-1.208-.97zm3.381 1.454c0 .485-.241.727-.241.97h1.932c0-.485.242-1.212.483-1.939l1.208-3.635c0-.242.241-.484.241-.727 0-.727 0-1.211-.241-1.696-.242-.485-.725-.727-1.208-.97-.483-.242-.966-.242-1.69-.242-1.45 0-2.657.485-3.865 1.212l.483 1.454c.966-.485 1.932-.97 2.657-.97 1.207 0 1.69.485 1.45 1.212 0 .243 0 .485-.243.485-4.347 0-6.52 1.211-7.004 3.392-.241.727 0 1.454.483 1.697.484.484 1.208.484 1.933.484 1.932.485 2.898.243 3.622-.727zm-14.25.97l2.416-7.27h3.623l-2.416 7.27h2.174l2.898-8.966h-7.97L61.9 102.8h2.174zm-14.008 0l2.174-6.543.483 6.543h1.208L59 96.257l-2.174 6.543H59l2.898-8.966h-3.14l-4.589 6.058-.241-5.816H51.03l-2.898 8.966h1.932v-.242zm-9.902-2.181c-.242-.485-.483-.97-.242-1.697.242-.969.483-1.696 1.208-2.423.725-.727 1.45-.97 2.415-.97.725 0 1.208.243 1.45.728.24.484.482.97.24 1.696-.24.97-.482 1.696-1.207 2.423-.724.727-1.449.97-2.415.97-.724 0-1.207-.243-1.45-.727zm5.313.969c1.208-.969 1.933-2.423 2.174-3.877.242-1.212 0-2.181-.724-2.908-.725-.727-1.691-.97-2.899-.97-1.69 0-2.898.485-4.106 1.697-1.207.97-1.932 2.423-2.173 3.877-.242 1.212 0 2.181.724 2.908.725.727 1.69.969 2.899.969 1.449-.242 2.898-.727 4.105-1.696zM29.294 102.8l1.449-4.362 2.415 4.362h2.657l-2.657-4.605 5.555-4.361h-2.898l-4.83 3.877 1.207-3.877h-2.174L27.12 102.8h2.174zm121.963-23.99c-.241-.242-.241-.485-.241-.97.241-.969.966-1.453 2.173-1.453h1.691l-.966 2.423h-1.691c-.483.242-.724 0-.966 0zm-1.932 5.089l2.898-3.15h1.208l-.966 3.15h2.174l2.898-8.966h-4.106c-1.208 0-2.415.242-3.14.727-.724.484-1.207 1.211-1.449 2.423s.242 1.939 1.208 2.423l-3.382 3.393h2.657zm-9.661-2.666c.242-.969 1.449-1.454 4.106-1.454h.242l-.242.485c-.241.727-.483 1.212-1.208 1.454-.483.484-1.207.484-1.69.484-.725.243-1.208-.242-1.208-.969zm3.381 1.454c0 .485-.241.727-.241.97h1.932c0-.485.242-1.212.483-1.94l1.208-3.634c0-.242.241-.485.241-.727 0-.727 0-1.212-.241-1.696-.242-.485-.725-.727-1.208-.97-.483-.242-.966-.242-1.69-.242-1.45 0-2.657.485-3.865 1.212l.483 1.454c.966-.485 1.932-.97 2.657-.97 1.208 0 1.691.485 1.449 1.212 0 .242 0 .485-.241.485-4.348 0-6.522 1.211-7.005 3.392-.241.727 0 1.454.483 1.697.484.484 1.208.484 1.933.484 1.932.485 2.898.242 3.622-.727zM128.796 83.9l1.207-3.877h3.623l-1.208 3.877h2.174l2.898-8.966h-2.173l-1.208 3.392h-3.864l1.207-3.392h-2.173L126.38 83.9h2.416zm-6.763 0l2.415-7.27h2.899l.483-1.696h-7.729l-.483 1.696h2.898l-2.415 7.27h1.932zm-11.835-2.181c-.241-.485-.483-.97-.241-1.696.241-.97.483-1.697 1.208-2.424.724-.727 1.449-.969 2.415-.969.724 0 1.207.242 1.449.727.241.485.483.97.241 1.696-.241.97-.483 1.939-1.207 2.424-.725.727-1.449.969-2.415.969l-1.45-.727zm-3.139 6.542l1.932-5.815c.483 1.211 1.449 1.696 2.898 1.696s2.657-.485 3.864-1.696c1.208-.97 1.691-2.423 1.933-3.877.241-1.212 0-2.181-.483-2.908-.483-.727-1.45-.97-2.657-.97-1.449 0-2.657.485-3.381 1.697l.483-1.454h-2.174l-4.589 13.327h2.174zm-8.454-6.784c-.241-.485-.483-.97-.241-1.697.241-.969.483-1.696 1.207-2.423.725-.727 1.45-.97 2.416-.97.724 0 1.207.243 1.449.728.241.484.483.97.241 1.696-.241.97-.483 1.696-1.207 2.423-.725.727-1.449.97-2.415.97-.484 0-1.208-.243-1.45-.727zm5.314.969c1.207-.97 1.932-2.423 2.174-3.877.241-1.212 0-2.181-.725-2.908-.725-.727-1.691-.97-2.898-.97-1.691 0-2.898.485-4.106 1.697-1.208.97-1.932 2.423-2.174 3.877-.241 1.212 0 2.18.725 2.908.724.727 1.69 1.211 2.898 1.211 1.449-.242 2.898-.969 4.106-1.938zM86.771 83.9l2.415-7.27h3.623l-2.415 7.27h2.173l2.899-8.966h-7.97L84.597 83.9h2.174zm-3.14-1.454l-.966-1.212c-.725.727-1.45.97-2.415.97-.725 0-1.208-.243-1.691-.727-.242-.485-.483-.97-.242-1.697.242-.969.484-1.696 1.208-2.423.725-.727 1.45-.97 2.415-.97.483 0 .725 0 .966.243l.725.727 1.69-1.212c-.482-.969-1.448-1.453-3.14-1.453-1.69 0-2.897.484-4.105 1.696-1.208 1.211-1.932 2.423-2.174 3.877-.241 1.212 0 2.18.725 2.908.724.727 1.69.97 2.898.97 1.45 0 2.898-.728 4.106-1.697zM66.724 83.9l1.208-3.877h3.623L70.347 83.9h2.174l2.898-8.966h-2.173l-1.208 3.392h-3.623l1.208-3.392h-2.174L64.551 83.9h2.173zm-9.902-2.666c.241-.969 1.45-1.454 4.106-1.454h.241l-.241.485c-.242.727-.483 1.212-1.208 1.454-.483.484-1.207.484-1.69.484-.725.243-1.208-.242-1.208-.969zm3.381 1.454c0 .485-.241.727-.241.97h1.932c0-.485.242-1.212.483-1.94l1.208-3.634c0-.242.241-.485.241-.727 0-.727 0-1.212-.241-1.696-.242-.485-.725-.727-1.208-.97-.483-.242-.966-.242-1.69-.242-1.45 0-2.657.485-3.865 1.212l.483 1.454c.966-.485 1.932-.97 2.657-.97 1.207 0 1.69.485 1.449 1.212 0 .242 0 .485-.242.485-4.347 0-6.52 1.211-7.004 3.392-.241.727 0 1.454.483 1.697.483.484 1.208.484 1.932.484 1.933.485 2.899.242 3.623-.727zm-13.525-.97c-.241-.484-.483-.968-.241-1.695.241-.97.483-1.697 1.207-2.424.725-.727 1.45-.969 2.415-.969.725 0 1.208.242 1.45.727.241.485.483.97.241 1.696-.242.97-.483 1.939-1.208 2.424-.724.727-1.449.969-2.415.969-.724-.242-1.207-.485-1.449-.727zm-3.14 6.543l1.933-5.815c.483 1.211 1.449 1.696 2.898 1.696s2.657-.485 3.864-1.696c1.208-.97 1.69-2.423 1.932-3.877.242-1.212 0-2.181-.483-2.908-.483-.727-1.449-.97-2.657-.97-1.449 0-2.656.485-3.38 1.697l.482-1.454h-2.174L41.365 88.26h2.173zM38.225 83.9l2.415-7.27h2.898l.483-1.696h-7.728l-.483 1.696h2.898l-2.415 7.27h1.932z" fill="#000"/><path d="M170.827 60.394l8.212-24.717h-8.695l3.14-9.45h28.258l-3.14 9.45h-8.453l-8.212 24.717h-11.11zm45.407-13.567c-.242 1.697-.966 2.908-1.933 3.877-.966.97-2.415 1.697-3.864 1.697-1.207 0-2.174-.243-2.657-.97-.483-.727-.724-1.453-.483-2.665.242-1.454.966-2.908 1.933-3.877.966-.97 2.415-1.697 3.864-1.697 1.207 0 2.174.243 2.657.97.483.727.724 1.454.483 2.665zm9.178-9.45c-1.45-1.939-3.865-3.15-7.246-3.15-2.898 0-5.555 1.211-7.729 3.392l.966-2.666h-10.144L188.942 72.03h10.868l4.589-13.57c.483.727 1.208 1.454 2.415 1.938 1.208.485 2.416.727 3.623.727 4.106 0 7.729-1.454 10.869-4.604 3.139-3.15 5.072-6.785 5.796-11.147.483-3.392 0-5.815-1.69-7.996zm17.878 12.597l-.241.727c-.483.97-.966 1.938-1.933 2.665a4.63 4.63 0 01-2.898.97c-1.449 0-2.174-.485-1.932-1.697.242-1.696 2.415-2.665 6.28-2.665h.724zm9.42-13.57c-1.691-1.454-4.589-2.423-8.212-2.423-1.932 0-4.106.484-6.521 1.211-2.416.727-4.348 1.939-6.038 3.393l3.864 5.33c1.932-1.453 3.864-2.18 6.038-2.18.966 0 1.691.242 2.174.485.483.242.724.727.483 1.454 0 .242 0 .484-.242.484-10.868 0-16.906 3.393-17.872 9.935-.242 2.181.241 3.877 1.449 5.09 1.449 1.21 2.898 1.695 5.072 1.695 2.898 0 5.555-.969 7.728-2.907-.241.727-.241 1.696-.483 2.423h9.178c.242-1.212.483-2.666.966-3.877l3.14-9.45c.483-1.455.725-2.909.966-4.12.725-2.666 0-4.847-1.69-6.543zm16.177 23.989l3.14-9.208h-5.314l-3.14 9.208h-10.868l8.453-25.443h10.869l-2.657 8.239h5.313l2.657-8.24h10.869l-8.454 25.444h-10.868zm38.402-2.423l-3.14-7.27c-1.208.97-2.415 1.455-3.864 1.455-1.208 0-2.174-.485-2.899-1.212-.483-.727-.724-1.696-.724-2.665.241-1.454.966-2.908 2.174-3.877 1.207-.97 2.415-1.697 4.105-1.697 1.45 0 2.657.485 2.899 1.454l7.245-6.785c-1.449-2.18-4.589-3.392-8.936-3.392-4.589 0-8.453 1.454-12.076 4.604-3.381 3.15-5.555 6.785-6.038 11.147-.483 3.392.241 6.3 2.174 8.239 1.932 2.18 4.83 3.15 8.694 3.15 3.865 0 7.246-.97 10.386-3.15z" fill="#1D327B"/><path d="M72.291 60.394l7.005-19.87h-.242L65.77 60.393h-7.728v-19.87H57.8l-6.038 19.87H41.376l11.352-34.168h14.25v18.659h.241l11.835-18.659h15.699L83.16 60.394H72.29zm36.954-16.478c0 .242 0 .485-.242.485h-7.97c.241-.727.966-1.454 1.932-2.181.966-.727 1.932-.97 3.14-.97.966 0 1.932.243 2.415.727.725.485.725.97.725 1.939zm7.245-6.785c-1.932-1.939-4.589-2.908-8.453-2.908-4.589 0-8.695 1.454-12.076 4.362-3.382 2.908-5.555 6.543-6.28 10.904-.483 3.635.242 6.543 2.416 8.482 2.173 1.938 5.313 2.908 9.177 2.908 5.314 0 9.661-1.454 13.284-4.605l-6.521-5.088c-1.449 1.211-2.898 1.696-4.589 1.696-.966 0-1.932-.242-2.657-.727-.724-.485-1.207-1.212-.966-2.181v-.242h17.39c.724-1.454 1.207-2.908 1.449-4.604.241-3.15-.483-5.816-2.174-7.997zm-.242 23.263l8.453-25.444h19.322l-2.657 7.997h-8.453l-5.797 17.447h-10.868zm40.327-10.42l-.242.727c-.241.97-.966 1.938-1.932 2.665a4.63 4.63 0 01-2.898.97c-1.449 0-2.174-.485-1.932-1.697.241-1.696 2.415-2.665 6.279-2.665h.725zm9.419-13.57c-1.69-1.454-4.589-2.423-8.212-2.423-1.932 0-4.105.484-6.521 1.211-2.415.727-4.347 1.939-6.038 3.393l3.865 5.33c1.932-1.453 3.864-2.18 6.038-2.18.966 0 1.69.242 2.173.485.483.242.725.727.483 1.454 0 .242 0 .484-.241.484-10.869 0-16.907 3.393-17.873 9.935-.241 2.181.242 3.877 1.449 5.09 1.45 1.21 2.899 1.695 5.072 1.695 2.899 0 5.555-.969 7.729-2.907-.241.727-.241 1.696-.483 2.423h9.178c.241-1.212.483-2.666.966-3.877l3.14-9.45c.483-1.455.724-2.909.966-4.12.724-2.666 0-4.847-1.691-6.543z" fill="#000"/><path d="M43.79 14.595L33.404.298 27.366 19.44H7.078l10.386 14.297h20.288l6.038-19.143z" fill="#1D327B"/><path d="M17.463 33.739L.798 39.069 17.22 50.945 10.94 70.33l16.666-5.573 6.28-19.144L17.462 33.74z" fill="#E30613"/></svg>